<svg xmlns="http://www.w3.org/2000/svg" height="67" width="197.5" viewBox="0 0 158 53.6">
<style type="text/css">
	.st0{enable-background:new    ;}
	.st1{fill:url(#SVGID_1_);}
</style>
<g class="st0">
	<path d="M43.8,8.6c-0.5,0-1-0.1-1.5-0.3c-0.5-0.2-0.9-0.5-1.3-0.9l0.8-0.9c0.3,0.3,0.6,0.5,1,0.6c0.4,0.2,0.7,0.2,1.1,0.2
		c0.4,0,0.8-0.1,1-0.3c0.2-0.2,0.3-0.4,0.3-0.7c0-0.2,0-0.3-0.1-0.4c-0.1-0.1-0.1-0.2-0.3-0.3s-0.2-0.2-0.4-0.2
		c-0.1-0.1-0.3-0.1-0.5-0.2l-1.1-0.5c-0.2-0.1-0.4-0.2-0.6-0.3S42,4.2,41.8,4c-0.2-0.2-0.3-0.4-0.4-0.6c-0.1-0.2-0.1-0.5-0.1-0.8
		c0-0.3,0.1-0.6,0.2-0.9c0.1-0.3,0.3-0.5,0.5-0.7c0.2-0.2,0.5-0.4,0.8-0.5c0.3-0.1,0.7-0.2,1.1-0.2c0.5,0,0.9,0.1,1.3,0.3
		c0.4,0.2,0.8,0.4,1.1,0.7l-0.7,0.9c-0.3-0.2-0.5-0.4-0.8-0.5c-0.3-0.1-0.6-0.2-0.9-0.2c-0.4,0-0.7,0.1-0.9,0.2s-0.3,0.4-0.3,0.7
		c0,0.2,0,0.3,0.1,0.4c0.1,0.1,0.2,0.2,0.3,0.3c0.1,0.1,0.2,0.2,0.4,0.2c0.2,0.1,0.3,0.1,0.5,0.2L45,4.2c0.2,0.1,0.4,0.2,0.6,0.3
		c0.2,0.1,0.4,0.3,0.5,0.4c0.1,0.2,0.2,0.4,0.3,0.6c0.1,0.2,0.1,0.5,0.1,0.8c0,0.3-0.1,0.6-0.2,0.9c-0.1,0.3-0.3,0.5-0.6,0.7
		S45.3,8.3,45,8.4C44.6,8.6,44.2,8.6,43.8,8.6z"/>
	<path d="M47.9,10.8V2.6h1.1l0.1,0.6h0C49.4,3,49.7,2.8,50,2.7c0.3-0.2,0.6-0.2,0.9-0.2c0.4,0,0.7,0.1,1,0.2
		c0.3,0.1,0.5,0.3,0.7,0.6c0.2,0.3,0.4,0.6,0.5,0.9c0.1,0.4,0.2,0.8,0.2,1.2c0,0.5-0.1,1-0.2,1.4c-0.1,0.4-0.3,0.7-0.6,1
		C52.3,8,52,8.3,51.7,8.4c-0.3,0.1-0.6,0.2-0.9,0.2c-0.3,0-0.5-0.1-0.8-0.2c-0.3-0.1-0.5-0.3-0.7-0.5l0,1v1.8H47.9z M50.5,7.5
		c0.4,0,0.7-0.2,1-0.5c0.3-0.3,0.4-0.8,0.4-1.5c0-0.6-0.1-1.1-0.3-1.4c-0.2-0.3-0.5-0.5-1-0.5c-0.4,0-0.8,0.2-1.3,0.7V7
		c0.2,0.2,0.4,0.3,0.6,0.4C50.1,7.4,50.3,7.5,50.5,7.5z"/>
	<path d="M57.2,8.6c-0.4,0-0.8-0.1-1.1-0.2c-0.4-0.1-0.7-0.3-0.9-0.6s-0.5-0.6-0.6-1S54.3,6,54.3,5.5c0-0.5,0.1-0.9,0.2-1.3
		c0.2-0.4,0.4-0.7,0.6-1s0.5-0.5,0.9-0.6c0.3-0.1,0.7-0.2,1-0.2c0.4,0,0.8,0.1,1.1,0.2c0.3,0.1,0.6,0.3,0.8,0.6s0.4,0.5,0.5,0.9
		s0.2,0.7,0.2,1.1c0,0.1,0,0.3,0,0.4c0,0.1,0,0.2,0,0.3h-3.7c0.1,0.5,0.2,0.9,0.6,1.2c0.3,0.3,0.7,0.4,1.2,0.4c0.3,0,0.5,0,0.7-0.1
		c0.2-0.1,0.4-0.2,0.7-0.3L59.2,8c-0.3,0.2-0.6,0.3-0.9,0.5C57.9,8.6,57.6,8.6,57.2,8.6z M55.6,5h2.6c0-0.5-0.1-0.8-0.3-1.1
		c-0.2-0.3-0.5-0.4-0.9-0.4c-0.4,0-0.7,0.1-0.9,0.4S55.7,4.5,55.6,5z"/>
	<path d="M63.2,8.6c-0.4,0-0.8-0.1-1.1-0.2c-0.3-0.1-0.6-0.3-0.9-0.6c-0.3-0.3-0.5-0.6-0.6-1S60.4,6,60.4,5.5c0-0.5,0.1-0.9,0.2-1.3
		s0.4-0.7,0.6-1c0.3-0.3,0.6-0.5,0.9-0.6c0.4-0.1,0.7-0.2,1.1-0.2c0.4,0,0.7,0.1,1,0.2s0.5,0.3,0.7,0.5L64.4,4
		c-0.2-0.1-0.3-0.2-0.5-0.3c-0.2-0.1-0.3-0.1-0.5-0.1c-0.5,0-0.9,0.2-1.2,0.5c-0.3,0.4-0.4,0.8-0.4,1.4c0,0.6,0.1,1.1,0.4,1.4
		c0.3,0.4,0.7,0.5,1.1,0.5c0.2,0,0.5,0,0.7-0.1c0.2-0.1,0.4-0.2,0.6-0.4l0.6,0.9c-0.3,0.2-0.6,0.4-0.9,0.5S63.6,8.6,63.2,8.6z"/>
	<path d="M68.3,8.6c-0.3,0-0.6-0.1-0.9-0.2C67.2,8.4,67,8.2,66.8,8c-0.1-0.2-0.3-0.4-0.3-0.7c-0.1-0.3-0.1-0.5-0.1-0.9V3.7h-0.8v-1
		l0.9-0.1L66.6,1h1.2v1.6h1.5v1.1h-1.5v2.8c0,0.7,0.3,1,0.8,1c0.1,0,0.2,0,0.3,0c0.1,0,0.2-0.1,0.3-0.1l0.2,1
		c-0.2,0.1-0.3,0.1-0.5,0.2S68.5,8.6,68.3,8.6z"/>
	<path d="M70.5,8.5V2.6h1.1l0.1,1h0c0.2-0.4,0.5-0.7,0.8-0.9c0.3-0.2,0.6-0.3,0.9-0.3c0.3,0,0.5,0,0.7,0.1l-0.2,1.2
		c-0.1,0-0.2-0.1-0.3-0.1c-0.1,0-0.2,0-0.3,0c-0.2,0-0.5,0.1-0.7,0.3c-0.3,0.2-0.5,0.5-0.7,0.9v3.6H70.5z"/>
	<path d="M76.1,8.6c-0.5,0-0.9-0.2-1.3-0.5c-0.3-0.3-0.5-0.7-0.5-1.3c0-0.3,0.1-0.6,0.2-0.8c0.1-0.2,0.3-0.5,0.6-0.6
		c0.3-0.2,0.6-0.3,1.1-0.4s1-0.2,1.6-0.3c0-0.2,0-0.3-0.1-0.4c0-0.1-0.1-0.3-0.2-0.4c-0.1-0.1-0.2-0.2-0.3-0.3
		c-0.1-0.1-0.3-0.1-0.5-0.1c-0.3,0-0.6,0.1-0.8,0.2S75.4,4,75.1,4.1l-0.5-0.9c0.3-0.2,0.7-0.4,1.1-0.5c0.4-0.2,0.8-0.2,1.3-0.2
		c0.7,0,1.3,0.2,1.7,0.7C79,3.5,79.2,4.2,79.2,5v3.5h-1.1L78,7.8h0c-0.3,0.2-0.5,0.4-0.8,0.6C76.8,8.5,76.5,8.6,76.1,8.6z M76.6,7.5
		c0.2,0,0.5-0.1,0.7-0.2c0.2-0.1,0.4-0.3,0.6-0.5V5.6c-0.4,0-0.7,0.1-1,0.2S76.3,5.9,76.2,6c-0.2,0.1-0.3,0.2-0.4,0.3
		c-0.1,0.1-0.1,0.3-0.1,0.4c0,0.3,0.1,0.5,0.2,0.6C76.1,7.5,76.3,7.5,76.6,7.5z"/>
	<path d="M82.2,8.6c-0.5,0-0.8-0.1-1-0.4C81,7.9,80.9,7.5,80.9,7V0h1.4v7c0,0.2,0,0.3,0.1,0.4s0.1,0.1,0.2,0.1c0,0,0.1,0,0.1,0
		s0.1,0,0.1,0l0.2,1C82.8,8.6,82.5,8.6,82.2,8.6z"/>
	<path d="M89,8.6c-0.4,0-0.8-0.1-1.1-0.2c-0.3-0.1-0.7-0.3-0.9-0.6s-0.5-0.6-0.6-1S86.1,6,86.1,5.5c0-0.5,0.1-0.9,0.2-1.3
		s0.4-0.7,0.6-1C87.3,3,87.6,2.8,88,2.6c0.4-0.1,0.7-0.2,1.1-0.2c0.4,0,0.7,0.1,1,0.2c0.3,0.1,0.5,0.3,0.7,0.5L90.2,4
		c-0.2-0.1-0.3-0.2-0.5-0.3s-0.3-0.1-0.5-0.1c-0.5,0-0.9,0.2-1.2,0.5c-0.3,0.4-0.4,0.8-0.4,1.4c0,0.6,0.1,1.1,0.4,1.4
		c0.3,0.4,0.7,0.5,1.1,0.5c0.2,0,0.5,0,0.7-0.1C90,7.2,90.2,7.1,90.3,7l0.6,0.9c-0.3,0.2-0.6,0.4-0.9,0.5S89.3,8.6,89,8.6z"/>
	<path d="M94.2,8.6c-0.4,0-0.7-0.1-1.1-0.2c-0.3-0.1-0.6-0.3-0.9-0.6s-0.5-0.6-0.6-1c-0.2-0.4-0.2-0.8-0.2-1.3
		c0-0.5,0.1-0.9,0.2-1.3c0.2-0.4,0.4-0.7,0.6-1c0.3-0.3,0.6-0.5,0.9-0.6c0.3-0.1,0.7-0.2,1.1-0.2c0.4,0,0.7,0.1,1.1,0.2
		c0.3,0.1,0.6,0.3,0.9,0.6c0.3,0.3,0.5,0.6,0.6,1S97,5,97,5.5c0,0.5-0.1,0.9-0.2,1.3s-0.4,0.7-0.6,1c-0.3,0.3-0.6,0.5-0.9,0.6
		C94.9,8.5,94.6,8.6,94.2,8.6z M94.2,7.5c0.4,0,0.8-0.2,1-0.5c0.2-0.4,0.4-0.8,0.4-1.4c0-0.6-0.1-1.1-0.4-1.4
		c-0.2-0.4-0.6-0.5-1-0.5c-0.4,0-0.8,0.2-1,0.5c-0.2,0.4-0.4,0.8-0.4,1.4c0,0.6,0.1,1.1,0.4,1.4C93.4,7.3,93.8,7.5,94.2,7.5z"/>
	<path d="M100.1,8.6c-0.6,0-1.1-0.2-1.4-0.6c-0.3-0.4-0.4-1-0.4-1.7V2.6h1.4v3.5c0,0.5,0.1,0.8,0.2,1c0.1,0.2,0.4,0.3,0.7,0.3
		c0.3,0,0.5-0.1,0.7-0.2c0.2-0.1,0.4-0.3,0.6-0.6v-4h1.4v5.9h-1.1l-0.1-0.9h0c-0.3,0.3-0.5,0.5-0.8,0.7
		C100.9,8.5,100.5,8.6,100.1,8.6z"/>
	<path d="M105,8.5V2.6h1.1l0.1,0.8h0c0.3-0.3,0.5-0.5,0.9-0.7c0.3-0.2,0.7-0.3,1.1-0.3c0.6,0,1.1,0.2,1.4,0.6c0.3,0.4,0.4,1,0.4,1.7
		v3.7h-1.4V5c0-0.5-0.1-0.8-0.2-1s-0.4-0.3-0.7-0.3c-0.3,0-0.5,0.1-0.7,0.2c-0.2,0.1-0.4,0.3-0.7,0.5v4.1H105z"/>
	<path d="M113.8,8.6c-0.3,0-0.6-0.1-0.9-0.2c-0.2-0.1-0.4-0.2-0.6-0.4c-0.1-0.2-0.3-0.4-0.3-0.7C112,7.1,112,6.8,112,6.5V3.7h-0.8
		v-1l0.9-0.1l0.2-1.6h1.2v1.6h1.5v1.1h-1.5v2.8c0,0.7,0.3,1,0.8,1c0.1,0,0.2,0,0.3,0c0.1,0,0.2-0.1,0.3-0.1l0.2,1
		c-0.2,0.1-0.3,0.1-0.5,0.2C114.3,8.6,114.1,8.6,113.8,8.6z"/>
</g>
<linearGradient id="SVGID_1_" gradientUnits="userSpaceOnUse" x1="2.6903" y1="102.2717" x2="3.6903" y2="102.2717" gradientTransform="matrix(150 0 0 -20 -400.6831 2073.9053)">
	<stop  offset="0" style="stop-color:#FFFFFF"/>
	<stop  offset="0.5" style="stop-color:#0040FF"/>
	<stop  offset="1" style="stop-color:#000000"/>
</linearGradient>
<rect x="2.9" y="18.5" class="st1" width="150" height="20"/>
<g class="st0">
	<path d="M2.6,53.6c-0.8,0-1.4-0.3-1.9-1c-0.5-0.7-0.7-1.7-0.7-3c0-1.3,0.2-2.3,0.7-2.9s1.1-1,1.9-1c0.8,0,1.4,0.3,1.9,1
		s0.7,1.6,0.7,2.9c0,1.3-0.2,2.3-0.7,3C4,53.3,3.4,53.6,2.6,53.6z M2.6,52.5c0.2,0,0.4-0.1,0.5-0.2c0.2-0.1,0.3-0.3,0.4-0.5
		s0.2-0.5,0.3-0.9c0.1-0.4,0.1-0.8,0.1-1.4c0-0.5,0-1-0.1-1.4s-0.2-0.7-0.3-0.9S3.3,47,3.1,46.9c-0.2-0.1-0.3-0.1-0.5-0.1
		s-0.4,0-0.5,0.1c-0.2,0.1-0.3,0.2-0.4,0.5c-0.1,0.2-0.2,0.5-0.3,0.9s-0.1,0.8-0.1,1.4c0,0.5,0,1,0.1,1.4c0.1,0.4,0.2,0.7,0.3,0.9
		c0.1,0.2,0.2,0.4,0.4,0.5C2.2,52.5,2.4,52.5,2.6,52.5z"/>
</g>
<g class="st0">
	<path d="M149.1,53.6c-0.6,0-1.1-0.1-1.6-0.3s-0.8-0.5-1-0.7l0.6-0.9c0.2,0.2,0.5,0.4,0.8,0.6c0.3,0.2,0.6,0.2,1,0.2
		c0.4,0,0.8-0.1,1.1-0.4c0.3-0.3,0.4-0.6,0.4-1.1c0-0.5-0.1-0.8-0.4-1.1c-0.3-0.2-0.6-0.4-1-0.4c-0.2,0-0.5,0-0.6,0.1
		c-0.2,0.1-0.4,0.2-0.6,0.3l-0.7-0.4l0.2-3.8h4.1V47h-2.9l-0.2,1.8c0.2-0.1,0.3-0.1,0.5-0.2c0.2,0,0.3-0.1,0.5-0.1
		c0.3,0,0.6,0,0.9,0.1c0.3,0.1,0.5,0.2,0.8,0.4s0.4,0.4,0.5,0.7c0.1,0.3,0.2,0.7,0.2,1.1c0,0.4-0.1,0.8-0.2,1.1
		c-0.1,0.3-0.3,0.6-0.6,0.8s-0.5,0.4-0.9,0.5C149.8,53.6,149.4,53.6,149.1,53.6z"/>
	<path d="M155.4,53.6c-0.8,0-1.4-0.3-1.9-1c-0.5-0.7-0.7-1.7-0.7-3c0-1.3,0.2-2.3,0.7-2.9c0.5-0.7,1.1-1,1.9-1s1.4,0.3,1.9,1
		c0.5,0.7,0.7,1.6,0.7,2.9c0,1.3-0.2,2.3-0.7,3C156.8,53.3,156.2,53.6,155.4,53.6z M155.4,52.5c0.2,0,0.4-0.1,0.5-0.2
		c0.2-0.1,0.3-0.3,0.4-0.5s0.2-0.5,0.3-0.9c0.1-0.4,0.1-0.8,0.1-1.4c0-0.5,0-1-0.1-1.4c-0.1-0.4-0.2-0.7-0.3-0.9s-0.2-0.4-0.4-0.5
		c-0.2-0.1-0.3-0.1-0.5-0.1s-0.4,0-0.5,0.1c-0.2,0.1-0.3,0.2-0.4,0.5c-0.1,0.2-0.2,0.5-0.3,0.9s-0.1,0.8-0.1,1.4c0,0.5,0,1,0.1,1.4
		c0.1,0.4,0.2,0.7,0.3,0.9c0.1,0.2,0.2,0.4,0.4,0.5C155.1,52.5,155.2,52.5,155.4,52.5z"/>
</g>
</svg>
