<svg version="1.1" id="Layer_1" xmlns="http://www.w3.org/2000/svg" x="0" y="0" viewBox="0 0 359 359" xml:space="preserve"><style>.st1{fill:#699c78}.st2{fill:#7dc383}</style><g><circle cx="179.5" cy="179.5" r="150" fill="#fff1bc"/></g><path id="envelope_1_" class="st1" d="M179.5 43.5c36.3 0 70.5 14.1 96.2 39.8 25.7 25.7 39.8 59.8 39.8 96.2s-14.1 70.5-39.8 96.2c-25.7 25.7-59.8 39.8-96.2 39.8s-70.5-14.1-96.2-39.8c-25.7-25.7-39.8-59.8-39.8-96.2S57.6 109 83.3 83.3s59.9-39.8 96.2-39.8m0-14c-82.8 0-150 67.2-150 150s67.2 150 150 150 150-67.2 150-150-67.2-150-150-150z"/><g id="spike"><g><path class="st1" d="M179.5 35c-3 0-5.5-2.5-5.5-5.5v-24c0-3 2.5-5.5 5.5-5.5s5.5 2.5 5.5 5.5v24c0 3-2.5 5.5-5.5 5.5z"/><path class="st1" d="M191.5 11h-24c-3 0-5.5-2.5-5.5-5.5s2.5-5.5 5.5-5.5h24c3 0 5.5 2.5 5.5 5.5s-2.5 5.5-5.5 5.5z"/></g><g><path class="st1" d="M104.5 55.1c-1.9 0-3.8-1-4.8-2.8l-12-20.8c-1.5-2.6-.6-6 2-7.5s6-.6 7.5 2l12 20.8c1.5 2.6.6 6-2 7.5-.8.6-1.8.8-2.7.8z"/><path class="st1" d="M82.1 40.3c-1.9 0-3.7-1-4.8-2.8-1.5-2.6-.6-6 2-7.5l20.8-12c2.6-1.5 6-.6 7.5 2s.6 6-2 7.5l-20.8 12c-.8.6-1.8.8-2.7.8z"/></g><g><path class="st1" d="M49.6 110c-.9 0-1.9-.2-2.7-.7l-20.8-12c-2.6-1.5-3.5-4.9-2-7.5 1.5-2.6 4.9-3.5 7.5-2l20.8 12c2.6 1.5 3.5 4.9 2 7.5-1.1 1.7-2.9 2.7-4.8 2.7z"/><path class="st1" d="M22.8 108.4c-.9 0-1.9-.2-2.7-.7-2.6-1.5-3.5-4.9-2-7.5l12-20.8c1.5-2.6 4.9-3.5 7.5-2 2.6 1.5 3.5 4.9 2 7.5l-12 20.8c-1 1.7-2.9 2.7-4.8 2.7z"/></g><g><path class="st1" d="M29.5 185h-24c-3 0-5.5-2.5-5.5-5.5s2.5-5.5 5.5-5.5h24c3 0 5.5 2.5 5.5 5.5s-2.5 5.5-5.5 5.5z"/><path class="st1" d="M5.5 197c-3 0-5.5-2.5-5.5-5.5v-24c0-3 2.5-5.5 5.5-5.5s5.5 2.5 5.5 5.5v24c0 3-2.5 5.5-5.5 5.5z"/></g><g><path class="st1" d="M28.8 272c-1.9 0-3.7-1-4.8-2.8-1.5-2.6-.6-6 2-7.5l20.8-12c2.6-1.5 6-.6 7.5 2s.6 6-2 7.5l-20.8 12c-.8.6-1.8.8-2.7.8z"/><path class="st1" d="M34.8 282.4c-1.9 0-3.8-1-4.8-2.8l-12-20.8c-1.5-2.6-.6-6 2-7.5s6-.6 7.5 2l12 20.8c1.5 2.6.6 6-2 7.5-.8.6-1.8.8-2.7.8z"/></g><g><path class="st1" d="M92.5 335.7c-.9 0-1.9-.2-2.7-.7-2.6-1.5-3.5-4.9-2-7.5l12-20.8c1.5-2.6 4.9-3.5 7.5-2 2.6 1.5 3.5 4.9 2 7.5l-12 20.8c-1.1 1.7-2.9 2.7-4.8 2.7z"/><path class="st1" d="M102.9 341.7c-.9 0-1.9-.2-2.7-.7l-20.8-12c-2.6-1.5-3.5-4.9-2-7.5 1.5-2.6 4.9-3.5 7.5-2l20.8 12c2.6 1.5 3.5 4.9 2 7.5-1.1 1.7-2.9 2.7-4.8 2.7z"/></g><g><path class="st1" d="M179.5 359c-3 0-5.5-2.5-5.5-5.5v-24c0-3 2.5-5.5 5.5-5.5s5.5 2.5 5.5 5.5v24c0 3-2.5 5.5-5.5 5.5z"/><path class="st1" d="M191.5 359h-24c-3 0-5.5-2.5-5.5-5.5s2.5-5.5 5.5-5.5h24c3 0 5.5 2.5 5.5 5.5s-2.5 5.5-5.5 5.5z"/></g><g><path class="st1" d="M266.5 335.7c-1.9 0-3.7-1-4.8-2.8l-12-20.8c-1.5-2.6-.6-6 2-7.5s6-.6 7.5 2l12 20.8c1.5 2.6.6 6-2 7.5-.8.6-1.8.8-2.7.8z"/><path class="st1" d="M256.1 341.7c-1.9 0-3.7-1-4.8-2.8-1.5-2.6-.6-6 2-7.5l20.8-12c2.6-1.5 6-.6 7.5 2s.6 6-2 7.5l-20.8 12c-.8.6-1.8.8-2.7.8z"/></g><g><path class="st1" d="M330.2 272c-.9 0-1.9-.2-2.7-.7l-20.8-12c-2.6-1.5-3.5-4.9-2-7.5 1.5-2.6 4.9-3.5 7.5-2l20.8 12c2.6 1.5 3.5 4.9 2 7.5-1.1 1.7-2.9 2.7-4.8 2.7z"/><path class="st1" d="M324.2 282.4c-.9 0-1.9-.2-2.7-.7-2.6-1.5-3.5-4.9-2-7.5l12-20.8c1.5-2.6 4.9-3.5 7.5-2 2.6 1.5 3.5 4.9 2 7.5l-12 20.8c-1.1 1.7-2.9 2.7-4.8 2.7z"/></g><g><path class="st1" d="M353.5 185h-24c-3 0-5.5-2.5-5.5-5.5s2.5-5.5 5.5-5.5h24c3 0 5.5 2.5 5.5 5.5s-2.5 5.5-5.5 5.5z"/><path class="st1" d="M353.5 197c-3 0-5.5-2.5-5.5-5.5v-24c0-3 2.5-5.5 5.5-5.5s5.5 2.5 5.5 5.5v24c0 3-2.5 5.5-5.5 5.5z"/></g><g><path class="st1" d="M309.4 110c-1.9 0-3.7-1-4.8-2.8-1.5-2.6-.6-6 2-7.5l20.8-12c2.6-1.5 6-.6 7.5 2s.6 6-2 7.5l-20.8 12c-.8.6-1.8.8-2.7.8z"/><path class="st1" d="M336.2 108.4c-1.9 0-3.7-1-4.8-2.8l-12-20.8c-1.5-2.6-.6-6 2-7.5s6-.6 7.5 2l12 20.8c1.5 2.6.6 6-2 7.5-.8.6-1.8.8-2.7.8z"/></g><g><path class="st1" d="M254.5 55.1c-.9 0-1.9-.2-2.7-.7-2.6-1.5-3.5-4.9-2-7.5l12-20.8c1.5-2.6 4.9-3.5 7.5-2 2.6 1.5 3.5 4.9 2 7.5l-12 20.8c-1.1 1.7-2.9 2.7-4.8 2.7z"/><path class="st1" d="M276.9 40.3c-.9 0-1.9-.2-2.7-.7l-20.8-12c-2.6-1.5-3.5-4.9-2-7.5 1.5-2.6 4.9-3.5 7.5-2l20.8 12c2.6 1.5 3.5 4.9 2 7.5-1.1 1.7-2.9 2.7-4.8 2.7z"/></g></g><g id="matrix"><circle class="st2" cx="55.5" cy="179.5" r="10"/><circle class="st2" cx="57" cy="198.9" r="10"/><circle class="st2" cx="61.6" cy="217.8" r="10"/><circle class="st2" cx="69" cy="235.8" r="10"/><circle class="st2" cx="79.2" cy="252.4" r="10"/><circle class="st2" cx="91.8" cy="267.2" r="10"/><circle class="st2" cx="106.6" cy="279.8" r="10"/><circle class="st2" cx="123.2" cy="290" r="10"/><circle class="st2" cx="141.2" cy="297.4" r="10"/><circle class="st2" cx="160.1" cy="302" r="10"/><circle class="st2" cx="179.5" cy="303.5" r="10"/><circle class="st2" cx="198.9" cy="302" r="10"/><circle class="st2" cx="217.8" cy="297.4" r="10"/><circle class="st2" cx="235.8" cy="290" r="10"/><circle class="st2" cx="252.4" cy="279.8" r="10"/><circle class="st2" cx="267.2" cy="267.2" r="10"/><circle class="st2" cx="279.8" cy="252.4" r="10"/><circle class="st2" cx="290" cy="235.8" r="10"/><circle class="st2" cx="297.4" cy="217.8" r="10"/><circle class="st2" cx="302" cy="198.9" r="10"/><circle class="st2" cx="303.5" cy="179.5" r="10"/><circle class="st2" cx="302" cy="160.1" r="10"/><circle class="st2" cx="297.4" cy="141.2" r="10"/><circle class="st2" cx="290" cy="123.2" r="10"/><circle class="st2" cx="279.8" cy="106.6" r="10"/><circle class="st2" cx="267.2" cy="91.8" r="10"/><circle class="st2" cx="252.4" cy="79.2" r="10"/><circle class="st2" cx="235.8" cy="69" r="10"/><circle class="st2" cx="217.8" cy="61.6" r="10"/><circle class="st2" cx="198.9" cy="57" r="10"/><circle class="st2" cx="179.5" cy="55.5" r="10"/><circle class="st2" cx="160.1" cy="57" r="10"/><circle class="st2" cx="141.2" cy="61.6" r="10"/><circle class="st2" cx="123.2" cy="69" r="10"/><circle class="st2" cx="106.6" cy="79.2" r="10"/><circle class="st2" cx="91.8" cy="91.8" r="10"/><circle class="st2" cx="79.2" cy="106.6" r="10"/><circle class="st2" cx="69" cy="123.2" r="10"/><circle class="st2" cx="61.6" cy="141.2" r="10"/><circle class="st2" cx="57" cy="160.1" r="10"/></g><g id="nucleocapsid"><g id="capsid"><path opacity=".5" fill="#7dc383" d="M210.8 104.9h-62.6L117 179.5l31.2 74.6h62.6l31.2-74.6z"/><path class="st1" d="M210.8 258.1h-62.5c-1.6 0-3.1-1-3.7-2.5L113.3 181c-.4-1-.4-2.1 0-3.1l31.2-74.6c.6-1.5 2.1-2.5 3.7-2.5h62.5c1.6 0 3.1 1 3.7 2.5l31.2 74.6c.4 1 .4 2.1 0 3.1l-31.2 74.6c-.6 1.5-2 2.5-3.6 2.5zm-59.9-8h57.2l29.6-70.6-29.6-70.6h-57.2l-29.6 70.6 29.6 70.6z"/></g><path class="st1" d="M199.7 127.1c-6.8-2.7-13.8-4.7-21.1-5.8-6.8-1.1-14.2-1.7-19.4 3.6-4 4-5.7 10.2-4.3 15.7 1.5 5.9 6.2 10.6 11.6 13.2 6.6 3.2 14 3.4 21.1 2.1 3-.5 5.8-1.5 8.8-2 1.2-.2 2-.3 3.4-.4h1s1 .1.5 0c.6.1 1.2.2 1.8.5-.5-.2.3.2.4.2 0 0 .7.6.3.2.5.4.6.5.7.9.5 1.1.5 2.2-.1 3.5-1.1 2.5-3.9 4-6.2 5.1-5.8 2.8-12.3 4.4-18.8 4.8-3.4.2-6.9.1-10.2-.3-3.1-.4-6.1-1.3-9.2-2-3.2-.7-6.9-1-9.8.9-2.6 1.7-4.2 4.7-5 7.6-2.8 10 4.1 21.6 14.3 23.9 7.4 1.7 14.7-1 21.5-3.7 3.4-1.3 6.8-2.6 10.3-3.8 1.7-.6 3.3-1.1 5-1.6.4-.1 5-1.2 5-1.4 0 .1-.4-.4-.5-.4.2 0 .2.3.2.5.2.6.2 1 .2 1.6 0 1.4-.3 2.7-.8 4-1.2 2.7-3.3 4.9-5.6 6.6-5.7 4-12.6 6.5-19 8.8-3.2 1.2-6.5 2.1-9.7 3.2-2.6.9-5.2 1.9-7.4 3.5-2.3 1.6-4.3 3.7-4.9 6.5-.7 3.2.4 6.4 2.7 8.7 5.4 5.5 13.3 4.1 20.2 3 5.1-.8 11-.8 15.9 1.2 2.1.9 4 2.3 5.5 4.2 1 1.3 3.2 1.1 4.2 0 1.3-1.3 1-3 0-4.2-3.7-4.6-9.5-6.7-15.2-7.4-2.8-.3-5.6-.3-8.4-.1-3.5.3-6.9 1.2-10.3 1.4-2.8.1-5.5-.3-7.4-2.1-.8-.7-1.1-1.2-1.3-2.2-.1-.5 0 .6 0-.4 0-.1.1-1 0-.4 0-.3.1-.6.2-.8.2-.6-.1.2.2-.3.1-.2.3-.5.5-.7-.3.5.3-.3.3-.3.2-.2.4-.4.7-.6l.1-.1c1-.8 2.2-1.4 3.4-2 2.3-1 5.3-1.8 8-2.7 6.8-2.3 13.7-4.8 20.1-8.1 5.9-3 11.3-7.3 13.5-13.8 1-2.9 1.3-6.9-.3-9.7-.9-1.7-2.5-2.7-4.4-2.8-1.9-.1-3.8.7-5.6 1.2-7 2.1-13.8 4.8-20.7 7.3-3.1 1.1-6.4 2.2-9.8 2.4-1.5.1-3 .1-4.5-.3-1.3-.3-2-.5-2.9-1-.5-.3-1.1-.6-1.6-.9-.3-.2-.5-.3-.7-.5l-.1-.1c-.5-.4-.9-.8-1.3-1.2-.2-.2-.3-.4-.5-.6-.1-.1-.7-.8-.4-.5-1.5-2-2.2-3.5-2.7-5.8-.4-1.8-.4-4 0-5.7.1-.5.3-.9.4-1.4.3-.9-.3.5.2-.4.1-.3.3-.5.4-.8.6-1 1.3-1.9 2.3-2.3 2.4-.7 5.5.5 8 1.1 3.3.8 6.7 1.3 10 1.5 6.8.5 13.7-.3 20.2-2.2 3.3-1 6.5-2.2 9.5-3.7 2.9-1.5 5.8-3.6 7.4-6.5 1.6-3 2-6.7.3-9.7-1.3-2.5-3.9-4.1-6.6-4.6-6-1.1-11.7 1.4-17.5 2.4-6.1 1-12.7.6-18-2.6-2-1.2-3.9-2.9-5.2-4.8-1.4-2.1-2.1-4.2-2-6.6.1-4.4 3.2-8.6 7.8-9.6 3.1-.6 6.6 0 9.7.5 3.5.6 7 1.4 10.5 2.3 3.3.9 6.5 2 9.7 3.3 1.5.6 3.3-.7 3.7-2.1.3-1.4-.7-2.8-2.3-3.4z"/></g></svg>