<svg version="1.1" id="Layer_1" xmlns="http://www.w3.org/2000/svg" x="0" y="0" viewBox="0 0 300 300" xml:space="preserve"><style>.st1{fill:#916691}</style><circle cx="150" cy="150" r="150" fill="#f3dff4"/><g id="ER"><path class="st1" d="M153.4 254.7c-.9 0-1.8-.3-2.5-1-1.4-1.4-1.4-3.6 0-4.9 20.7-20.7 20.7-54.5 0-75.2-10-10-23.4-15.6-37.6-15.6s-27.6 5.5-37.6 15.6c-1.4 1.4-3.6 1.4-5 0s-1.4-3.6 0-4.9c11.4-11.4 26.5-17.6 42.6-17.6s31.2 6.3 42.6 17.6c23.5 23.5 23.5 61.7 0 85.1-.7.6-1.6.9-2.5.9z"/><path class="st1" d="M164.4 257.8c-.9 0-1.8-.3-2.5-1-1.4-1.4-1.4-3.6 0-4.9 10.8-10.8 16.3-27.2 14.7-43.9-.2-1.9 1.2-3.6 3.2-3.8 1.9-.2 3.6 1.2 3.8 3.2 1.7 18.8-4.6 37.3-16.8 49.5-.6.5-1.5.9-2.4.9zM175.7 192.6c-1.4 0-2.7-.8-3.3-2.2-3.4-8.6-8.5-16.4-15.3-23.1-8.7-8.7-19.4-14.9-30.9-17.8-1.9-.5-3-2.4-2.5-4.3s2.4-3 4.3-2.5c12.7 3.2 24.6 10 34.2 19.6 7.4 7.4 13.1 16 16.8 25.5.7 1.8-.2 3.8-2 4.5-.4.2-.9.3-1.3.3zM71.2 162.8c-1 0-1.9-.4-2.6-1.2-1.3-1.5-1.1-3.7.3-4.9 10.8-9.5 26.9-14.8 44.1-14.7 1.9 0 3.5 1.6 3.5 3.5s-1.6 3.5-3.5 3.5h-.5c-15.3 0-29.5 4.7-39 13-.6.5-1.4.8-2.3.8z"/><path class="st1" d="M188 234c-.3 0-.7 0-1-.1-1.9-.5-2.9-2.5-2.4-4.3 6.6-22.6-1.6-49.4-20.8-68.2-3-3-6.3-5.7-9.7-8.2-1.6-1.1-1.9-3.3-.8-4.9 1.1-1.6 3.3-1.9 4.9-.8 3.7 2.7 7.2 5.6 10.5 8.8 21 20.6 29.9 50.1 22.6 75.1-.4 1.6-1.8 2.6-3.3 2.6zM80.4 146.4c-1.3 0-2.6-.8-3.2-2.1-.8-1.8 0-3.8 1.7-4.6 21.7-9.9 43.2-10.3 64.1-1.5 1.8.8 2.6 2.8 1.8 4.6-.8 1.8-2.8 2.6-4.6 1.8-19-8.1-38.6-7.6-58.4 1.4-.4.3-.9.4-1.4.4z"/><path class="st1" d="M102.3 149.4c-1.5 0-2.8-1.1-3-2.6l-1.2-9.5c-.2-1.6 1-3.1 2.6-3.3 1.6-.2 3.1 1 3.3 2.6l1.2 9.5c.2 1.6-1 3.1-2.6 3.3 0-.1-.2 0-.3 0zM86.8 164c-1.2 0-2.3-.7-2.8-1.8l-3.6-8.4c-.7-1.5.1-3.3 1.6-3.9 1.5-.7 3.3.1 3.9 1.6l3.6 8.4c.7 1.5-.1 3.3-1.6 3.9-.3.1-.7.2-1.1.2zM133.4 150.9c-.4 0-.9-.1-1.3-.3-1.5-.7-2.1-2.5-1.4-4l3.5-7.2c.7-1.5 2.5-2.1 4-1.4 1.5.7 2.1 2.5 1.4 4l-3.5 7.2c-.5 1-1.6 1.7-2.7 1.7zM147 166.7c-.6 0-1.2-.2-1.7-.5-1.4-.9-1.7-2.8-.8-4.2l3.8-5.6c.9-1.4 2.8-1.7 4.2-.8 1.4.9 1.7 2.8.8 4.2l-3.8 5.6c-.6.9-1.6 1.3-2.5 1.3zM169.6 179c-.9 0-1.7-.4-2.3-1.1-1.1-1.3-.9-3.2.4-4.2l6.2-5.1c1.3-1.1 3.2-.9 4.2.4 1.1 1.3.9 3.2-.4 4.2l-6.2 5.1c-.5.5-1.2.7-1.9.7zM119 166.3c-1.7 0-3-1.3-3-3v-7.2c0-1.7 1.3-3 3-3s3 1.3 3 3v7.2c0 1.7-1.3 3-3 3zM170.3 246.3c-.5 0-.9-.1-1.3-.3l-7.2-3.6c-1.5-.7-2.1-2.5-1.3-4 .7-1.5 2.5-2.1 4-1.3l7.2 3.6c1.5.7 2.1 2.5 1.3 4-.5 1-1.6 1.6-2.7 1.6zM178.7 218.2h-.5l-8.4-1.2c-1.9-.3-3.2-2-3-4 .3-1.9 2-3.3 4-3l8.4 1.2c1.9.3 3.2 2 3 4-.3 1.7-1.8 3-3.5 3zM168 228.4h-.4l-8.4-1.2c-1.6-.2-2.8-1.8-2.5-3.4.2-1.6 1.8-2.8 3.4-2.5l8.4 1.2c1.6.2 2.8 1.8 2.5 3.4-.3 1.4-1.6 2.5-3 2.5zM158.4 195c-1 0-2-.5-2.6-1.5-.9-1.4-.4-3.3 1-4.1l6-3.6c1.4-.9 3.3-.4 4.1 1 .9 1.4.4 3.3-1 4.1l-6 3.6c-.4.3-1 .5-1.5.5zM189.2 227.2h-.2l-9-.6c-1.7-.1-2.9-1.5-2.8-3.2.1-1.7 1.6-2.9 3.2-2.8l9 .6c1.7.1 2.9 1.5 2.8 3.2-.2 1.6-1.5 2.8-3 2.8z"/></g><g><circle id="nucleus_1_" cx="112.1" cy="212" r="47.7" fill="#cab4ca"/><path class="st1" d="M112.1 263.2c-28.3 0-51.2-23-51.2-51.2s23-51.2 51.2-51.2 51.2 23 51.2 51.2-22.9 51.2-51.2 51.2zm0-95.4c-24.4 0-44.2 19.8-44.2 44.2s19.8 44.2 44.2 44.2 44.2-19.8 44.2-44.2-19.8-44.2-44.2-44.2z"/></g><g><path id="golgi_1_" class="st1" d="M184.2 78c1.4-.2 2.1-1.5 2-2.6-.1-.6-.5-1.5-.8-2.1-.3-.5-1-1.1-1.5-1.4-1.3-.8-3-.6-4.3-.7-1.6-.2-3.3-.6-4.9-1.4-2.1-.9-4.1-1.9-6-3.2-1.9-1.3-3.5-2.9-4.8-4.6-1.4-1.9-2.4-3.9-3.1-6-.3-.8-.6-1.7-1.1-2.5-.5-.8-1.2-1.3-2-1.8-1-.7-2.1-.8-3-.4-.9.5-1.8 1.8-1.5 3.2.3 1.6 1.5 3 2.6 4.1 1.8 1.7 3.6 3.2 5.4 4.9 2.1 2 4.2 4.1 6.6 5.9 1.8 1.3 3.7 2.5 5.6 3.6.9.6 1.9 1.1 2.8 1.7.9.6 1.7 1.3 2.6 1.8.8.5 1.8 1 2.9 1.3.8.2 1.7.3 2.5.2zm-29.8-27.1c1-.5 2.2-.3 3.3.4.9.6 1.6 1.2 2.1 1.9.5.8.8 1.6 1.1 2.4l.1.2c.8 2.3 1.8 4.3 3 5.9 1.4 1.9 3 3.4 4.7 4.6 1.9 1.3 4 2.3 6 3.2 1.5.7 3.1 1.1 4.8 1.3.4.1.8.1 1.2.1 1.1 0 2.2.1 3.3.7.6.3 1.3 1 1.7 1.6.3.5.8 1.5.9 2.2.2 1.2-.5 2.8-2.2 3-.8.1-1.7 0-2.8-.3-.9-.3-1.9-.7-2.9-1.3-.6-.3-1.1-.7-1.6-1.1-.3-.3-.7-.5-1.1-.7-.6-.4-1.2-.7-1.8-1.1-.3-.2-.7-.4-1-.6-1.9-1.1-3.8-2.3-5.7-3.7-1.8-1.3-3.5-2.9-5.1-4.5-.5-.5-1-1-1.5-1.4-.7-.7-1.5-1.3-2.2-1.9-1.1-.9-2.2-1.9-3.2-2.9-1.6-1.6-2.5-3-2.7-4.3 0-.3-.1-.5 0-.8 0-1.4.9-2.5 1.6-2.9zm31.4 24.5c-.1-.5-.3-1.2-.8-2-.3-.4-.9-1-1.4-1.3-.9-.5-1.9-.6-2.9-.6-.4 0-.9 0-1.3-.1-1.7-.2-3.4-.7-5-1.4-2-.9-4.1-1.9-6.1-3.2-1.8-1.2-3.4-2.8-4.9-4.7-1.3-1.7-2.3-3.7-3.2-6.1l-.1-.2c-.3-.8-.5-1.5-1-2.2-.4-.6-1-1.2-1.9-1.7-.9-.6-1.9-.8-2.6-.4-.6.3-1.3 1.2-1.4 2.2v.6c.2 1.2 1 2.5 2.5 4 1 1 2.1 2 3.2 2.9.7.7 1.5 1.3 2.2 2 .5.5 1 1 1.5 1.4 1.6 1.5 3.2 3.1 5 4.4 1.8 1.3 3.8 2.5 5.6 3.6.3.2.7.4 1 .6.6.4 1.2.7 1.8 1.1.4.2.7.5 1.1.8.5.4 1 .7 1.5 1 1 .6 1.9 1 2.8 1.2.9.3 1.8.4 2.5.3 1.1-.2 1.6-1 1.7-1.8.3-.1.3-.2.2-.4zm18.9 37.5c2.4-.9 2.1-3.6.8-5.4-1-1.4-2.9-2.5-4.5-3.3-1.1-.6-2.3-1-3.5-1.4-4.1-1.2-8.3-1.7-12.3-3.2-4.5-1.8-8.9-4-13.4-5.9-1.9-.8-3.7-1.6-5.6-2.4-1.4-.6-2.7-1.2-4.1-1.8-4.8-2.1-9.7-4.1-14.6-6-1.2-.5-2.4-.9-3.6-1.4-2.9-1.1-5.8-2.3-8.6-3.6-4.2-2-8.2-4.4-12.3-6.6-.9-.4-1.7-.9-2.6-1.3-1.6-.8-3.4-1.5-5.1-1.5-.8 0-1.6.2-2.2.6-1 .6-1.9 1.3-2 2.5-.1.8.5 2 .9 2.8 1.9 3.7 7.3 4.6 11.1 5.6 6.2 1.7 12.4 3.6 18.3 6.2 1.4.6 2.8 1.2 4.1 1.8 1.4.6 2.8 1.2 4.1 1.8 4.9 2.2 9.9 4.4 14.8 6.5 3.3 1.4 6.7 2.8 10.1 4.1 3.8 1.5 7.8 2.9 11.4 4.9 1.1.7 2.3 1.3 3.4 2 1.9 1.1 3.8 2.3 5.8 3.2 2.8 1.4 6.7 2.9 9.6 1.8zm-94-40.7c.1-1.4 1.2-2.2 2.2-2.7.7-.4 1.5-.6 2.4-.7 1.8 0 3.7.8 5.3 1.5.8.4 1.7.8 2.5 1.3l.1.1c1.5.8 2.9 1.6 4.4 2.4 2.6 1.4 5.2 2.9 7.9 4.2 2.9 1.4 6 2.6 8.6 3.6 1.2.5 2.4.9 3.6 1.4 4.3 1.7 8.8 3.5 14.6 6 .9.4 1.7.8 2.6 1.1l1.4.6c1.3.6 2.7 1.2 4 1.8l1.6.7c2 .8 3.9 1.7 5.8 2.6 2.5 1.1 5 2.3 7.5 3.3 2.4.9 4.8 1.5 7.2 2 1.7.4 3.4.7 5 1.2 1.3.4 2.5.9 3.5 1.4 1.8.9 3.6 1.9 4.6 3.4.7 1 1.1 2.2 1 3.3-.1 1.2-.8 2.2-2 2.6-3 1.2-7.1-.4-9.9-1.7-2.1-1-4-2.1-5.8-3.2l-.3-.2c-1-.6-2.1-1.3-3.1-1.9-3.2-1.8-6.8-3.2-10.2-4.5l-1.1-.4c-3.6-1.4-7.1-2.9-10.1-4.1-4.3-1.8-9-3.9-14.8-6.5l-4.1-1.8c-1.4-.6-2.7-1.2-4.1-1.8-5.1-2.2-10.8-4.1-18.2-6.2-.5-.1-1-.3-1.6-.4-3.6-.9-8-2-9.7-5.4-.3-.9-.8-2.2-.8-3zm94.5 35.5c-1-1.4-2.7-2.3-4.4-3.2-1-.5-2.1-.9-3.4-1.3-1.7-.5-3.4-.9-5-1.2-2.4-.5-4.9-1.1-7.3-2-2.6-1-5.1-2.2-7.6-3.3-1.9-.9-3.9-1.8-5.8-2.6l-1.6-.7c-1.3-.6-2.7-1.2-4-1.8l-1.4-.6c-.9-.4-1.7-.8-2.6-1.1-5.8-2.5-10.3-4.3-14.6-6-1.2-.5-2.4-.9-3.6-1.4-2.7-1-5.7-2.2-8.7-3.6-2.7-1.3-5.4-2.8-8-4.2-1.5-.8-2.9-1.6-4.4-2.4l-.1-.1c-.8-.4-1.6-.9-2.5-1.2-1.5-.7-3.3-1.5-5-1.5-.7 0-1.4.2-2.1.6-1.1.6-1.8 1.2-1.9 2.2h-.3.3c0 .5.3 1.5.9 2.6 1.6 3.1 5.9 4.1 9.3 5 .6.1 1.1.3 1.6.4 7.5 2.1 13.2 4 18.4 6.3 1.4.6 2.7 1.2 4.1 1.8l4.1 1.8c5.8 2.6 10.5 4.6 14.8 6.5 3 1.3 6.5 2.7 10.1 4.1l1.1.4c3.5 1.3 7 2.7 10.3 4.6 1.1.6 2.1 1.2 3.1 1.9l.3.2c1.8 1.1 3.7 2.2 5.8 3.2 4.2 1.9 7.2 2.5 9.3 1.7 1.2-.4 1.5-1.4 1.5-2 .3-1.1-.1-2.2-.7-3.1zM199 95.4c1.6.3 3.7.4 5.1 0 1.8-.6 2.9-2.3 2.5-4.1-.3-1.3-1.5-2.7-2.8-3.5-3.6-2-7.7-1.4-11.5-1.5-1.2-.1-2.4-.2-3.5-.4-4.3-.9-8.5-2.5-12.6-4.2-2.4-1-4.8-2.1-7.2-3.2-1.7-.8-3.4-1.6-5-2.4-1.2-.6-2.3-1.1-3.5-1.7-4.1-2.1-8.2-4.4-11.6-7.5-2.1-1.9-3.7-4.1-5.9-5.9-1.2-1-2.6-2-4.1-2.6-1.1-.4-3-.8-4.1-.5-1 .3-2 1.2-2.3 2.1-.4.9-.1 2.1.3 3.1 1.1 2.6 3.9 4 6.5 5.4 3.3 1.7 6.6 3.6 9.8 5.5 1.2.7 2.5 1.4 3.7 2.1 4.2 2.5 8.3 5 12.7 7.1 1.5.7 3 1.4 4.5 2 5.2 2.1 10.6 3.7 15.9 5.5 4.2 1.4 8.2 3.7 12.6 4.7h.5zm-66.9-35.5c.4-1 1.5-2 2.6-2.3 1.2-.3 3.2.1 4.3.5 1.6.6 3.2 1.8 4.2 2.6 1.2 1 2.3 2.1 3.3 3.2.8.9 1.7 1.8 2.6 2.6 3.5 3.1 7.8 5.5 11.5 7.4 1 .5 1.9 1 2.9 1.4l.6.3c1.7.8 3.3 1.6 5 2.4 2.6 1.2 4.9 2.2 7.2 3.2 4 1.7 8.3 3.3 12.6 4.2 1.2.2 2.4.4 3.5.4h2.7c3 0 6.2 0 9 1.6 1.5.8 2.7 2.3 3 3.7.4 1.9-.7 3.8-2.7 4.5-1.4.5-3.7.4-5.3.1-.1 0-.3 0-.4-.1h-.1c-2.7-.6-5.3-1.7-7.8-2.8-1.6-.7-3.2-1.4-4.9-1.9l-4.5-1.5c-3.8-1.2-7.7-2.5-11.4-4-1.6-.6-3.1-1.3-4.6-2-3.9-1.8-7.7-4.1-11.3-6.2l-1.4-.8c-1.2-.7-2.4-1.4-3.7-2.1l-1.9-1.1c-2.5-1.5-5.2-3-7.8-4.3-2.5-1.3-5.5-2.8-6.7-5.5-.3-.7-.6-1.6-.5-2.6-.1-.4-.1-.7 0-.9zm74.2 31.5c-.3-1.2-1.4-2.5-2.7-3.3-2.7-1.5-5.7-1.5-8.6-1.5h-2.7c-1.1-.1-2.3-.2-3.6-.5-4.4-.9-8.7-2.5-12.7-4.2-2.3-.9-4.6-2-7.2-3.2-1.7-.8-3.4-1.6-5-2.4l-.6-.3c-1-.5-1.9-.9-2.9-1.4-3.8-1.9-8.1-4.3-11.7-7.5-.9-.8-1.8-1.8-2.6-2.7-1-1.1-2-2.2-3.2-3.2-1-.8-2.5-1.9-4-2.5-1-.4-2.9-.8-3.9-.5-.8.2-1.8 1.1-2.1 1.9-.3.7-.1 1.7.3 2.9 1 2.5 3.8 3.9 6.3 5.2 2.7 1.4 5.3 2.9 7.9 4.4l1.9 1.1c1.2.7 2.5 1.4 3.7 2.2l1.4.8c3.6 2.1 7.4 4.4 11.3 6.2 1.4.7 2.9 1.3 4.5 1.9 3.8 1.5 7.6 2.8 11.4 4l4.5 1.5c1.7.6 3.3 1.3 4.9 2 2.5 1.1 5 2.2 7.6 2.7h.1c.1 0 .2 0 .4.1 1.4.3 3.6.4 4.9 0 1.4-.5 2.2-1.5 2.3-2.8.2-.3.1-.6.1-.9zm-32.8 23c1 .5 2.4 1.1 3.4 1.2 1.3.1 2.4-.6 2.5-1.8.1-.9-.5-2.2-1.2-3.1-2.1-2.4-5.3-3.1-8-3.9-.8-.3-1.7-.6-2.5-.9-3.1-1.2-6.1-2.7-9.1-4-1.8-.8-3.6-1.5-5.5-2.1-1.3-.5-2.6-.9-4-1.2-.9-.3-1.9-.5-2.8-.7-3.4-.8-6.8-1.5-10-2.6-2-.7-3.8-1.7-5.9-2-1.2-.2-2.5-.3-3.8 0-.9.2-2.4.9-3 1.6-.5.6-.8 1.8-.8 2.5.1.8.7 1.4 1.3 1.9 1.6 1.2 3.8.9 5.9.7 2.7-.2 5.4 0 8 .4 1 .1 2 .3 3 .5 3.3.7 6.6 1.8 9.8 2.9 1.1.3 2.2.7 3.3 1 3.8 1.2 7.5 2.4 11.1 4.2 2.8 1.4 5.2 3.6 8 5.1.1.2.2.3.3.3zm-50.2-19.7c.7-.8 2.2-1.5 3.1-1.7 1.1-.3 2.4-.3 3.9 0 1.5.2 2.8.8 4.1 1.3.6.3 1.3.5 1.9.7 2.3.8 4.8 1.4 7.2 1.9.9.2 1.9.4 2.8.7 1 .2 1.9.5 2.8.7 1.3.4 2.7.8 4 1.3 1.8.6 3.6 1.3 5.5 2.1 1.3.6 2.7 1.2 4 1.7 1.7.8 3.4 1.5 5.2 2.2.8.3 1.7.6 2.5.9l.8.2c2.5.7 5.3 1.5 7.3 3.7.9 1 1.4 2.3 1.3 3.3-.1 1.4-1.3 2.2-2.9 2.1-1.2-.1-2.9-.9-3.5-1.2-.1-.1-.2-.1-.3-.2-1.3-.7-2.5-1.6-3.6-2.4-1.4-1-2.8-2-4.3-2.7-3.6-1.8-7.4-3.1-11-4.2l-1.6-.5c-.6-.2-1.1-.3-1.7-.5l-1.8-.6c-2.6-.8-5.3-1.7-8-2.3-1-.2-1.9-.4-2.9-.5-3-.4-5.6-.6-7.9-.4h-.6c-2 .1-4 .3-5.5-.8-.6-.5-1.3-1.2-1.5-2.1v-.5c-.1-.6.2-1.5.7-2.2zm54.6 16.3c-1.9-2.1-4.5-2.8-7-3.5l-.8-.2c-.8-.3-1.7-.6-2.6-.9-1.7-.7-3.5-1.5-5.2-2.2-1.3-.6-2.6-1.2-4-1.7-1.9-.8-3.7-1.5-5.5-2.1-1.3-.5-2.6-.9-3.9-1.2-.9-.3-1.8-.5-2.8-.7-.9-.2-1.9-.5-2.8-.7-2.4-.6-4.9-1.1-7.2-1.9-.7-.2-1.3-.5-1.9-.8-1.3-.5-2.5-1-3.9-1.3-1.4-.2-2.6-.2-3.7 0-.8.2-2.2.8-2.8 1.5-.4.5-.8 1.6-.7 2.3.1.7.7 1.3 1.2 1.6 1.3 1 3.2.8 5.1.7h.6c2.4-.1 5 0 8.1.4 1 .1 2 .3 3 .5 2.7.6 5.4 1.5 8 2.3l1.8.6c.6.2 1.1.4 1.7.5l1.6.5c3.6 1.1 7.5 2.4 11.1 4.2 1.6.8 3 1.8 4.4 2.8 1.2.8 2.4 1.7 3.6 2.4.1.1.2.1.3.2 1.3.7 2.5 1.1 3.2 1.2 1.2.1 2-.5 2.1-1.5.2-1-.3-2.2-1-3zm-22.3 4.4c.6.2 1.3.4 2 .3.9-.2 1.7-1 2-1.9.2-.7 0-1.6-.4-2-1.2-1.3-3.3-1.1-5-1.1-.5 0-1-.1-1.5-.2-1.9-.3-3.6-.9-5.5-1.3-1.1-.2-2.1-.5-3.2-.7-.8-.1-1.5-.2-2.3-.3-.5-.1-1.1-.1-1.6-.2-2-.2-3.9-.3-5.8-.6-1.2-.2-2.3-.5-3.6-.5-.7 0-1.4 0-2.1.2-.5.1-1.1.3-1.3.6-.2.2-.1.5.1.7.2.2.6.4 1.1.6 1 .4 2.2.3 3.2.3 1.4 0 2.8 0 4.2.2.5.1 1.1.1 1.6.2 1.8.3 3.7.7 5.5 1.2.6.1 1.2.3 1.8.4 2.1.5 4.2.9 6.2 1.7 1.6.6 2.9 1.8 4.4 2.5.1-.1.1-.1.2-.1zm-28.6-8c.3-.4 1.5-.7 1.5-.7.5-.1 1.3-.2 2.2-.2.9 0 1.8.2 2.7.3.3.1.6.1.9.2 1.5.2 3.1.4 4.6.5l1.4.1c.5 0 .9.1 1.4.2.9.1 1.6.2 2.3.3 1.1.2 2.2.4 3.2.7.7.2 1.3.3 2 .5 1.1.3 2.3.6 3.5.8.5.1 1 .2 1.5.2h.9c1.5 0 3.2.1 4.3 1.2.5.6.7 1.6.5 2.4-.3 1-1.2 1.9-2.3 2.1-.8.2-1.7-.1-2.3-.4h-.1c-.7-.3-1.4-.8-2-1.2-.8-.5-1.5-1-2.4-1.3-1.9-.7-3.9-1.2-5.9-1.6l-3.1-.7c-1.5-.3-3-.7-4.5-.9-.5-.1-1.1-.1-1.6-.2-1.6-.2-3-.2-4.2-.2-1.1 0-2.2.1-3.3-.3-.6-.2-1-.5-1.2-.7-.2-.2-.3-.5-.2-.7.1-.1.1-.3.2-.4zm31.9 4.6c-.9-.9-2.4-1-3.9-1h-.9c-.5 0-1-.1-1.6-.2-1.2-.2-2.4-.5-3.5-.8-.7-.2-1.3-.3-2-.5-1.1-.3-2.2-.5-3.2-.7-.7-.1-1.5-.2-2.3-.3-.5-.1-.9-.1-1.4-.2l-1.4-.1c-1.5-.1-3.1-.3-4.6-.5-.3 0-.6-.1-.9-.2-.8-.2-1.7-.3-2.6-.3-.8 0-1.5.1-2 .2s-1 .3-1.1.4c0 0 0 .2.1.3.1.1.3.3.9.5 1 .4 2 .3 3.1.3 1.3 0 2.7 0 4.3.2.6.1 1.1.1 1.7.2 1.6.2 3.1.6 4.6.9l3.1.7c2 .4 4 .9 6 1.6.9.3 1.7.9 2.5 1.4.6.4 1.2.8 1.9 1.1.1 0 .1 0 .2.1.7.3 1.3.4 1.8.3.8-.2 1.5-.9 1.7-1.7 0-.1.1-.3.1-.4-.1-.4-.3-1-.6-1.3zm-15.8 9.4c-1.1-.6-2.5-2.3-1.1-3.1 1.6-.9 5.1.9 4.5 2.8-.5 1.3-2.4.9-3.4.3zm-1.3-3.4c1-.6 2.6-.2 3.6.4 1.2.7 1.8 1.8 1.4 2.8-.2.5-.5.8-1 1-.9.3-2.1 0-2.9-.5-.8-.5-1.9-1.6-1.9-2.6 0-.3.2-.8.8-1.1zm3.2 1c-1-.6-2.2-.8-2.9-.4-.3.2-.4.3-.4.6 0 .6.8 1.5 1.5 1.9.7.4 1.7.7 2.3.4.3-.1.5-.3.6-.6 0-.1 0-.2.1-.3 0-.5-.4-1.1-1.2-1.6z"/><path class="st1" d="M145 122.8c-.9 0-1.8-.3-2.4-.7-.8-.5-2.2-1.7-2.1-3.1 0-.4.2-1 1-1.5 1.2-.7 2.9-.3 4.1.4 1.4.9 2 2.2 1.6 3.4-.2.6-.7 1.1-1.3 1.3-.2.2-.6.2-.9.2zm-2-3.9c-.3 0-.5 0-.6.1-.1.1-.2.1-.2.2 0 .3.5 1 1.3 1.5.6.4 1.5.6 1.9.4.1 0 .2-.1.3-.3v-.1c0-.4-.4-.9-1-1.2-.6-.5-1.2-.6-1.7-.6zm14.2-2.3c-.7 0-1.4-.2-2-.5h-.1c-.7-.3-1.4-.8-2.1-1.2-.7-.5-1.5-1-2.3-1.3-1.9-.7-3.9-1.1-5.8-1.6l-3.3-.7c-1.4-.3-2.9-.7-4.3-.9-.5-.1-1-.1-1.6-.2-1.6-.1-2.9-.2-4.2-.2-1.2 0-2.4.1-3.5-.4-.7-.3-1.1-.5-1.4-.8-.3-.3-.4-.7-.4-1.1 0-.3.1-.5.3-.7.4-.5 1.6-.8 1.8-.8.6-.1 1.3-.2 2.3-.2.9 0 1.8.2 2.7.3l1 .2c1.5.2 3 .4 4.4.5l1.7.2c.4 0 .8.1 1.2.1.9.1 1.6.2 2.4.3 1 .2 2.1.4 3.3.7.7.2 1.3.3 2 .5 1.1.3 2.3.6 3.4.8.5.1 1 .2 1.4.2h.8c1.6 0 3.5.1 4.7 1.4.7.7.9 1.9.6 2.9-.4 1.2-1.4 2.2-2.6 2.5h-.4zm-1.4-2c.7.3 1.3.4 1.7.3.6-.1 1.2-.7 1.4-1.3 0-.1 0-.2.1-.3 0-.4-.1-.7-.3-.9-.8-.8-2.2-.8-3.5-.9h-.9c-.5 0-1.1-.1-1.7-.2-1.2-.2-2.3-.5-3.4-.8h-.1c-.7-.2-1.3-.3-2-.5-1.1-.3-2.2-.5-3.2-.7-.7-.1-1.5-.2-2.3-.3-.5-.1-.9-.1-1.4-.2l-1.9-.2c-1.4-.1-2.8-.3-4.2-.5-.2 0-.4-.1-.6-.1l-.3-.1c-.9-.2-1.7-.3-2.5-.3s-1.4 0-1.9.2c-.2 0-.3.1-.4.1.1 0 .2.1.4.1.9.3 1.9.3 2.9.3 1.3 0 2.7 0 4.3.2.6.1 1.1.1 1.7.2 1.5.2 3 .6 4.6 1l3.1.7c1.9.4 4 .9 6 1.6 1 .4 1.8.9 2.6 1.5l.1.1c.5.4 1.1.7 1.7 1zm21.3 1.9h-.3c-1.3-.1-2.9-.8-3.7-1.3-.1-.1-.2-.1-.3-.2-1.3-.7-2.6-1.6-3.7-2.4-1.3-.9-2.7-1.9-4.2-2.7-3.6-1.8-7.6-3.1-11-4.1l-5.1-1.6c-2.6-.8-5.3-1.7-7.9-2.3-.9-.2-1.9-.4-2.9-.5-3-.4-5.5-.5-7.8-.4h-.6c-2 .1-4.2.3-5.9-.9-.7-.5-1.5-1.4-1.7-2.5V97c0-.7.3-1.8.9-2.5.8-1 2.5-1.7 3.4-1.9 1.2-.3 2.5-.3 4.1 0 1.5.2 2.9.8 4.2 1.3.6.3 1.2.5 1.9.7 2.3.8 4.9 1.4 7.1 1.9.9.2 1.9.4 2.8.7 1 .2 1.9.5 2.8.7 1.4.4 2.7.8 4 1.3 1.9.7 3.7 1.3 5.5 2.1 1.1.5 2.2.9 3.3 1.4l.7.3c1.7.8 3.4 1.6 5.1 2.2.9.3 1.7.6 2.4.9l.8.2c2.6.7 5.5 1.5 7.6 3.9 1 1.1 1.5 2.6 1.5 3.7 0 1.5-1.3 2.6-3 2.6zM132 99.2c1.9 0 3.9.2 6.2.5.9.1 2 .3 3 .6 2.8.6 5.5 1.5 8.1 2.3l5.1 1.6c3.6 1.1 7.5 2.4 11.2 4.2 1.6.8 3.1 1.8 4.5 2.8 1.1.8 2.3 1.6 3.5 2.3.1.1.2.1.3.1 1.2.6 2.3 1.1 3 1.1.9.1 1.5-.3 1.6-1.1 0-.6-.4-1.7-1-2.4-1.8-2-4.3-2.7-6.7-3.4l-.8-.2c-.9-.3-1.7-.6-2.6-.9-1.7-.7-3.3-1.4-5-2.1l-.7-.3c-1.2-.5-2.3-1-3.5-1.5-1.9-.8-3.7-1.5-5.4-2.1-1.3-.5-2.6-.9-3.9-1.2-.9-.2-1.7-.5-2.7-.7h-.1c-.9-.2-1.9-.5-2.8-.7h-.2c-2.3-.5-4.8-1.1-7.1-1.9-.6-.2-1.2-.4-1.7-.7l-.2-.1c-1.3-.5-2.5-1-3.8-1.2-1.4-.2-2.5-.2-3.5 0-.7.2-2.1.8-2.5 1.3-.3.4-.6 1.4-.6 1.9.1.4.4.9 1 1.3 1.2.9 3 .7 4.7.6h.6c.7-.1 1.3-.1 2-.1zm70.4 15c-2.7 0-5.6-1.2-7.7-2.2-2.1-1-4-2.1-5.9-3.2l-.3-.2c-1-.6-2.1-1.3-3.1-1.8-3.2-1.8-6.7-3.2-10.1-4.5l-1.1-.4c-3.8-1.4-7.4-3-10.1-4.1-4.2-1.8-8.9-3.8-14.8-6.5l-4.1-1.8c-1.4-.6-2.7-1.2-4.1-1.8-5.1-2.2-10.7-4.1-18.2-6.2-.5-.1-1-.3-1.6-.4-3.7-.9-8.2-2.1-10.1-5.6-.4-.8-.9-2-1-2.9v-.3c.1-1.8 1.7-2.7 2.5-3.2s1.7-.7 2.6-.7c2 0 3.9.8 5.5 1.6.8.4 1.7.8 2.5 1.3l.1.1c1.5.8 2.9 1.6 4.4 2.4 2.4 1.3 5.2 2.9 7.9 4.2 2.8 1.4 5.8 2.5 8.6 3.6l.7.3c1 .4 1.9.7 2.9 1.1 4.4 1.7 8.9 3.6 14.6 6l9.7 4.2c1.8.8 3.7 1.6 5.5 2.4l.4.2c2.5 1.2 5 2.3 7.5 3.3 2.3.9 4.8 1.5 7.2 2 1.6.3 3.4.7 5.1 1.2 1.4.4 2.6.9 3.6 1.4 1.8.9 3.7 2 4.8 3.6.8 1.1 1.2 2.5 1.1 3.6-.1 1.4-.9 2.5-2.3 3.1-.9 0-1.8.2-2.7.2zm-90.5-42c0 .4.2 1.1.8 2.3 1.5 2.9 5.6 3.9 9 4.8.6.1 1.1.3 1.6.4 7.6 2.1 13.2 4 18.4 6.3 1.4.6 2.7 1.2 4.1 1.8l4.1 1.8c5.4 2.4 10.1 4.5 14.8 6.5 3.1 1.3 6.5 2.8 10.1 4.1l1.2.5c3.4 1.3 7 2.7 10.2 4.5 1.1.6 2.1 1.3 3.2 1.9l.3.2c1.8 1.1 3.7 2.2 5.7 3.1 4.1 1.9 7 2.4 8.9 1.7.8-.3 1.2-.8 1.2-1.6.1-.8-.3-1.7-.8-2.6-.9-1.3-2.5-2.2-4.2-3-1-.5-2.1-.9-3.4-1.3-1.6-.5-3.3-.9-5-1.2h-.1c-2.4-.5-4.9-1.1-7.3-2-2.6-1-5.1-2.2-7.6-3.3-1.8-.9-3.8-1.8-5.8-2.6l-1.6-.7c-.8-.4-1.7-.7-2.5-1.1l-3-1.3c-.9-.4-1.7-.8-2.6-1.1-5.7-2.4-10.1-4.3-14.5-6l-3.6-1.4c-2.7-1-5.7-2.2-8.7-3.6-2.8-1.3-5.6-2.9-8-4.2l-.3-.2c-1.3-.7-2.7-1.5-4-2.2l-.1-.1-2.4-1.2c-1.5-.7-3.2-1.5-4.8-1.4-.7 0-1.3.2-1.8.5-1 .6-1.4 1.1-1.5 1.7zm89.9 24.4c-1 0-2.1-.1-2.9-.3-.1 0-.3 0-.4-.1h-.1c-2.8-.6-5.5-1.8-7.8-2.8-1.6-.7-3.2-1.4-4.8-1.9l-4.5-1.5c-3.8-1.2-7.7-2.5-11.5-4-1.5-.6-3.1-1.3-4.6-2-3.9-1.8-7.6-4-11.2-6.2l-1.6-.9c-1.2-.7-2.4-1.4-3.7-2.1l-1.9-1.1c-2.4-1.4-5.1-2.9-7.8-4.3-2.5-1.3-5.7-2.9-6.9-5.8-.3-.7-.6-1.8-.6-2.8 0-.3.1-.7.2-1 .4-1.1 1.7-2.2 2.9-2.6 1.4-.4 3.6.2 4.6.5 1.7.7 3.3 1.9 4.4 2.7 1.3 1 2.4 2.2 3.4 3.3.9 1 1.7 1.8 2.5 2.6 3.4 3.1 7.7 5.5 11.4 7.3 1 .5 1.9 1 2.9 1.4l.6.3 4.5 2.1.5.2c2.5 1.2 4.8 2.2 7.1 3.2 3.9 1.6 8.2 3.3 12.5 4.1 1.2.2 2.3.4 3.4.4h2.6c3.1 0 6.3 0 9.2 1.6 1.6.9 2.9 2.5 3.3 4.1.5 2.1-.8 4.3-3 5-.8.5-1.8.6-2.7.6zm-66.1-37.9c-.2 0-.5 0-.6.1-.7.2-1.5 1-1.8 1.6-.2.5-.1 1.5.3 2.5 1 2.3 3.7 3.7 6.1 4.9 2.7 1.4 5.3 2.9 7.9 4.4l1.9 1.1c1.2.7 2.5 1.4 3.7 2.2l1.6 1c3.5 2.1 7.2 4.3 11 6.1 1.4.7 2.9 1.3 4.5 1.9 3.7 1.5 7.6 2.7 11.3 4 1.6.5 3.1 1 4.6 1.5 1.6.5 3.2 1.2 4.8 1.9l.2.1c2.4 1.1 5 2.1 7.6 2.7h.1c.1 0 .2 0 .2.1h.1c1.5.3 3.5.4 4.6 0 1.2-.4 1.9-1.3 2-2.4v-.7c-.2-1.1-1.3-2.3-2.4-3-2.5-1.4-5.5-1.4-8.4-1.4h-2.7c-1.2-.1-2.4-.2-3.7-.5-4.4-.9-8.7-2.6-12.8-4.2-2.3-.9-4.6-2-7.2-3.2-1.7-.8-3.4-1.6-5-2.4l-.9-.4c-.9-.4-1.8-.9-2.6-1.3-3.8-1.9-8.2-4.4-11.8-7.6-.9-.8-1.7-1.7-2.6-2.7-1-1.1-2-2.2-3.2-3.1-1.5-1.2-2.8-2-3.9-2.4-.9-.5-2.1-.8-2.9-.8zm47.9 20.2c-.7 0-1.4-.1-2.2-.3-.9-.3-1.9-.7-3-1.3-.5-.3-1-.7-1.5-1l-.3-.2c-.3-.2-.5-.4-.8-.6l-1.5-.9-.3-.2c-.3-.2-.7-.4-1-.6-1.9-1.1-3.9-2.3-5.7-3.7-1.8-1.3-3.5-2.9-5.1-4.4-.6-.5-1.1-1-1.6-1.5-.7-.7-1.4-1.3-2.2-1.9l-.2-.2c-1-.9-2-1.8-3-2.8-1.7-1.7-2.6-3.2-2.9-4.6-.1-.3-.1-.6 0-.9.1-1.6 1.1-2.8 2-3.2 1.1-.6 2.5-.4 3.8.4 1 .6 1.7 1.3 2.2 2.1.6.8.9 1.7 1.1 2.5l.1.2c.8 2.3 1.8 4.2 3 5.8 1.4 1.8 2.9 3.3 4.6 4.5 1.9 1.3 4.1 2.3 5.9 3.1 1.5.7 3 1.1 4.6 1.3.4.1.7.1 1.1.1 1.2.1 2.4.1 3.6.8.6.4 1.4 1.1 1.8 1.7.4.7.8 1.6.9 2.4.2 1.5-.8 3.3-2.7 3.6-.2-.2-.4-.2-.7-.2zm-27.9-27.1c-.2 0-.5 0-.7.1-.5.3-1.1 1-1.1 1.8v.5c.2 1.1 1 2.3 2.4 3.7 1 1 2 1.9 3.2 2.9.7.7 1.5 1.3 2.2 2 .4.3.7.7 1.1 1l.4.4c1.6 1.5 3.2 3.1 5 4.4 1.8 1.4 3.8 2.6 5.6 3.6.3.2.7.4 1 .6.6.4 1.2.7 1.8 1.1.4.2.7.5 1.1.7l.3.2c.4.3.8.6 1.3.8 1 .5 1.9.9 2.7 1.2.9.3 1.6.3 2.2.2.8-.1 1.2-.8 1.3-1.4V75.3c0-.4-.3-1.1-.7-1.8-.2-.4-.8-.9-1.2-1.1-.8-.4-1.7-.5-2.7-.5-.4 0-.9 0-1.3-.1-1.8-.2-3.5-.7-5.1-1.4-2-.9-4.1-1.9-6.1-3.3-1.8-1.2-3.5-2.9-5-4.8-1.3-1.7-2.4-3.8-3.2-6.2l-.1-.1c-.3-.8-.5-1.5-.9-2.1-.4-.6-.9-1.1-1.7-1.6-.9-.3-1.4-.5-1.8-.5z"/></g><circle class="st1" cx="103.9" cy="222.7" r="18.5"/><path class="st1" d="M230 143c5.4-1 11 4 12.3 11.2l4.5 23.5c1.4 7.2-1.9 14-7.3 15s-11-4-12.3-11.2l-4.6-23.5c-1.3-7.2 2-13.9 7.4-15z"/><path class="st1" d="M150 14c36.3 0 70.5 14.1 96.2 39.8C271.9 79.5 286 113.7 286 150s-14.1 70.5-39.8 96.2C220.5 271.9 186.3 286 150 286s-70.5-14.1-96.2-39.8C28.1 220.5 14 186.3 14 150s14.1-70.5 39.8-96.2S113.7 14 150 14m0-14C67.2 0 0 67.2 0 150s67.2 150 150 150 150-67.2 150-150S232.8 0 150 0z"/></svg>