<svg xmlns="http://www.w3.org/2000/svg" viewBox="0 0 850 207.43"><title>thistledownfoundation_logo</title><path d="M49.64,124.13c0-2.84,6.6-5.72,6.92-2.86.42,3.84-2,6.93-4.15,6.63C51,127.7,49.74,126.05,49.64,124.13Z" fill="#254853"/><path d="M34.71,58.54c5.36-1.89,7.73,1.44,6.72,2.65C40.74,62,38.54,61.85,34.71,58.54Z" fill="#ea9f79"/><path d="M68.94,45.6c2.21.83,3.16,3.06,2.38,4.14C66.37,50.49,67,46.53,68.94,45.6Z" fill="#254853"/><path d="M256.33,46.5c4-.12,4.65,1.84,3.89,4C255.27,51.86,253.71,46.8,256.33,46.5Z" fill="#ea9f79"/><path d="M149.57,31.39c3.08-.1,5.07,2.88,2.75,3.92C148.85,36.16,148.61,31.81,149.57,31.39Z" fill="#ea9f79"/><path d="M222.3,60c4-.13,4.65,1.83,3.89,4C221.24,65.32,219.68,60.26,222.3,60Z" fill="#ea9f79"/><path d="M167.69,67.08c4-.13,4.65,1.84,3.89,4C166.63,72.44,165.08,67.38,167.69,67.08Z" fill="#254853"/><path d="M183.62,50.74c-3-5.23.14-6,2.74-5.4S189.88,51.1,183.62,50.74Z" fill="#ea9f79"/><path d="M190.53,107.51c4.82,1.8,3.23,4.86.31,6.15C182.8,111.93,187.36,108.33,190.53,107.51Z" fill="#ea9f79"/><path d="M105.65,4.47a97.81,97.81,0,0,0-37.39,7.45A89.52,89.52,0,0,0,48.45,23.39a103.25,103.25,0,0,0-27.94,33A99.45,99.45,0,0,0,8.67,98.92a87.33,87.33,0,0,0,2.23,22.8,102.54,102.54,0,0,0,6.34,19A117.9,117.9,0,0,0,41.3,175.87a84.28,84.28,0,0,0,15.64,12.44,82.19,82.19,0,0,0,40.52,12.36,114.56,114.56,0,0,0,44.25-7.45,98.64,98.64,0,0,0,35.08-22.64c11.24-11.42,18-25.54,22.05-39.48,1.11-5.67,2.17-11.27,3.2-16.76.92-4.92,1-5.93.38-4.17s-1.49,4.32-2.69,8.49c-1,3.54-2.13,7.6-3.2,11.7l-.74,2c-1.7,4.48-3,7.63-3.88,9.9a81.37,81.37,0,0,1-16.76,26.52,94.8,94.8,0,0,1-34.41,22.42,111.59,111.59,0,0,1-43.21,7.3A74.92,74.92,0,0,1,83,196.58a82.18,82.18,0,0,1-40-22.35,115.63,115.63,0,0,1-23.32-34.56c-5.53-12.59-8.87-26.54-8.26-40.67a92.91,92.91,0,0,1,3-19.45A100.25,100.25,0,0,1,28.41,49,99.2,99.2,0,0,1,50.46,25.85,84.83,84.83,0,0,1,65.8,16.61,95.26,95.26,0,0,1,93,8.64a97,97,0,0,1,29.2.37,120.26,120.26,0,0,1,22.42,5.89,79.26,79.26,0,0,1,11.25,5.29,82.68,82.68,0,0,1,25.48,23.39,2.53,2.53,0,0,1,1.56-1.94,85.1,85.1,0,0,0-25.7-23.91,92.49,92.49,0,0,0-21.53-8.87c-4.27-1.2-8.63-2.12-13-2.9a95.92,95.92,0,0,0-17-1.49Z" fill="#ea9f79"/><path d="M102.08,0c-1.53,0-3,.06-4.55.15a96.79,96.79,0,0,0-24,4.77,137.61,137.61,0,0,0-13,5A99.89,99.89,0,0,0,44.8,18.47,103,103,0,0,0,16.42,46.7,94,94,0,0,0,5.76,68.16,108.35,108.35,0,0,0,.48,113.22a104.42,104.42,0,0,0,14.37,44A91.07,91.07,0,0,0,30,175.87a109.09,109.09,0,0,0,16.61,13A123.74,123.74,0,0,0,88,205.59a88.46,88.46,0,0,0,20.86,1.79,86.45,86.45,0,0,0,42.61-12.74A121.22,121.22,0,0,0,178,172.29a97.4,97.4,0,0,1-21.52,16.24c-2,1.45-4.06,2.85-6.19,4.17a79.37,79.37,0,0,1-13.85,6.78,86,86,0,0,1-47.9,3.65,121.51,121.51,0,0,1-40.45-16.68c-12.14-7.79-23.09-18-30.76-30.69A98.51,98.51,0,0,1,8.59,137,103.49,103.49,0,0,1,9,69.2a88.27,88.27,0,0,1,8-17,100.46,100.46,0,0,1,19.15-22.8A101.81,101.81,0,0,1,57,15.2c.44-.25.9-.43,1.34-.67a94.43,94.43,0,0,1,9.09-4.47V10a100.39,100.39,0,0,1,38.21-7.6A98.15,98.15,0,0,1,123,4q5.4,1,10.73,2.31a.69.69,0,0,1,.07-.15A91.51,91.51,0,0,0,102.08,0Z" fill="#ea9f79"/><path d="M102,135.06c0,.08-.32.42-1,1s-1.65,1.44-2.88,2.54-2.68,2.48-4.26,4.13l-.37.39a49.21,49.21,0,0,0-4.48,5.4,36.31,36.31,0,0,0-2.1,3.33,13.49,13.49,0,0,0-1.78,4.08,8,8,0,0,0-.18,1.4,2.27,2.27,0,0,0,.66,1.8,1.86,1.86,0,0,0,1.66.32h0A8.58,8.58,0,0,0,91,156.92h0l.66-.68a30.21,30.21,0,0,0,3.67-5.06c.88-1.46,1.69-3,2.47-4.64-.07.17-.09.19,0,.05l.15-.39h0c.17-.45.33-.91.47-1.38a36.09,36.09,0,0,0,1-3.86,22,22,0,0,0,.47-3.21c0-.3,0-.45,0-.29s.13.21.66.2h0a4.19,4.19,0,0,0,1.6-1.64c.1-.23.08-.12-.09.27s-.26.69-.39,1.09l-.22.63c-.65,1.89-1.28,3.76-2,5.64a54.39,54.39,0,0,1-3.83,7.81,33.79,33.79,0,0,1-4.34,5.89,18.18,18.18,0,0,1-1.4,1.37,7,7,0,0,1-2.53,1.37,2.39,2.39,0,0,1-2.18-.49,3,3,0,0,1-.88-2.37,13.39,13.39,0,0,1,1.91-6l.49-1a65.44,65.44,0,0,1,5.49-8.56s0,0,0,0h0a91.19,91.19,0,0,1,6.1-7.44c.26-.29,2.37-2.56,2.06-4.12-.65-3.32-2.3-10.5-1.83-11,.69-.68,3.34,11.46,3.86,11,1-.91,2.92-7,3-7s-2.19,8.14-2.93,9c-.36.44-.14-1.06-.66-.42s-1.11,1.36-1.77,2.19c-1.47,1.86-3.23,4.18-5.13,6.95-.48.7-1,1.42-1.45,2.17-1.13,1.72-2.32,3.61-3.46,5.67-.69,1.26-1.36,2.59-2,4s-1.54,3.36-1.26,4.89h0c.1.23.17.39.21.27l0-.09a.21.21,0,0,1,.15-.34c.92-.38,1.58-1.4,2.64-2.43a36,36,0,0,0,3.83-5.58h0q1.16-2,2.18-4.23c.82-1.8,1.61-3.73,2.43-5.88.09-.24.19-.49.3-.76.2-.52.42-1.07.66-1.67a20.49,20.49,0,0,1,1.21-2.52,5.89,5.89,0,0,1,1.84-2.1l-.11-1c.64-.12,13.78,1,13.75,1.29.22.55-12.46,1.08-12.49,1.43a23.48,23.48,0,0,1-.33,3.95,43.78,43.78,0,0,1-.89,4.3c-.14.52-.29,1-.46,1.58h0l-.17.54s-.06.2-.2.55a54.64,54.64,0,0,1-2.7,5.55c-.47.85-1,1.69-1.52,2.51a31.77,31.77,0,0,1-2,2.72,28,28,0,0,1-2.93,3.15,9.27,9.27,0,0,1-4.81,2.74,2.91,2.91,0,0,1-2.33-.39,8.48,8.48,0,0,1-1-.63c-1.09-1.5-1.45-2.79-1.16-3.59a13.51,13.51,0,0,1,2.57-6.27c.43-.68.87-1.33,1.33-2a46.74,46.74,0,0,1,5.83-6.57h0A63.89,63.89,0,0,1,97.57,138c1.39-1.07,2.49-1.83,3.23-2.3s1.15-.68,1.18-.6h0Z" fill="#ea9f79"/><path d="M103.63,63.13c-3.83,17.33-3.91,35.5-2.48,51.59.26-1.24.46-2.48.74-3.72a106.94,106.94,0,0,1,1.49-24.06,94.32,94.32,0,0,1,4.47-23.68c-.21,0-.42,0-.62,0-.42.83-.87,1.64-1.24,2.48a2.09,2.09,0,0,0-1.12-2.48c-.41,0-.83-.1-1.24-.13Zm-9.3.37c-.79.08-1.57.18-2.36.25-.2,14.16.39,31.79,1.86,43.4-.15-2.57-.19-5.22-.24-7.81,0-.12,0-.25,0-.37-.88-13.64-.7-29,.74-35.47Zm21.82,1a2.17,2.17,0,0,0-.62.86c-3.58,8.37-7.8,16.6-9.67,25.8a44.28,44.28,0,0,0-.12,4.46A228.53,228.53,0,0,1,116.15,64.5ZM85,64.74c-.13,0-.25.1-.37.13.11,2.64.2,5.23.37,7.81,0-2.62,0-5.28,0-7.94Zm35.09.62c-2.69,5.86-5.26,12.22-7.56,18.73,2.46-5.45,5.38-10.85,7.69-16.25a2.69,2.69,0,0,0-.13-2.48Zm-39.06.87a166.91,166.91,0,0,0,1.49,24.06c.64,2.07,1.33,4,2,5.83a238.4,238.4,0,0,1-3.47-29.89ZM73.87,68c-1,.36-2.07.71-3.1,1.11.09.46.27,1,.37,1.49,2.93,7.12,6,14.45,9.18,21.7-.57-1.79-1.17-3.86-1.74-5.83,0-.07,0-.17,0-.24-.89-3.13-1.76-6.31-2.6-9.68-.72-2.88-1.47-5.67-2.11-8.55ZM139,71.19c-8.06,7-21.09,19.34-27.53,31.25,1.18-2.85,2.41-5.66,3.72-8.43A102,102,0,0,0,108,108.76c5.7-7.07,12.77-12.89,18.6-19.09-1,.87-2.09,1.69-3.1,2.6a55.41,55.41,0,0,0-5.08,5.33,127.75,127.75,0,0,1,24-24.55c-1.17-.61-2.26-1.29-3.47-1.86Zm-74.4.75-.74.37c.31.78.57,1.59.87,2.35C66,78,70.19,84.29,73.87,89.17c-3.31-6.08-6.51-12-9.3-17.23Zm61,.49A159.82,159.82,0,0,0,116,87.19a64.47,64.47,0,0,1,4.84-6.7c1.44-1.7,3.07-3.23,4.58-4.83.19-.28.31-.6.5-.87a1.94,1.94,0,0,0-.37-2.36ZM98.3,75.66c0,.16-.08.33-.13.49-.06.46-.18.9-.24,1.37-2.3,17-3,34.13-1.62,43.39.29.15.58.35.87.5a107.72,107.72,0,0,1,.62-21.57,178.51,178.51,0,0,1,.5-24.18ZM145,76c-4.32,3-8.82,6-13.14,9.3,1,.75,1.63,2.84.74,4-.07.08-.17.16-.24.24,2-1.32,4.13-2.64,6.32-4C141,82.52,143.05,79.32,145,76ZM53.41,78.51c8.41,9.73,16,19.75,24.18,26.41-4.17-5.69,8.9,5.6,5.43,4C70.56,98.18,63.47,87,55.32,76.91a13.36,13.36,0,0,1-1.91,1.6Zm95.73-1.61c-.5.76-1.09,1.72-1.49,2.35s-.75,1.06-1.12,1.61c1.49-.93,3-1.9,4.34-2.85-.56-.38-1.15-.75-1.73-1.11ZM154,83.47c-.71.51-1.31.8-2.23,1.49-.82,1.15-1.73,2.23-2.6,3.34,1.73-1.6,3.39-3.2,4.83-4.83Zm-110.48,3c4.72,13.74,15.42,22.57,28.27,29.14a187.19,187.19,0,0,0,19.72,8.31c.32.78,8.54,7,8.87,7.76-.7-2.09-9.21-9.62-9.86-11.73-.67-.32-1.32-.66-2-1,.66.73,1.3,1.51,2,2.23.09.25.15.5.24.75-1.53-.62-3.06-1.22-4.58-1.86-.05-.12-.08-.25-.13-.38a12.52,12.52,0,0,0-1-2.48c-1.53-.78-3.09-1.53-4.59-2.35a9.68,9.68,0,0,1,1.61,3c0,.28-.07.39-.24.38Q77.49,116.26,73,114c-13.94-6-22.51-15.35-28-28.73a19.1,19.1,0,0,0-1.52,1.2Zm25.05.75c.82,1.59,1.63,3.2,2.48,4.83,6.1,6.28,13.09,16.55,14.26,22.7,0,.15.08.34.12.49,1.45.8,2.88,1.46,4.34,2.23-.09-.3-.16-.56-.25-.87A123.69,123.69,0,0,1,78,96.74c-.21-.1-.39,0-.62-.25a107.68,107.68,0,0,1-8.8-9.3Zm95.35,1.73a2,2,0,0,0-.74.62c-3.65,4.77-10,9.26-17.36,13.77,1.07-.48,2.15-1.06,3.22-1.49a163.6,163.6,0,0,0,16.12-11.53c-.4-.47-.81-.93-1.24-1.37Zm-14.75,5c-5.18,4.21-11,8.14-16.62,12.28-7.86,5.77-24.6,17.93-30.76,24.53,5.4-3.67,18-13,26.05-17.83a5.75,5.75,0,0,1,.49-.5c.33-.2.67-.43,1-.62.12-.07.24-.06.37-.12.64-.38,1.33-.75,2-1.12a135.16,135.16,0,0,0,17.49-16.62Zm-14,2.36A142.07,142.07,0,0,1,124,108c2.69-2,5.39-4,8.05-6,1.27-.93,2.49-1.81,3.72-2.73.07-.07.08-.17.13-.25a2.17,2.17,0,0,0-.75-2.85ZM62.34,98.47a58.05,58.05,0,0,0,5,4.84,56,56,0,0,1,7.31,5.45c2.24,1.46,4.54,2.83,6.7,4.1.17,0,.28-.15.25-.5s-.18-.51-.25-.74C76.4,106.69,64.16,99.35,64.16,96.9a8,8,0,0,0-1.82,1.57Zm84.69,13c3.16.15,6.1.28,9.3.37a84.77,84.77,0,0,1,18.35-2.35,2,2,0,0,0,2-2c0-1,.11-.12-.94-.11-3.37,0-16.67,1.07-20.32,1.74,3.36-1.42,15.48-5.53,18.78-7.21-.67-1-2-3.1-2-3.1l-5.7,3.35c-4.56,2.65-9.19,5.22-13.52,7.19-1.13.35-2.22.74-3.41,1.12C148.67,110.78,147.86,111.19,147,111.49Zm-40.8-7.81c-.19.7-.31,1.41-.49,2.11a3,3,0,0,0,.37.49,25.66,25.66,0,0,1,.12-2.6Zm-17-20.42c.58,4.48,3.87,29.74,4.71,33.07,0-.28-.1-.4-.13-.75C93,112.7,88.63,88.31,88,83.94ZM146.16,107c-3.22,1.19-6.49,2.47-9.67,4,.71,0,1.62.09,2.35.12,2.47-1.36,4.9-2.74,7.32-4.09Zm-32,.49a83,83,0,0,0-6.57,7.07c-.5,1.06-.92,2.15-1.37,3.22q1.81-1.4,3.6-2.85s0-.09,0-.12a78.73,78.73,0,0,1,4.34-7.32Zm2.6,1.62q-3.18,2.43-6.07,5.08C112.75,112.54,114.77,110.91,116.77,109.14Zm13.52,5A115.36,115.36,0,0,0,111,126.87c.19,0,.42.07.62.12,6-4.38,14.55-8.84,21.69-12.77-.92,0-1.87-.12-2.72-.12Zm8.8.37c-2.18.89-4.34,1.78-6.45,2.72-.13.06-.23.07-.37.13-.34.15-.65.34-1,.49-.19.11-.46.27-.62.38-7.32,3.35-24.2,9.75-29.39,12.41,1.16.29,13.29-2.94,14.51-2.74a133.65,133.65,0,0,1,17.48-8.68,2.08,2.08,0,0,1,.25,0c13.34,0,35.39,3.2,49.85,1-.44-1.23-1-2.39-1.49-3.6-10.5,1.66-28.82.43-42,.13,1.69-.61,3.37-1.19,5.08-1.74-2-.17-4-.35-5.83-.49Zm-32.61,1.36a20.16,20.16,0,0,0-1.86,3.1c0,.1-.09.13-.12.25.42-.32.82-.67,1.24-1,.23-.79.49-1.57.74-2.36Zm-12,2.36c.2.65.3,1.4.5,2a1.42,1.42,0,0,0,.25.12c-.08-.67-.18-1.3-.25-2h-.12c-.19,0-.26-.09-.38-.12Zm12.9,3.59c-1.27.88-2.54,1.69-3.84,2.61.4.2.7.41,1.11.62.52-.58,1.08-1.16,1.61-1.74,0,0,.1-.08.13-.12s0-.09,0-.13a14.5,14.5,0,0,1,1-1.24ZM94.58,122.9c.38.94,4.78,5.45,5.18,6.33-.08-.56-5.79-8.71-5.87-9.27-.34-.37,1,3.32.69,2.94Zm8.43,3.22c0,.16-.1.34-.12.5h.24c.11-.12.27-.25.38-.37-.16-.07-.35,0-.5-.13Zm81.59,1.7c-10-2.6-28.42,1.86-42.65,3.1-18.82,1.63-36.39,1.08-33.86,2,20.54,2,57.07-2.17,78.12-2.48Z" fill="#ea9f79"/><path d="M104.75,72.06c-.17,0-.33.12-.5.12-.3.71-.72,1.41-1,2.11a1.69,1.69,0,0,0-1-2c-.35,0-.65-.14-1-.13-2.27,14.44-1.48,29.39.5,42.54.15-1,.33-2.07.5-3.1a87.16,87.16,0,0,1,0-19.84,77.64,77.64,0,0,1,2.48-19.72Zm6.82.62a1.74,1.74,0,0,0-.5.74c-2.52,7.06-5.5,14-6.57,21.7a35.47,35.47,0,0,0,.12,3.72,186.94,186.94,0,0,1,6.95-26.16Zm-18,.37c-.65.11-1.22.16-1.86.25.54,11.64,1.92,26.12,3.72,35.59-.26-2.11-.45-4.32-.62-6.45a2.08,2.08,0,0,1,0-.25c-1.4-11.09-2.08-23.74-1.24-29.14Zm21.32.13c-1.92,4.95-3.77,10.4-5.33,15.87,1.75-4.61,4-9.22,5.58-13.77a2.34,2.34,0,0,0-.25-2.1ZM85.77,74.54c.23,2.17.35,4.33.62,6.45-.17-2.11-.27-4.3-.37-6.45-.1,0-.14,0-.25,0Zm-3,1.36a137.3,137.3,0,0,0,2.48,19.72c.63,1.67,1.35,3.28,2,4.71A194.43,194.43,0,0,1,82.8,75.9ZM130.66,77c-6.27,6.13-16.39,17-21.08,27.15.83-2.4,1.79-4.84,2.73-7.19a85.57,85.57,0,0,0-5.21,12.53c4.33-6.1,9.78-11.23,14.26-16.62-.81.77-1.57,1.44-2.35,2.23a46.56,46.56,0,0,0-4,4.72,105.92,105.92,0,0,1,18.6-21.46C132.64,77.94,131.68,77.42,130.66,77ZM77,77.64c-.84.35-1.65.73-2.48,1.12.1.36.27.85.37,1.24,2.76,5.7,5.7,11.55,8.68,17.36-.55-1.45-1.17-3.13-1.73-4.72,0-.06,0-.18,0-.24-.9-2.53-1.75-5.09-2.61-7.82-.74-2.33-1.56-4.6-2.23-6.94Zm42.78,1.12a130.79,130.79,0,0,0-7.07,12.64,54.62,54.62,0,0,1,3.6-5.82c1.1-1.48,2.3-2.83,3.47-4.22.14-.24.23-.51.37-.74a1.48,1.48,0,0,0-.37-1.86Zm16.12,2c-3.4,2.69-6.91,5.42-10.29,8.31.86.56,1.53,2.25.86,3.22,1.54-1.12,3.08-2.21,4.72-3.35,1.71-2.62,3.23-5.37,4.71-8.18Zm3.47.5-1.12,2c-.27.48-.59.89-.86,1.36,1.17-.84,2.39-1.63,3.47-2.48-.48-.29-1-.59-1.49-.86Zm-69.81.12c-.2.11-.3.25-.49.37.29.62.46,1.37.74,2,1.2,2.64,5,7.58,8.31,11.4-3-4.83-6-9.64-8.56-13.76Zm27.9,1.86c0,.38-.1.73-.12,1.12-1,14.06.63,35,2.22,42.57.24.11.49.26.74.37-.75-4.56-2.33-17.72-2-24.59a150.33,150.33,0,0,1-.87-19.47Zm-34.1,2.11c-.88.63-1.75,1.44-2.6,2.11,6.55,7.62,12.12,14.91,21.2,20.46-3.72-4.47-9.23-9.06-12.15-10.17-3.11-9.44,7.14,3.64,9.61,6.32-1.64-2.82-12.94-16.1-16.06-18.6Zm80.35,1.11c-.56.46-1.13.64-1.86,1.24-.61,1-1.32,2-2,3C141.18,89.25,142.57,87.86,143.68,86.44Zm8.43,4a1.78,1.78,0,0,0-.62.5c-2.76,4.1-7.78,8.07-13.64,12.15.86-.44,1.75-1,2.61-1.36A136.23,136.23,0,0,0,153.1,91.4C152.75,91,152.48,90.75,152.11,90.41ZM53,94.38c4.57,11.05,13.79,17.81,24.67,22.57a157,157,0,0,0,16.62,5.82c.26.55.47,1.07.74,1.62-.64-1.6-1.12-3.23-1.73-4.84-.57-.23-1.18-.51-1.74-.74.58.57,1.14,1.18,1.74,1.73.09.2.16.43.25.62-1.3-.43-2.57-.79-3.85-1.24,0-.09-.08-.27-.12-.37a11.06,11.06,0,0,0-1-2c-1.3-.57-2.57-1.14-3.85-1.74a8.24,8.24,0,0,1,1.49,2.36.29.29,0,0,1-.25.37C75.62,116,59.34,104.3,54.77,93c-.75.19-1.14.81-1.73,1.4Zm20.58-.62c.76,1.27,1.46,2.55,2.23,3.84,5.34,4.85,11.63,13,12.9,18l.12.37c1.23.59,2.49,1.06,3.72,1.62-.09-.25-.16-.5-.24-.75a101.47,101.47,0,0,1-10.54-15.74c-.18-.07-.3,0-.5-.13a88.07,88.07,0,0,1-7.69-7.19Zm66.59,1.49c-4,3.71-8.6,7.22-13,10.91-6.17,5.14-14.74,11.5-19.47,17.23,4.26-3.28,9.48-7.13,15.87-11.53.12-.12.23-.37.37-.49s.61-.32.87-.5c.1-.06.15-.07.25-.12.51-.34,1.1-.65,1.61-1a111.52,111.52,0,0,0,13.52-14.51Zm-11.41,2.6A114.84,114.84,0,0,1,120.25,108c2.11-1.81,4.23-3.47,6.32-5.21,1-.83,1.88-1.66,2.85-2.48.05-.06.09-.06.12-.12a1.84,1.84,0,0,0-.74-2.36Zm10.54,11.9c2.6,0,5,0,7.69-.12a69.53,69.53,0,0,1,14.88-2.85,1.68,1.68,0,1,0-.13-3.35,50,50,0,0,0-8.68,1.49c2.7-1.34,5.43-2.79,8.06-4.34-.6-.81-1.1-1.7-1.73-2.48l-4.59,3.1c-3.61,2.41-7.2,4.73-10.66,6.57-.91.34-1.83.75-2.79,1.12C140.65,109.16,140,109.47,139.34,109.75ZM70,102.32a1.36,1.36,0,0,0-1,1A49.14,49.14,0,0,0,73.37,107a45.84,45.84,0,0,1,6.33,4.09c1.91,1.09,3.86,2.17,5.7,3.1.14,0,.17-.21.13-.5s-.18-.3-.25-.49c-4.35-4.8-10.7-9.76-14.39-10.79a1.82,1.82,0,0,0-.86-.12Zm35.34,3.1c-.12.58-.14,1.15-.25,1.73a2.59,2.59,0,0,0,.37.37,18.14,18.14,0,0,1-.12-2.11Zm33,.74c-2.59,1.14-5.15,2.33-7.69,3.72h2C134.6,108.64,136.43,107.39,138.35,106.16Zm-26.16,2a68.11,68.11,0,0,0-5.09,6.2c-.35.9-.68,1.82-1,2.73.94-.83,1.92-1.75,2.85-2.6,0,0,0-.1,0-.13a63.89,63.89,0,0,1,3.23-6.2Zm2.1,1.24c-1.66,1.45-3.21,2.92-4.71,4.47C111.19,112.36,112.73,110.94,114.29,109.38Zm53.94,2.73c-8.54,1.89-23.72,1.81-34.59,2.23,1.35-.58,2.71-1.07,4.09-1.61-1.64,0-3.18-.1-4.71-.12-1.75.84-3.53,1.72-5.21,2.6l-.25.12c-.28.15-.59.23-.87.38a4.83,4.83,0,0,0-.49.37c-5.85,3.13-10.62,5.86-14.76,8.31,1,.17,2.09.27,3.1.37a110.25,110.25,0,0,1,13.89-7.94s.2-.12.25-.12c11-.67,29.15.93,40.92-1.61-.43-1-.9-2-1.37-3Zm-42.53.62a95.25,95.25,0,0,0-15.25,11.53c.16,0,.33,0,.5,0,4.69-3.9,11.56-7.94,17.23-11.53-.76,0-1.53,0-2.23,0Zm-19.47,2.6a17.3,17.3,0,0,0-1.36,2.73c.28-.25.59-.49.87-.74.15-.66.33-1.33.49-2Zm-9.79,2.61c.19.53.3,1.15.49,1.61.06,0,.19,0,.25,0-.1-.55-.15-1.06-.25-1.61h-.12a.66.66,0,0,1-.37,0Zm10.79,2.23h0c-1,.79-2,1.54-3,2.36.34.14.52.34.87.49.4-.5.83-1,1.3-1.61A10.66,10.66,0,0,1,107.23,120.17Zm64.35,0c-1.31.12-2.72.32-4.09.5.08.38.16.74.25,1.11-14.86,1.2-41.06,6.93-57.6,7.11.43.25-8.78,2.3-8.32,2.82,17.36-.33,54.87-7.11,70.63-8.32-.31-1.06-.52-2.18-.87-3.22Zm-74.77,1.61c.36.75.74,1.53,1.12,2.23-.1-.45,0-.9-.13-1.36-.3-.29-.7-.57-1-.87Z" fill="#ea9f79"/><path d="M289.3,62.9l-6.72,1.17V143.4h6.72V116.62a12.82,12.82,0,0,1,5.67-9.94,19.16,19.16,0,0,1,10.94-3.94,10.64,10.64,0,0,1,8.17,3.05c2,2.08,3,5.51,3.05,10.28V143.4h6.73V115.68c.06-5.41-1.15-9.88-3.73-13.44s-6.88-5.43-12.89-5.56a22,22,0,0,0-10.5,2.89,21.35,21.35,0,0,0-7.44,6.61V62.9ZM489.09,63l-6.72,1.17v71.28c0,3.08.64,5.36,1.94,6.78a7.12,7.12,0,0,0,5.56,2.11,6.46,6.46,0,0,0,5-1.89v-3.39a6.2,6.2,0,0,1-2.89.67,2.48,2.48,0,0,1-2.17-1,5.15,5.15,0,0,1-.72-3Zm135,.28-6.78,1.17v40.28a21.21,21.21,0,0,0-8.17-6.23,24.19,24.19,0,0,0-9.61-1.83,20.58,20.58,0,0,0-15.33,6.83q-6.09,6.64-6.33,17.34.23,10.61,6.33,17.33a20.51,20.51,0,0,0,15.33,6.95,23.92,23.92,0,0,0,9.56-1.89,21,21,0,0,0,8.22-6.45c.4,5,2.94,7.56,7.56,7.56a6.46,6.46,0,0,0,5-1.89v-3.39a6.17,6.17,0,0,1-2.89.67,2.56,2.56,0,0,1-2.22-1,5.19,5.19,0,0,1-.67-3V63.29ZM353.86,74.73a4.75,4.75,0,0,0-3.28,1.39,4.61,4.61,0,0,0-1.33,3.28,4.45,4.45,0,0,0,1.33,3.22A4.66,4.66,0,0,0,353.86,84a4.75,4.75,0,0,0,4.61-4.61,4.71,4.71,0,0,0-1.39-3.28A4.61,4.61,0,0,0,353.86,74.73Zm-107,9.67-6.72,1.33V98.4h-7v5.28h7v26c0,5,.68,8.74,2.22,11.17s4.18,3.62,7.84,3.61a14.65,14.65,0,0,0,5.88-1.11,13.33,13.33,0,0,0,4.12-2.83L259.13,137a14.12,14.12,0,0,1-2.94,1.44,12.6,12.6,0,0,1-4.17.67,4.23,4.23,0,0,1-4.06-2.28,13.2,13.2,0,0,1-1.11-6.16V103.68h11.5V98.4h-11.5v-14Zm199.79,0-6.72,1.33V98.4h-7v5.28h7v26c-.05,5,.74,8.74,2.28,11.17s4.12,3.62,7.77,3.61a14.7,14.7,0,0,0,5.89-1.11,13.45,13.45,0,0,0,4.12-2.83L458.92,137A14.12,14.12,0,0,1,456,138.4a12.6,12.6,0,0,1-4.17.67,4.23,4.23,0,0,1-4.06-2.28,13.2,13.2,0,0,1-1.11-6.16V103.68h11.5V98.4h-11.5v-14ZM674.1,96.57c-7.15.18-13,2.52-17.61,7.11a24.47,24.47,0,0,0,0,34.39c4.57,4.62,10.46,7,17.61,7.17,7.27-.19,13.16-2.55,17.72-7.17a24.35,24.35,0,0,0,0-34.39C687.26,99.09,681.37,96.75,674.1,96.57Zm-275.85.11c-5.34.1-9.33,1.36-11.95,3.83a12.16,12.16,0,0,0-3.88,9.23,11.15,11.15,0,0,0,3.33,7.94c2.23,2.35,5.67,4.16,10.28,5.39a28.76,28.76,0,0,1,8.72,3.39,5.59,5.59,0,0,1,2.72,4.94c-.05,2.82-1,4.89-2.83,6.17a12.83,12.83,0,0,1-7.45,1.89,26.31,26.31,0,0,1-8.55-1.5,37.68,37.68,0,0,1-6.5-3l-1.34,5.56a34.27,34.27,0,0,0,5.73,2.66,30.38,30.38,0,0,0,10.39,1.95c5.15,0,9.27-1.33,12.33-3.89s4.65-6.19,4.72-10.78a10.68,10.68,0,0,0-4-8.17c-2.62-2.32-6.41-4.06-11.44-5.28a21.67,21.67,0,0,1-7.34-3.05,5.74,5.74,0,0,1-2.44-4.89,5.94,5.94,0,0,1,2.22-4.95c1.51-1.23,3.94-1.85,7.28-1.88a21.65,21.65,0,0,1,6.28,1,29,29,0,0,1,5.72,2.38l1.33-5.39a39,39,0,0,0-4.94-2,26.77,26.77,0,0,0-8.39-1.5Zm138.34,0a20.93,20.93,0,0,0-14.94,6.39q-6.36,6.27-6.67,17.39c.11,7.14,2.22,13,6.33,17.5s9.51,6.91,16.23,7.06a31.47,31.47,0,0,0,10.61-1.84,24,24,0,0,0,8-4.67l-2.22-4.11a27.17,27.17,0,0,1-6.39,3.45,20.82,20.82,0,0,1-7.23,1.44c-7.34-.26-12.37-2.44-15.11-6.61A20.55,20.55,0,0,1,521.81,119h33.28c.14-.8.29-1.57.39-2.39a19.52,19.52,0,0,0,.17-2.33,17,17,0,0,0-5.45-12.62C546.71,98.41,542.18,96.78,536.59,96.68Zm296.8,0a22.25,22.25,0,0,0-10.84,3,21.67,21.67,0,0,0-7.5,6.89l-.83-9.11-5.56,1.22V143.4h6.78V116.62a12.85,12.85,0,0,1,5.67-9.94,19.16,19.16,0,0,1,10.94-3.94,10.49,10.49,0,0,1,8.11,3.05c2,2.08,3.07,5.51,3.12,10.28V143.4H850V115.68c.06-5.41-1.21-9.88-3.78-13.44s-6.83-5.43-12.83-5.56Zm-476.09.5-6.78,1.22v45h6.78ZM716.71,98.4,734,143.79h5l13.34-35.11,13.11,35.11h5L787.72,98.4h-6.45L768.33,134,754.83,98.4h-5L736.77,134,723.43,98.4Zm-180,3.67c4.07.07,7.19,1.23,9.39,3.44a10.51,10.51,0,0,1,2.89,8.61H522.2c.94-4.08,2.77-7.14,5.45-9.11A14.9,14.9,0,0,1,536.76,102.07Zm64,.28a19.19,19.19,0,0,1,9.67,2.66,18.29,18.29,0,0,1,6.83,7v17.78a19.52,19.52,0,0,1-6.89,7,18.94,18.94,0,0,1-9.61,2.72,15.45,15.45,0,0,1-11.39-4.89c-3.1-3.2-4.7-7.75-4.83-13.72.13-6,1.73-10.64,4.83-13.78a15.48,15.48,0,0,1,11.39-4.72Zm73.34,0q8.05.14,13,5.16c3.29,3.36,5,7.83,5.06,13.34-.1,5.57-1.77,10-5.06,13.39s-7.63,5.13-13,5.22a17.65,17.65,0,0,1-12.89-5.22c-3.28-3.38-5-7.82-5.06-13.39.1-5.51,1.78-10,5.06-13.34S668.79,102.44,674.1,102.35Z" fill="#254853"/><path d="M282.19,172.41a11.15,11.15,0,0,0-6.17,1.66,10.36,10.36,0,0,0-3.67,4.22,12.65,12.65,0,0,0,0,10.84,9.79,9.79,0,0,0,3.61,4.11,11.6,11.6,0,0,0,6.23,1.61,11.34,11.34,0,0,0,6.22-1.61,10.15,10.15,0,0,0,3.67-4.17,12.44,12.44,0,0,0,1.16-5.33,12.32,12.32,0,0,0-1.16-5.45,10.36,10.36,0,0,0-3.67-4.22,11.43,11.43,0,0,0-6.22-1.66Zm236.4,0a11.15,11.15,0,0,0-6.17,1.66,10.26,10.26,0,0,0-3.66,4.22,12.49,12.49,0,0,0-1.23,5.45,12.33,12.33,0,0,0,1.17,5.39,9.87,9.87,0,0,0,3.67,4.11,11.54,11.54,0,0,0,6.22,1.61,11.34,11.34,0,0,0,6.22-1.61,9.94,9.94,0,0,0,3.61-4.17,12.66,12.66,0,0,0,1.23-5.33,12.24,12.24,0,0,0-1.23-5.45,10.26,10.26,0,0,0-3.66-4.22,11.28,11.28,0,0,0-6.17-1.66Zm-157.9.38v13.39l-10.55-13.33H346.8v21.5h4.06v-14.5l11.33,14.5h2.56V172.79Zm199.79,0v13.39l-10.56-13.33h-3.27v21.5h4.05v-14.5L562,194.35h2.5V172.79Zm-320.35.06v21.5h4.06v-7.94H255v-3.78H244.19v-5.84h11.38v-3.94Zm69.84,0v12.33c.07,3.25,1,5.69,2.83,7.28a9.81,9.81,0,0,0,6.72,2.39,9.46,9.46,0,0,0,6.73-2.44c1.7-1.62,2.56-4,2.61-7.23V172.85H324.8v12.33a6.58,6.58,0,0,1-1.33,4.39,5,5,0,0,1-3.89,1.56,5.54,5.54,0,0,1-4.06-1.5,6.22,6.22,0,0,1-1.55-4.45V172.85Zm71.89,0v21.5h8.5a11.31,11.31,0,0,0,6.17-1.61,9.45,9.45,0,0,0,3.5-4.06,12.16,12.16,0,0,0-.11-10.39,9.26,9.26,0,0,0-3.5-3.88,11.33,11.33,0,0,0-6.06-1.56h-8.5Zm43.11,0-9.66,21.5h4.39l1.83-4h11.28l1.83,4H439l-9.67-21.5Zm28,0v3.67h6.84v17.83h4.05V176.52h6.84v-3.67H453Zm33.95,0v21.5h4v-21.5Zm-204.73,3.22c2.52.1,4.38.94,5.5,2.5a8.43,8.43,0,0,1,1.55,5.23,8.23,8.23,0,0,1-1.61,5c-1.09,1.48-2.93,2.24-5.44,2.33-2.51-.09-4.3-.86-5.39-2.33a8.79,8.79,0,0,1-.06-10.23c1.13-1.57,2.93-2.4,5.45-2.5Zm236.4,0c2.52.1,4.33.94,5.44,2.5a8.77,8.77,0,0,1,0,10.23c-1.09,1.48-2.88,2.24-5.39,2.33-2.51-.09-4.29-.86-5.39-2.33a8.39,8.39,0,0,1-1.67-5,8.26,8.26,0,0,1,1.56-5.23c1.13-1.57,3-2.4,5.5-2.5Zm-132.67.61h4.44a6.39,6.39,0,0,1,5.06,2.11,7.38,7.38,0,0,1,1.66,4.62,7.25,7.25,0,0,1-1.5,4.83c-1.06,1.41-2.79,2.15-5.22,2.22h-4.44V176.68Zm41.28.67,4,9.17h-8Z" fill="#254853"/></svg>