<svg xmlns="http://www.w3.org/2000/svg" viewBox="0 0 365.2 129.5"><style>.st0{fill:#fff}.st1{fill:#002f65}</style><g id="XMLID_1_"><path id="XMLID_12_" class="st0" d="M45.5 20.4l.1-.3c0-.2-.1-.5-.3-.7-.6-.7-1.7 0-2.2.3 0-.2-.1-.4-.3-.5v-.3c0-.4-.4-.6-.7-.7.5 0 1.2 0 1.4-.7v-.4l.5.1c.7.2 1.8.4 2.1-.4l.1-.3c0-.3-.2-.5-.3-.7l-.1-.1c.3-.2 1.1-.6 1.1-1.4 0-.2 0-.4-.2-.7-.4-.8-1.2-.6-1.7-.5h-.2v-.3c0-.2 0-.4-.2-.6-.1-.1-.3-.2-.4-.3.2-.2.3-.5.3-.8 0-.2 0-.3-.1-.5-.1-.3-.3-.5-.5-.6-.5-.2-1.2.1-1.6.3l-.1-.2.1-.4c0-.3-.1-.5-.1-.6.3-.2.7-.6.8-1v-.2c0-.2-.1-.4-.2-.6-.6-.7-1.5-.4-1.9-.3h-.1c-.1-.3-.3-.5-.8-.7-.5-.1-1.1.4-1.5.7l-.2.1-.1-.1-.6-.4c-.6-.1-1.2.8-1.3 1-.1-.2-.2-.3-.3-.3l.1-.1c.3-.3.7-.7.8-1.2 0-.3-.1-.5-.4-.8s-.7-.5-1-.5c-.6 0-1.1.5-1.4.9l-.1-.3V5c0-.1 0-.3-.1-.4l-.2-.2c.4-.3.8-.8.8-1.3 0-.1 0-.3-.1-.4-.3-.6-.7-.7-1-.7v-.5c0-.5-.1-1-.8-1.2-.8-.2-1.4.5-1.6.9l-.1.1c-.2-.2-.5-.5-.9-.4-.2-.3-.5-.6-.9-.6-.8-.1-1.1.8-1.3 1.5l-.1.3h-.1c-.2-.1-.5-.1-.9.1-.3.2-.4.5-.4.8 0 .5.3 1.1.5 1.5l.1.2c-.4.1-.6.2-.8.4-.1.1-.1.3-.2.4l-.1-.1c.1-.5.3-2.2 0-2.7-.1-.1-.3-.2-.5-.2l-.2.1c0-.6-.1-1.5-.8-1.7-.5-.2-.8 0-.9.2-.4-.5-1.1-1.4-2-1-.4.2-.5.5-.5.9s.2.9.3 1.3v.1c-.3 0-.7.1-.9.7V3.4c-.5-.3-1.1-.6-1.8-.1-.4.2-.5.6-.5.9 0 .6.3 1.1.5 1.5-.3.1-.7.3-.7.9v.2c0 1 1.1 1.3 1.7 1.5h.1c-.1.1-.4.3-.5.3l-.2-.1c-.5-.3-1.5-1-2.4 0-.2.2-.3.4-.3.7 0 .5.4.9.6 1.2l.2.2-.1.2-.2.6v.2l-.1.1v-.3c0-.6-.1-1.4-.7-1.6-.4-.1-.6.1-.8.3-.1-.6-.3-1.7-1-1.7-.4 0-.6.4-.8.7l-.1.1-.1-.1c-.2-.3-.7-.9-1.3-.6-.5.2-.7.7-.7 1.2 0 .3.1.6.1.8v.2h-.1c-.3.1-.6.3-.7.6l-.1.3c0 .6.8 1.1 1.4 1.4-.1.1-.3.2-.4.3-.4-.2-.8-.3-1.2-.1-.5.2-.5.6-.5.9v.1c-.4-.1-1-.2-1.4.6-.1.2-.2.5-.2.6 0 .2.1.4.1.5.3.5.8.7 1.3.9-.1.1-.2.3-.2.4l.2.7c.4.5 1 .2 1.5.1.5-.2.7-.2.8-.1 0 .1-.1.3-.3.5h-.3c-.4.1-.6.4-.7.6-.4-.3-1-.8-1.6-.7-.5.1-.6.5-.6.8v.4h-.1c-.4-.1-.9-.2-1.3.1-.2.1-.4.4-.4.7v.2c0 .9.9 1.1 1.4 1.3-.1.2-.2.4-.2.6 0 .2.1.4.3.6.8.7 1.5.2 1.9-.1l.1.4v.2l-.1.1c-.3.1-.7.2-.9.6-.1.1-.1.2-.1.4 0 .1 0 .2.1.4.3.8 1.2.8 1.6.8h.1v.1c0 .2.1.6.4.9.8.7 1.8-.2 2.2-.5l.3.2c.1.2.2.3.2.4l-.1.1c-.3.3-.8.8-.8 1.4 0 .2.1.4.2.7.4.6 1.2.2 1.9-.2l.5-.2v.1c.1.3.2.8 1.1.7 1-.2 1.3-1 1.5-1.5.1-.2.1-.3.2-.4l.4.4.4-.1c.6-.4 1-1.7 1.1-2.2 1.2.6 2.3 2.3 2.5 2.7.1.3.6 1 1.2 2.1.4.6.9 1.4.9 1.6-.3 1.7-1.1 3-2.2 3.6l-.5.3c-1.1.6-2.8 1.4-3.5 2h-.3c-.7 0-1 .2-1.2.3-.4-.2-.9-.4-1.3-.4-1.2 0-1.8.6-2 1.1-.4.8-.3 1.7.1 2.2.5.6 1.1 1 2 1 .6 0 1-.2 1.2-.3.2.1.6.3 1.2.3.7 0 1.1-.2 1.3-.3.3.2.7.3 1.1.3.6 0 .9-.2 1.1-.3.2.1.6.3 1.1.3.6 0 1-.2 1.2-.3.3.2.7.3 1.1.3.6 0 .9-.2 1.1-.3.2.1.6.3 1.1.3.6 0 1-.2 1.2-.3.3.2.7.3 1.1.3.6 0 .9-.2 1.1-.3.2.1.6.3 1.1.3.9-.3 1.5-.1 2.3 0 .6 0 .9-.2 1.1-.3.2.1.6.3 1.1.3.7 0 1.1-.2 1.3-.3.4.2.9.4 1.4.4 1 0 1.7-.4 2-1.1.4-.8.3-1.7-.1-2.2-.5-.7-1.1-1-2-1-.6 0-1 .2-1.2.3-.2-.1-.5-.2-.9-.3-.4-.7-.9-1-2.8-1.8l-.3-.1c-2-.9-2.5-1.7-2.9-2.3l-.1-.1c-.3-.6-1-4.2.4-6.4.8-1.3 1.8-1.8 2.4-2.1.1.6.3 1.5.6 1.8l.5.3.3-.1.1.2c.2.6.6 1.5 1.3 1.5.5.1.8-.2.9-.4.3.3.7.7 1.2.7s.7-.3.9-.5c.3.1 1.1.4 1.5-.3.1-.2.2-.4.2-.5 0-.4-.4-.7-.5-.8.1-.1.3-.3.3-.5.2 0 .4 0 .6-.2.3-.2.3-.5.4-.6.3 0 .9.1 1.2-.5.1-.1.1-.3.1-.4.3-.1.4-.4.5-.5.4.2 1 .4 1.4.2.5-.2.5-.7.5-1 .4.1.9.2 1.4-.1.2-.2.4-.4.4-.8v-.2c-.1-1.8-1.3-2-1.8-2.1m-2.9-1c-.3.2-.3.2 0 0M43.2 23.6l.2.1-.2-.1m2.2-.8z"/><path id="XMLID_15_" class="st0" d="M53.7 99.8l-.8-1.7-1.1-2.2c-.8-1.6-2.1-2.6-3.7-2.7 3.5-6.1 6-13.6 6-22.2V44c0-.2-.1-.3-.3-.3H.5c-.2 0-.3.1-.3.3v27c0 8.6 2.5 16 6 22.2-1.6.2-2.9 1.1-3.7 2.7l-1.1 2.2-.8 1.7c-.7 1.4-1.4 4.4 1.4 8 2.3 2.9 7.2 6.1 13.1 8.4l.3.1 1.5.6c-.5.5-1.2 1-1.7 1.5l-.5.4-.3.3-.1.1c-.5.5-.8 1.2-.8 2.2v5.2c0 2.1 3 2.9 5.7 2.9H35c2.8 0 5.7-.8 5.7-2.9v-5.2c0-1.1-.3-1.7-.8-2.2l-.1-.1-.2-.4-.5-.4c-.5-.4-1.2-1-1.7-1.5l1.5-.6.3-.1c5.9-2.3 10.8-5.5 13.1-8.4 2.9-3.5 2.1-6.5 1.4-7.9m-20.3 22l.3.3H20.8l.3-.3c.7-.7 1.4-1.3 1.4-2.9v-3.7c0-3.6-3.1-5-6.7-6.7-1.2-.6-2.5-1.2-3.8-1.9-1.2-.7-2.8-1.7-4.3-3l2.8-4.1c7.5 9.7 16.4 14.9 16.5 14.9h.3c.2-.1 9-5.3 16.5-14.9l2.8 4.1c-1.5 1.3-3.1 2.3-4.3 3-1.3.7-2.6 1.3-3.8 1.9-3.6 1.6-6.7 3.1-6.7 6.6v3.7c.2 1.7.8 2.3 1.6 3"/><path id="XMLID_19_" class="st0" d="M27.1 114.5h.3c.2-.1 9-5.3 16.5-14.9l2.8 4.1c-1.5 1.3-3.1 2.3-4.3 3-1.3.7-2.6 1.3-3.8 1.9-3.6 1.6-6.7 3.1-6.7 6.6v3.7c0 1.6.6 2.2 1.4 2.9l.3.3H20.8l.3-.3c.7-.7 1.4-1.3 1.4-2.9v-3.7c0-3.6-3.1-5-6.7-6.7-1.2-.6-2.5-1.2-3.8-1.9-1.2-.7-2.8-1.7-4.3-3l2.8-4.1c7.5 9.8 16.4 14.9 16.6 15m26.8-70.8H.5c-.2 0-.3.1-.3.3v27c0 8.6 2.5 16 6 22.2-1.6.2-2.9 1.1-3.7 2.7l-1.1 2.2-.8 1.7c-.3.6-.6 1.6-.6 2.8 0 1.4.5 3.2 2.1 5.2 2.3 2.9 7.2 6.1 13.1 8.4l.3.1 1.5.6c-.5.5-1.2 1-1.7 1.5l-.5.4-.3.3-.1.1c-.5.5-.8 1.2-.8 2.2v5.2c0 2.1 3 2.9 5.7 2.9h15.8c2.8 0 5.7-.8 5.7-2.9v-5.2c0-1.1-.3-1.7-.8-2.2l-.1-.1-.3-.4-.5-.4c-.5-.4-1.2-1-1.7-1.5l1.5-.6.3-.1c5.9-2.3 10.8-5.5 13.1-8.4 1.6-2 2.1-3.8 2.1-5.2 0-1.2-.3-2.1-.6-2.8L53 98l-1.1-2.2c-.8-1.6-2.1-2.6-3.7-2.7 3.5-6.1 6-13.6 6-22.2v-27c.1-.1-.1-.2-.3-.2"/><path id="XMLID_45_" class="st0" d="M10.1 107.9l.2-.3c-.4-.3-.9-.5-1.3-.9l-.2.4.3.2c-.4.9-.9 1.8-1.3 2.8l-.3-.2-.2.4c.7.5 1.4.9 2.2 1.3.2-.3.4-.5.6-.8l-.3-.3c-.2.2-.4.4-.6.5-.2-.1-.6-.3-.8-.5 0-.2 1-2.1 1.3-2.7l.4.1m-3.4.2c.2-.3.3-.6.5-1l-.3-.2-.2.2-.6-.4.6-1.2c.2.2.6.4.7.6.1.1-.1.4-.1.6l.3.2c.1-.3.3-.6.4-1-.7-.5-1.3-1-1.9-1.5l-.2.3.3.3c-.5 1-.9 1.7-1.4 2.7l-.3-.2-.2.3c.6.6 1.2 1.1 1.9 1.6.2-.3.4-.6.6-.8l-.3-.3-.4.5c-.1 0-.7-.5-.8-.6 0-.2.4-.9.6-1.2.2.1.4.3.5.5l-.1.3.4.3m11.4 3.5c-.9-.5-1.9-.9-2.9-1.4-.2.3-.3.6-.5.9l.4.2c.1-.2.3-.4.4-.5.2 0 .5.1.7.2-.4.9-.9 1.9-1.3 2.8-.1-.1-.3-.1-.4-.2l-.2.3c.5.2 1 .4 1.5.7l.2-.3c-.1-.1-.3-.1-.4-.2.4-.9.9-1.9 1.3-2.8.2.1.5.3.6.4-.1.2-.1.4-.2.6l.4.2c.1-.3.3-.6.4-.9m-3.3-1.6l-1.2-.6-.2.3c.1.1.3.2.4.2-.4.9-1.1 3-2.1 2.4-.7-.4-.4-1 0-1.8.2-.4.5-.9.7-1.4.1.1.3.1.4.2l.2-.3c-.4-.2-.9-.5-1.4-.7l-.2.3.3.2c0 .2-.3.7-.4.9-.5 1-.9 1.7-.5 2.4.1.2.3.3.4.4.3.2.6.3.8.3 1.1.1 1.6-1.4 2.2-2.7l.3.1.3-.2m-9.3-5.6l.2.2.2-.4c-.3-.3-.6-.6-1-.9l-.2.4.3.3c-.3.4-1.5 1.6-1.6 1.7 0-.1.4-2.7.5-3l.3.4.2-.3c-.3-.4-.7-.9-1-1.3l-.2.3.2.3c-.1.3-.6 3.7-.6 4 .1.2.2.3.3.4.7-.4 2.1-1.8 2.4-2.1m34.3 7.5c0-.6.1-1.1.1-1.7.2.5.4.9.6 1.3-.2.2-.5.3-.7.4m3-.4c0 .1.1.5.1.6-.1.1-.9.6-1.1.6-.2-.3-.3-.8-.5-1.1.2-.1.8-.4.9-.4l.2.3.4-.2c-.2-.4-.3-.7-.5-1.1l-.3.2.1.3c-.1.1-.7.4-.9.5-.2-.5-.4-.9-.6-1.3.3-.1.8-.4 1-.5.1.1.3.3.4.5l.3-.2c0-.1-.4-.7-.4-.9-.7.4-1.6.8-2.3 1.2l-.3 3.9-.3.2.1.3c.4-.2.8-.4 1.2-.5l-.1-.3c-.1.1-.3.1-.4.2v-1.4c.3-.1.7-.3 1-.5.2.3.3.8.5 1.1l-.4.2.2.3c.8-.4 1.7-.8 2.5-1.2l-.3-.9c-.2 0-.3.1-.5.1m2.8-4.5l.3-.2-.2-.3c-.4.3-.8.5-1.1.8l.2.3.4-.2c.1.5.3 2.1.3 2.5v.4l-.5-.5-.9-1.1c-.1-.2-.3-.3-.4-.5.1-.1.3-.2.4-.3l-.1-.4c-.5.3-1 .5-1.4.8l.1.3.3-.2.6.6c.4.5.9.9 1.3 1.4l.6.6c.2-.1.3-.2.5-.3-.1-.9-.1-1.8-.2-2.7-.1-.1-.1-.6-.2-1m-10.7 18.8v-1.5h.6c.4.2.6.8.3 1.2-.1.3-.5.3-.9.3m1.7 1.2c-.2-.3-.4-.9-.7-1 .7-.2 1.1-1.2.4-1.7-.5-.4-1.6-.3-2.5-.3v.4h.4v3h-.4v.4h1.4v-.4h-.4v-1.2h.5c.4.2.6 1.2.9 1.5.1.1.8 0 .9 0v-.4h-.4l-.1-.3m-8.7-.2c-.1.3-.3.5-.7.5-.2 0-.4 0-.5-.1v-.3-1c.6 0 1.4.2 1.2.9m-1.2-2.5c.4 0 .7 0 .9.3.1.1.1.3.1.4-.1.5-.5.6-1 .6v-1.3m1 1.4c.6-.3 1-1.2.2-1.6-.5-.3-1.6-.2-2.3-.2v.4h.4v3h-.4v.4c.9 0 1.9.1 2.5-.2.4-.2.8-.8.4-1.4-.2-.2-.4-.3-.8-.4m-4.9.1v-1.5h.6c.4.2.6.8.3 1.2-.1.3-.5.3-.9.3m1.7 1.2c-.2-.3-.4-.9-.7-1 .7-.2 1.1-1.2.4-1.7-.5-.4-1.6-.3-2.5-.3v.4h.4v3h-.4v.4h1.4v-.4h-.4v-1.2h.5c.4.2.6 1.2.9 1.5.1.1.8 0 .9 0v-.4h-.4l-.1-.3m-5.8-.7c.2-.5.3-1 .5-1.6l.5 1.5h-1v.1zm.9-2.4h-.5c-.4 1.1-.9 2.3-1.3 3.4h-.3v.4h1.3v-.4h-.4c.1-.2.1-.4.2-.7h1.3c.1.2.2.5.2.7h-.4v.4h1.4v-.4h-.3c-.4-1.1-.8-2.3-1.2-3.4m29.5-15.6c-.8.7-1.7-.4-1.9-1.3-.1-.5-.1-.9.2-1.3l.2-.2c.2-.1.4-.2.5-.2 1 0 1.9 2.2 1 3m.3-3.1c-.5-.5-1.1-.6-2-.1l-.4.3c-.3.4-.5.8-.5 1.3 0 .2 0 .4.1.6 0 .2.2.6.3.8.5.7 1.1.9 2 .6 1.4-.4 1.5-2.5.5-3.5m-18 22.2c-1 .2-1.4-1.1-1.2-2 .1-.4.3-.9.7-1l.3-.1c.2 0 .4 0 .6.1.8.5.8 2.8-.4 3m-.2-3.5c-.2 0-.3.1-.5.1-.5.2-.8.5-1 .9-.1.2-.2.4-.2.6-.1.2-.1.6 0 .8.2.9.6 1.4 1.6 1.5 1.5.2 2.5-1.5 1.9-2.8-.3-.8-.9-1.1-1.8-1.1"/><path id="XMLID_50_" class="st0" d="M.6 64.7l53.2.1v6c0 26.7-25 42.4-26.7 43.4-1.6-1-26.6-16.3-26.6-43l.1-6.5zm36.7 22.8c-4.9-5.9-11.8-3-11.9-2.9-1.3.3-2.4.8-3.2 1.2l-.6.3-.9.1-1.5.2c-.8.2-1.8.7-3 1.4l-.9.5c-1.5.8-1.8 1.5-1.9 1.6-.3.2-.5.4-.6.7v.2c0 .2.1.5.3.7.3.9 1 .7 1.1.7l.3-.1c.4-.1.7 0 .9.5v.1c-.1.2-.4.4-.5.4l-.2.2c.2.7 1.2.5 1.7.4h.1l.4-.1c.6-.1 1.6-.1 2.1 0 .3.1.7.3 1.1.5l-.2.4-.4.1c-.7.1-1.7.1-2.1 1-.3.8-.1 1.5 0 1.7l.3.3c.2.1.5-.2.8-.4.7-.4.6-.6.6-.7 0-.3.2-.4.2-.4l.2.1c.4.2 1.5.5 2.1.2 0 .2-.2.8-.6 1-.3.1-.7.1-1 .1s-.5 0-.7.1c-.3.2-.7.8-.8 1v.2l.1.1.2.1h2.3c.6 0 1.3-.1 1.7-.4l.3-.2 1-.8 1-.9.5-.4c.1-.1.2-.3.2-.4.4.3 1.3.8 1.8 1-.2 0-.7.1-1.2.3-.6.2-.9.5-1.4 1.2l-.1.2v.1c.2.3 1 .7 1.3.8.2.1.6 0 .9-.1l.6-.1c.2 0 2.7-.1 4.3-.1l-.9.9c-.9.6-2.3 1.4-3.7 2.7-1.6 1.3-2.8 3.1-2.8 4.3 0 .2-.2.4-.2.5.1.3.3.7 1 .8 3.2.3 5-1.6 6.5-3.3l.4-.4c1.1-1.1 1.9-2.5 2.4-3.4.2-.4.4-.8.5-.8 1.5-1 3.3-3.8 3.7-6.8.4-2.4-.2-4.5-1.6-6.2m12.3-18.7h-1.2l-1.2-.7-.2-.1h-1.4c-.3 0-.5-.2-.9-.4-.5-.4-1.2-.9-2.5-.9-1.4 0-2.1.6-2.5 1-.3-.5-1-1-2.5-1-1.3 0-2 .5-2.5.9-.3.2-.6.4-.9.4h-1.5l-.2.1-1.1.7h-1.2c-.2 0-.3.1-.3.3v10.4c0 .2.1.3.3.3h8.1c.2.2.6.5 1.3.6.3.1.8 0 1.1 0 .6-.1 1-.4 1.2-.6h8.1c.2 0 .3-.1.3-.3V69.1c0-.2-.1-.3-.3-.3m-25.2-.1h-1.2l-1.1-.7-.2-.1h-1.5c-.3 0-.5-.2-.9-.4-.5-.4-1.2-.9-2.5-.9-1.4 0-2.1.6-2.5 1-.3-.5-1-1-2.5-1-1.3 0-2 .5-2.5.9-.3.2-.6.4-.9.4H7.1l-.2.1-1.1.7H4.6c-.2 0-.3.1-.3.3v10.4c0 .2.1.3.3.3h8.1c.2.2.6.5 1.3.6.3.1.8 0 1.1 0 .6-.1 1-.4 1.2-.6h8.1c.2 0 .3-.1.3-.3V69c0-.1-.1-.3-.3-.3"/><path id="XMLID_55_" class="st0" d="M37.5 87.4c-5-6-12-3-12.1-3-1.3.3-2.5.9-3.2 1.3l-.6.3-.9.1-1.5.2c-.8.2-1.8.7-3.1 1.4l-.9.5c-1.5.8-1.9 1.5-1.9 1.7-.3.2-.5.4-.6.7v.2c0 .3.1.5.3.7.3.9 1.1.9 1.1 1l.3-.1c.4-.1.6-.2.8.3v.1c-.1.2-.4.3-.5.4l-.1.3c.2.8 1.3.6 1.7.6h.1l.4-.1c.6-.1 1.6-.3 2.2-.2.3.1.7.3 1.1.5l-.3.3-.4.1c-.7.1-1.7.3-2 1.2-.3.8-.1 1.5 0 1.8l.3.4c.2.1.6-.1.9-.3.7-.4.8-.7.8-.8 0-.3.2-.4.3-.4l.2.1c.4.2 1.3.5 1.8.2 0 .2-.1.5-.5.7-.3.2-.7.2-1 .1-.3 0-.6 0-.7.1-.3.2-.8 1.1-.9 1.2v.2l.1.1.2.1h2.3c.6 0 1.4 0 1.8-.3l.3-.3 1.1-.9 1.1-.9.5-.4c.1-.1.2-.2.2-.4.4.3.9.5 1.3.7-.2 0-.5 0-1 .2-.6.2-1.1.7-1.4 1.4V98.8c.2.3 1 .7 1.3.8.2.1.6 0 .9-.1l.6-.1H32l-.9.7c-.9.6-2.2 1.5-3.7 2.8-1.6 1.3-2.8 3.3-2.8 4.5 0 .2 0 .3.1.4.1.3.3.7 1 .8 3.2.3 5.2-1.7 6.7-3.4l.4-.4c1.1-1.1 1.9-2.5 2.4-3.4.2-.4.5-.8.5-.8 1.5-1.1 3.4-3.8 3.8-6.9-.1-2.5-.6-4.6-2-6.3m-16.1 8.8c-.4.4-1.2 0-1.6-.2l-.3-.1c-.3 0-.6.3-.7.7 0 .1-.1.2-.3.3 0-.1-.1-.2-.1-.4 0-.3 0-.7-.1-.7-.1-.1-.5.6-.3 1.3l-.3.1c-.1-.1-.2-.4-.2-.8 0-.2 0-.5.2-.8.3-.7 1.1-.8 1.7-.9l.5-.1c.3-.1.4-.3.5-.4.3.2.5.4.5.5.2.4.4 1.1.5 1.5m6.1 2.8l-.6.1c-.3.1-.6.2-.7.1h-.1c.1-.2.3-.4.5-.6.5-.3 1.1-.5.9-.6s-.8 0-1.1.1c-.5.2-.7.5-.9.8-.2-.1-.3-.2-.3-.2.3-.5.7-.9 1.1-1.1.7-.3.9-.2.9-.2.3.1 2.1.4 2.5.4l.2.1c.8.4 1.8.6 2.2.6 0 .1-.1.3-.2.5-.7 0-4.1-.1-4.4 0m11.2-5.5c-.4 2.8-2.1 5.6-3.6 6.6-.1.1-.3.4-.7 1-.5.9-1.3 2.2-2.4 3.4l-.4.4c-1.6 1.7-3.3 3.6-6.3 3.3-.3 0-.5-.2-.6-.5-.3-.9.7-3 2.6-4.5 1.5-1.2 2.8-2.1 3.7-2.7l1.1-.8.2-.3v-.1c.3-.4.3-.9.3-1v-.2l-.2-.1s-1.3-.1-2.3-.6c-.8-.4-1.3-1-1.6-2-.5-1.4.2-2.3.9-3.2.5-.7 1-1.3.9-2.1l-.2-.2-.2.2v.2c0 .5-.4 1-.9 1.6-.5.7-1.2 1.5-1.2 2.6 0 .3.1.6.2 1 .2.6.5 1.1.9 1.5-.8-.2-1.9-.6-2.9-1.2h-.1c.1-.9 0-2.2-.1-2.7l-.2-.2-.2.2c.2 1.3.2 2.9-.1 3.1l-.5.4-1.1.9-1.1.9-.3.3c-.3.2-1 .2-1.5.2h-.3-.7c.1-.2.2-.5.1-.5-.1-.1-.5.3-.7.5h-.4c.2-.4.5-.8.6-.9h.4c.4 0 .8 0 1.2-.2.6-.3.7-.9.8-1.1.1-.3-.4-1.7-.6-2-.3-.4-1.4-1.2-2.2-1.4-.6-.1-1.7.1-2.3.2l-.4.1h-.2c-.3 0-.8.1-1.1-.1.2-.1.4-.2.5-.5v-.4c-.3-.9-1.1-.7-1.4-.6h-.2s-.5-.1-.7-.6l.4-.2.1-.3-.3-.1-.4.2v-.3c0-.2.2-.3.4-.4l.1-.1s.2-.7 1.8-1.5l.9-.5c1.3-.7 2.2-1.2 3-1.4l2.4-.3.7-.3c.7-.4 1.8-1 3.1-1.2.1 0 6.9-2.9 11.6 2.8 1.4 1.5 2 3.5 1.7 5.7"/><path id="XMLID_56_" class="st0" d="M18.9 87.5c-.2-.1-.5-.1-.7 0-.4.2-.6.6-.3.7.2.1.4-.1.5-.2 0 0 .1-.1.3 0 .1.1.1.2.2.2 0 0 0 .3.2.3.1.1.5-.6-.2-1"/><path id="XMLID_57_" class="st0" d="M15.2 90.4c-.3.6.5 1.4.7 1.3.3-.1-.4-.7-.2-1 .2-.4 1.5-1 1.5-1.2 0-.2-1.7.3-2 .9"/><path id="XMLID_58_" class="st0" d="M31.1 102c-.6 0-1.2-.1-1.2.2 0 .3.6.4 1.2.4.4 0 1.2-.1 1.2-.3-.1-.3-.8-.3-1.2-.3"/><path id="XMLID_59_" class="st0" d="M29.6 103.4c-.7 0-1.4-.1-1.5.2-.1.3.7.4 1.5.4.5 0 1.5-.1 1.4-.3 0-.4-.9-.3-1.4-.3"/><path id="XMLID_60_" class="st0" d="M28.3 104.8c-.7 0-1.3-.1-1.4.2 0 .3.7.3 1.4.4.5 0 1.4-.1 1.3-.3 0-.3-.8-.3-1.3-.3"/><path id="XMLID_61_" class="st0" d="M27.1 106.3c-.5 0-1-.1-1 .2 0 .2.5.3 1 .3.4 0 1-.1 1-.3-.1-.2-.7-.2-1-.2"/><path id="XMLID_62_" class="st0" d="M15.6 89.6l.2-.1c.2-.1.3-.2.2-.4-.1-.2-.2-.3-.4-.2l-.2.1c-.2.1-.3.2-.2.4.1.2.2.3.4.2"/><path id="XMLID_63_" class="st0" d="M25.2 86.3l-.3-.1-1.7.6c-.2.1-.2.3-.1.5s.3.3.4.2l1.6-.9.1-.3"/><path id="XMLID_64_" class="st0" d="M25.4 88.1l.1-.3-.2-.1-1.3.2c-.2 0-.2.3-.2.4 0 .2.2.3.4.3l1.2-.5z"/><path id="XMLID_65_" class="st0" d="M25.3 89.3h-1c-.2 0-.3.2-.2.3 0 .2.2.3.3.3l1.1-.2.1-.2-.3-.2"/><path id="XMLID_66_" class="st0" d="M25.1 90.8l-.8-.2c-.1 0-.3.1-.3.3 0 .1.1.3.2.3l.8-.1.1-.3"/><path id="XMLID_67_" class="st0" d="M32.2 85.4c-.2 0-.3.1-.4.2 0 .2.1.3.2.4 0 0 .9.3 1.6.6l.3-.1-.1-.3c-.7-.5-1.5-.8-1.6-.8"/><path id="XMLID_68_" class="st0" d="M32.6 86.8c-.2 0-.3.1-.3.2 0 .2.1.3.2.3 0 0 .7.2 1.2.4l.3-.1-.1-.3c-.7-.3-1.3-.4-1.3-.5"/><path id="XMLID_69_" class="st0" d="M32.7 88.2l-.3.2.2.3s.6.2.8.3l.3-.1-.1-.3c-.7-.4-.8-.4-.9-.4"/><path id="XMLID_70_" class="st0" d="M32.6 89.4l-.2.2.2.2s.4.1.5.1l.2-.1-.1-.3c-.2 0-.5-.1-.6-.1"/><path id="XMLID_71_" class="st0" d="M36.7 88.6c-.6-.6-1-.8-1-.8-.1-.1-.3 0-.4.1-.1.2 0 .3.1.4 0 0 .4.2.9.7h.4v-.4"/><path id="XMLID_72_" class="st0" d="M35.5 89.2c-.1-.1-.3 0-.4.1s0 .3.1.4c0 0 .2.1.7.4h.3v-.3c-.6-.5-.7-.6-.7-.6"/><path id="XMLID_73_" class="st0" d="M35.1 90.4l-.3.1.1.3s.2.1.4.3h.3v-.3l-.5-.4"/><path id="XMLID_74_" class="st0" d="M34.6 91.4h-.3v.3s.1 0 .2.2h.3v-.3c-.1-.2-.1-.2-.2-.2"/><path id="XMLID_75_" class="st0" d="M37.5 91.6l.3.1.1-.3-.3-.4h-.3v.3s.1.1.2.3"/><path id="XMLID_76_" class="st0" d="M36.9 91.8h-.3v.3l.2.1.2.1.1-.2-.2-.3"/><path id="XMLID_82_" class="st0" d="M49.9 68.6h-1.2l-1.2-.8-.2-.1h-1.6c-.3 0-.6-.2-.9-.4-.5-.4-1.3-.9-2.6-.9-1.5 0-2.2.6-2.5 1-.4-.5-1.1-1-2.5-1-1.3 0-2 .5-2.6.9-.3.3-.6.4-.9.4h-1.5l-.2.1-1.2.8h-1.2c-.2 0-.3.1-.3.3v10.8c0 .2.1.3.3.3h8.3c.2.2.6.5 1.3.6.3.1.9 0 1.1 0 .6-.1 1.1-.4 1.3-.6h8.3c.2 0 .3-.1.3-.3V68.9c0-.2-.1-.3-.3-.3m-9.8-.6s.3-1 2.2-1c1.1 0 1.7.4 2.2.8.4.3.8.6 1.3.6H47v8.8h-1.3c-.4 0-.9-.2-1.4-.4-.6-.3-1.4-.6-2.2-.6-1 0-1.7.6-2 .9V68zm-7.6.3h1.2c.5 0 .9-.3 1.3-.6.5-.4 1.1-.8 2.2-.8 1.9 0 2.2 1.1 2.2 1.1v8.9c-.4-.3-1.1-.9-2-.9s-1.6.3-2.2.6c-.5.2-1 .4-1.4.4h-1.3v-8.7zm-1.3.8c.1-.1.4-.3.7-.5v8.8c0 .2.1.3.3.3h1.6c.6 0 1.1-.2 1.6-.5.6-.3 1.3-.5 2-.5 1 0 1.8.9 1.8.9l.2.1h.6l.2-.1s.8-.9 1.8-.9c.7 0 1.4.3 2 .5s1.1.5 1.6.5h1.6c.2 0 .3-.1.3-.3v-8.8c.3.2.6.4.7.5v9h-7l-.2.1s-.5.5-1.2.6h-.3c-.7-.1-1.2-.6-1.2-.6l-.2-.1h-7l.1-9zm18.4 10.2h-8.1l-.2.1s-.4.4-1 .5c-.2 0-.7.1-.9 0-.7-.1-1-.5-1-.5l-.2-.1h-8.1V69.1h.5v9.1c0 .2.1.3.3.3h7.2c.2.2.7.6 1.5.7h.4c.7-.1 1.2-.5 1.4-.7h7.2c.2 0 .3-.1.3-.3v-9.1h.6l.1 10.2z"/><path id="XMLID_83_" class="st0" d="M33.9 69.9c.2 0 .7 0 1.4-.4l.5-.2 1-.4c.6-.1 1.2-.1 1.4 0l-.1-.2.2-.1s-.7-.2-1.5 0l-1 .4-.5.2c-.6.3-1.2.3-1.3.3l-.1.1v.3"/><path id="XMLID_84_" class="st0" d="M33.9 71.8c.2 0 .7-.1 1.4-.4l.5-.2 1-.4c.6-.2 1.2-.1 1.4 0l.2-.1-.1-.2s-.7-.2-1.5 0l-1 .4-.5.2c-.6.3-1.2.3-1.3.3l-.1.1v.3"/><path id="XMLID_85_" class="st0" d="M33.9 73.6c.2 0 .7 0 1.4-.4l.5-.2 1-.4c.6-.1 1.2-.1 1.4 0l.2-.1-.1-.2s-.7-.1-1.5 0l-1 .4-.5.2c-.6.3-1.2.3-1.3.3l-.1.1v.3"/><path id="XMLID_86_" class="st0" d="M35.3 75.1l.5-.2 1-.4c.6-.1 1.2-.1 1.4 0l-.1-.2.2-.1s-.7-.1-1.5 0l-1 .4-.5.2c-.6.3-1.2.3-1.3.3l-.1.1.1.1c0 .2.6.1 1.3-.2"/><path id="XMLID_87_" class="st0" d="M41.3 68.9c.2 0 .8-.1 1.4 0l1 .4.5.2c.7.3 1.3.4 1.4.4l.1-.1-.1-.1c-.1 0-.7 0-1.3-.3l-.5-.2-1-.4c-.7-.2-1.5 0-1.5 0v.1"/><path id="XMLID_88_" class="st0" d="M41.3 70.7c.2 0 .8-.1 1.4 0l1 .4.5.2c.7.3 1.3.3 1.4.4l.1-.1-.1-.1c-.1 0-.7 0-1.3-.3l-.5-.2-1-.4c-.7-.2-1.5 0-1.5 0l-.1.2.1-.1"/><path id="XMLID_89_" class="st0" d="M41.3 72.6c.2 0 .8-.1 1.4 0l1 .4.5.2c.7.3 1.3.3 1.4.4l.1-.1-.1-.1c-.1 0-.7 0-1.3-.3l-.5-.2-1-.4c-.6-.2-1.2-.1-1.5 0l-.1.2.1-.1"/><path id="XMLID_90_" class="st0" d="M43.7 74.9l.5.2c.7.3 1.3.4 1.4.4l.1-.1-.1-.1c-.1 0-.7 0-1.3-.3l-.5-.2-1-.4c-.6-.2-1.2-.1-1.5 0l-.1.2.2.1c.2 0 .8-.1 1.4 0l.9.2z"/><path id="XMLID_91_" class="st0" d="M8.7 69.9c.2 0 .7 0 1.4-.4l.5-.2 1-.4c.6-.1 1.2-.1 1.3 0l-.1-.2.2-.1s-.7-.2-1.5 0l-1 .4-.5.2c-.6.3-1.2.3-1.3.3l-.1.1.1.3"/><path id="XMLID_92_" class="st0" d="M8.7 71.8c.2 0 .7-.1 1.4-.4l.5-.2 1-.4c.6-.2 1.2-.1 1.3 0l.2-.1-.1-.2s-.7-.2-1.5 0l-1 .4-.5.2c-.6.3-1.2.3-1.3.3l-.1.1.1.3"/><path id="XMLID_93_" class="st0" d="M8.7 73.6c.2 0 .7 0 1.4-.4l.5-.2 1-.4c.6-.1 1.2-.1 1.3 0l.2-.1-.1-.2s-.7-.1-1.5 0l-1 .4-.5.2c-.6.3-1.2.3-1.3.3l-.1.1.1.3"/><path id="XMLID_94_" class="st0" d="M8.7 75.5c.2 0 .7 0 1.4-.4l.5-.2 1-.4c.6-.1 1.2-.1 1.3 0l-.1-.2.2-.1s-.7-.1-1.5 0l-1 .4-.5.2c-.6.3-1.2.3-1.3.3l-.1.1.1.3"/><path id="XMLID_95_" class="st0" d="M16.3 68.7l-.1.2c.2 0 .8-.1 1.3 0l1 .4.5.2c.7.3 1.3.4 1.4.4l.1-.1-.1-.1c-.1 0-.6 0-1.3-.3l-.5-.2-1-.4c-.7-.2-1.5 0-1.5 0l.2-.1"/><path id="XMLID_96_" class="st0" d="M16.2 70.7c.2 0 .8-.1 1.3 0l1 .4.5.2c.7.3 1.2.3 1.4.4l.1-.1-.1-.1c-.1 0-.7 0-1.3-.3l-.5-.2-1-.4c-.7-.2-1.5 0-1.5 0l-.1.2.2-.1"/><path id="XMLID_97_" class="st0" d="M17.5 72.6l1 .4.5.2c.7.3 1.2.3 1.4.4l.1-.1-.1-.1c-.1 0-.7 0-1.3-.3l-.5-.2-1-.4c-.7-.2-1.5 0-1.5 0l-.1.2.2.1c.2-.2.8-.3 1.3-.2"/><path id="XMLID_98_" class="st0" d="M18.5 74.9l.5.2c.7.3 1.2.4 1.4.4l.1-.1-.1-.1c-.1 0-.7 0-1.3-.3l-.5-.2-1-.4c-.7-.2-1.5 0-1.5 0l.2.1-.1.2c.2 0 .8-.1 1.3 0l1 .2z"/><path id="XMLID_104_" class="st0" d="M24.7 68.6h-1.2l-1.2-.8-.2-.1h-1.5c-.3 0-.6-.2-.9-.4-.5-.4-1.3-.9-2.6-.9-1.5 0-2.2.6-2.5 1-.4-.5-1.1-1-2.5-1-1.3 0-2 .5-2.6.9-.3.2-.6.4-.9.4H7l-.2.1-1.2.8H4.4c-.2 0-.3.1-.3.3v10.8c0 .2.1.3.3.3h8.3c.2.2.6.5 1.3.6.3.1.9 0 1.1 0 .6-.1 1.1-.5 1.3-.6h8.3c.2 0 .3-.1.3-.3V68.9c0-.2-.1-.3-.3-.3m-9.8-.6s.3-1 2.2-1c1.1 0 1.7.4 2.2.8.4.3.8.6 1.3.6h1.2v8.8h-1.3c-.4 0-.9-.2-1.4-.4-.6-.3-1.4-.6-2.2-.6-1 0-1.7.5-2 .9V68zm-7.6.4h1.3c.5 0 .9-.3 1.3-.6.5-.4 1.1-.8 2.2-.8 1.9 0 2.2 1.1 2.2 1.1V77c-.4-.3-1.1-.9-2-.9s-1.6.3-2.2.6c-.5.2-1 .4-1.4.4H7.4l-.1-8.7zm-1.3.7c.1-.1.4-.3.7-.5v8.8c0 .2.1.3.3.3h1.6c.6 0 1.1-.2 1.6-.5.6-.3 1.3-.5 2-.5 1 0 1.8.9 1.8.9l.2.1h.6l.2-.1s.8-.9 1.8-.9c.7 0 1.4.3 2 .5s1.1.5 1.6.5H22c.2 0 .3-.1.3-.3v-8.8c.3.2.6.4.7.5v9h-7l-.2.1s-.5.5-1.2.6h-.3c-.7-.1-1.2-.6-1.2-.6l-.2-.1h-7l.1-9zm18.4 10.3h-8.1l-.2.1s-.4.4-1 .5h-.9c-.7-.1-1-.5-1-.5l-.2-.1H4.9V69.2h.6v9.1c0 .2.1.3.3.3H13c.2.2.7.6 1.5.7h.4c.7-.1 1.2-.5 1.4-.7h7.2c.2 0 .3-.1.3-.3v-9.1h.6v10.2z"/><path id="XMLID_105_" class="st0" d="M27.1 58.5c-4 0-8.2 1-8.2 2.7 0 .8.9 1.5 2.2 1.9.1.1.5.2.6.1l-.5-.2c-1.2-.6-1.7-1.2-1.7-1.7 0-1 3.2-2.1 7.5-2.1s7.5 1.1 7.5 2.1c0 .5-.4 1.2-1.6 1.7l-.5.2.5-.1c1.3-.5 2.2-1.1 2.2-1.9.2-1.7-4-2.7-8-2.7"/><path id="XMLID_106_" class="st0" d="M36.5 55.5c-.4.5-1.2 1.8-1.2 2.2-.3-.2-.7-.4-1.3-.6-1.7-.6-4.2-1-6.7-1-2.6 0-5 .4-6.7 1-.5.2-1 .4-1.3.6-.1-.4-.9-1.8-1.2-2.2-.1-.1-.3 0-.2.1.6 1.2.8 2.2.9 2.5 0 .2.1.3.2.4h.3c.4-.2.8-.5 1.6-.8 1.6-.6 4-1 6.5-1s4.9.4 6.5 1c.8.3 1.2.6 1.6.8h.3c.2-.1.2-.2.2-.4.1-.4.2-1.4.9-2.5-.1-.1-.3-.3-.4-.1"/><path id="XMLID_107_" class="st0" d="M27.7 57.6c0-.3-.2-.6-.6-.6-.3 0-.6.3-.6.6s.3.6.6.6c.4 0 .6-.3.6-.6"/><path id="XMLID_108_" class="st0" d="M23.8 57.9c0-.3-.3-.6-.6-.6s-.6.2-.6.6c0 .3.3.6.6.6.4 0 .6-.3.6-.6"/><path id="XMLID_109_" class="st0" d="M19.8 59.6c.3-.2.4-.5.2-.8-.1-.3-.5-.4-.8-.2s-.4.5-.2.8.5.4.8.2"/><path id="XMLID_110_" class="st0" d="M21.6 58.4c0-.2-.1-.3-.3-.3-.2 0-.3.1-.3.3s.1.3.3.3.3-.2.3-.3"/><path id="XMLID_111_" class="st0" d="M25.5 57.7c0-.2-.1-.3-.3-.3-.2 0-.3.1-.3.3s.1.3.3.3.3-.1.3-.3"/><path id="XMLID_112_" class="st0" d="M31.7 57.9c0-.3-.2-.6-.6-.6-.3 0-.6.2-.6.6 0 .3.3.6.6.6s.6-.3.6-.6"/><path id="XMLID_113_" class="st0" d="M35.1 58.7c-.3-.1-.6 0-.8.2-.2.3-.1.6.2.8.3.2.6.1.8-.2s.1-.7-.2-.8"/><path id="XMLID_114_" class="st0" d="M33.3 58.4c0-.2-.1-.3-.3-.3-.2 0-.3.1-.3.3s.1.3.3.3.3-.2.3-.3"/><path id="XMLID_115_" class="st0" d="M29.4 57.7c0-.2-.1-.3-.3-.3-.2 0-.3.1-.3.3s.1.3.3.3c.2 0 .3-.1.3-.3"/><path id="XMLID_116_" class="st0" d="M27.2 50.8c-.3 0-.6.3-.6.6s.3.6.6.6.6-.2.6-.6c-.1-.3-.3-.6-.6-.6"/><path id="XMLID_117_" class="st0" d="M27.2 49.2c-.3 0-.6.2-.6.6s.3.6.6.6.6-.3.6-.6c-.1-.3-.3-.6-.6-.6"/><path id="XMLID_118_" class="st0" d="M27.2 47.6c-.3 0-.6.3-.6.6s.3.6.6.6.6-.3.6-.6c-.1-.3-.3-.6-.6-.6"/><path id="XMLID_119_" class="st0" d="M24.4 48.9c.3 0 .6-.3.6-.6s-.3-.6-.6-.6-.6.3-.6.6c.1.4.3.6.6.6"/><path id="XMLID_120_" class="st0" d="M22.6 48.3c.3 0 .6-.3.6-.6s-.3-.6-.6-.6-.6.3-.6.6.3.6.6.6"/><path id="XMLID_121_" class="st0" d="M20.7 47.9c.3 0 .6-.3.6-.6s-.3-.6-.6-.6-.6.3-.6.6.3.6.6.6"/><path id="XMLID_122_" class="st0" d="M18.7 48.2c.3 0 .6-.3.6-.6s-.3-.6-.6-.6-.6.3-.6.6c.1.3.3.6.6.6"/><path id="XMLID_123_" class="st0" d="M17.1 49.2c.3 0 .6-.3.6-.6s-.3-.6-.6-.6-.6.3-.6.6c0 .4.2.6.6.6"/><path id="XMLID_124_" class="st0" d="M16.1 50.9c.3 0 .6-.2.6-.6 0-.3-.3-.6-.6-.6s-.6.2-.6.6.3.6.6.6"/><path id="XMLID_125_" class="st0" d="M16.7 52.4c0-.3-.2-.6-.6-.6-.3 0-.6.3-.6.6s.3.6.6.6c.3-.1.6-.3.6-.6"/><path id="XMLID_126_" class="st0" d="M16.8 53.6c-.3 0-.6.3-.6.6s.3.6.6.6.6-.3.6-.6-.3-.6-.6-.6"/><path id="XMLID_129_" class="st0" d="M33.7 61.8c0-1.4-4.3-1.7-6.5-1.7-2.3 0-6.5.4-6.5 1.7 0 1.4 4.3 1.7 6.5 1.7s6.5-.4 6.5-1.7m-6.6 1.1c-3.9 0-5.9-.8-5.9-1.1s2-1.1 5.9-1.1 5.9.8 5.9 1.1c.1.3-2 1.1-5.9 1.1"/><path id="XMLID_130_" class="st0" d="M26.3 46.5h.6v.6c0 .2.1.3.3.3.2 0 .3-.1.3-.3v-.6h.6c.2 0 .3-.1.3-.3s-.1-.3-.3-.3h-.6v-.6c0-.2-.1-.3-.3-.3-.2 0-.3.1-.3.3v.6h-.6c-.2 0-.3.1-.3.3 0 .1.1.3.3.3"/><path id="XMLID_138_" class="st0" d="M18.9 55.7c.3.6 1 1 1.9.8.5-.2.9-.2 1.2-.8.1-.3.3-.6-.1-1l-.4-.2v.3c.1.2.1.5-.2.6-.2.1-.4 0-.4-.1 0 0 .3-.3 0-.5-.2-.2-.8-.8 0-1.2.6-.3 1.1.6 1.2.7h.1c-.1-.6-.7-.8-.8-1.5-.1-.5.3-.9.5-1.1h.3c.3.1.7.3.8.8.1.7-.3 1.1-.1 1.7 0 .1.1.1.1 0s.1-1.1.8-1.1c.9 0 .6.8.4 1.1-.2.4.2.4.2.4 0 .1-.1.3-.3.2-.3 0-.5-.3-.4-.5.1-.1-.1-.3-.2-.3l-.3.3c-.1.5.1.8.3 1 .5.4 1.2.3 1.5.3 1.3-.1 1.4-.9 1.4-.9-.3.1-.8.3-.8.3h-.1l-.2-.2v-1.1l.2-.2h.1l.9.3-.2-.7V53l.2-.2h1.4l.2.2v.1l-.3.7.9-.3h.1l.2.2v1.2l-.2.2h-.1l-.9-.3s.1.8 1.4.9c.4 0 1.1.1 1.5-.3.2-.2.5-.5.3-1l-.3-.3c-.1 0-.2.1-.2.3.1.2-.1.5-.4.5-.2 0-.4-.2-.3-.2 0 0 .4-.1.2-.4-.1-.3-.5-1 .4-1.1.7 0 .8 1 .8 1.1s.1.1.1 0c.1-.6-.3-1-.1-1.7.1-.5.6-.7.8-.8h.3c.2.2.6.6.4 1.1-.1.7-.7.9-.8 1.5h.1c.1-.1.6-1 1.2-.7.8.4.2 1 0 1.2-.3.3 0 .5 0 .5 0 .1-.2.2-.4.1-.3-.1-.3-.4-.2-.6v-.3l-.4.2c-.3.4-.2.8-.1 1 .3.5.7.6 1.2.8.9.3 1.6-.2 1.9-.7.6-.8 2-2.7 2-4.4s-1.5-3-3.5-3c-.9 0-1.7.3-2.5.6-.9.3-1.7.6-2.6.5v-1.8c0-.2-.1-.3-.3-.3-.2 0-.3.1-.3.3v4.6h-2.2v-4.6c0-.2-.1-.3-.3-.3-.2 0-.3.1-.3.3v1.8c-.8.1-1.7-.2-2.5-.5s-1.6-.6-2.5-.6c-2 0-3.5 1.3-3.5 3 .2 1.5 1.6 3.4 2.2 4.2m12.8-6.2c.8-.3 1.5-.6 2.3-.6 1.6 0 2.9 1 2.9 2.4 0 .4-.1.9-.3 1.4-.1-.3-.2-.6-.4-.9-.5-.7-1.4-1-2.5-1-.5-.5-1.5-.9-2.6-1h-.3l.9-.3m-2.8.5h.6l-.6.3V50zm0 1.2c.6-.7 1.5-.8 2-.8 1 0 1.9.4 2.2.8l.3.1c1 0 1.7.2 2.1.8.5.6.4 1.4.3 1.8-.1.2-.2.3-.3.5.1-1.1-.6-1.9-1.4-2.3h-.3c-.2.2 1.3 1.3 1 2.6-.2.8-.7 1.1-1 1.2h-.1c.2-.1.3-.3.3-.5v-.2c.2-.2.4-.5.4-.9v-.1c0-.3-.2-.7-.8-.9l-.2-.1v-.4c0-.7-.5-1.3-.8-1.5 0 0-.2-.2-.5-.1-.4.1-1.3.5-1.5 1.4v.1h-.2c-.4 0-.7.2-.9.3 0-.1-.2-.3-.4-.2.2-.2.4-.5.8-.8s.9-.5.9-.6-.2-.1-.4-.1-.5.1-.6.2c-.4.2-.7.4-.9.7v-1m-4.1 1.7c-.2-.2-.5-.3-.9-.3h-.2v-.1c-.2-.8-1.1-1.3-1.5-1.4-.3-.1-.5.1-.5.1-.3.2-.8.8-.8 1.5v.4l-.2.1c-.6.3-.7.7-.8.9v.1c0 .4.2.7.4.9v.2c0 .2.1.4.3.5h-.1c-.3-.1-.8-.4-1-1.2-.4-1.3 1.1-2.4 1-2.6h-.3c-.7.4-1.5 1.1-1.4 2.3-.1-.2-.2-.3-.3-.5-.1-.4-.1-1.2.3-1.8.4-.5 1.1-.8 2.1-.8l.3-.1c.3-.4 1.2-.8 2.2-.8.5 0 1.5.1 2.1.8v.8c-.2-.2-.5-.5-.9-.7-.1 0-.4-.2-.6-.2s-.4.1-.4.1c0 .1.5.3.9.6.3.2.6.6.8.8-.4.1-.5.2-.5.4m.6-2.9v.3l-.6-.3h.6m-5-1.1c.8 0 1.5.3 2.3.6l.9.3h-.3c-1 0-2.1.4-2.6 1-1.2 0-2 .3-2.5 1-.2.3-.4.6-.4.9-.2-.5-.3-.9-.3-1.4 0-1.4 1.3-2.4 2.9-2.4"/><path id="XMLID_139_" class="st0" d="M29.9 48.9c.3 0 .6-.3.6-.6s-.2-.6-.6-.6c-.3 0-.6.3-.6.6.1.4.3.6.6.6"/><path id="XMLID_140_" class="st0" d="M31.8 48.3c.3 0 .6-.3.6-.6s-.3-.6-.6-.6-.6.3-.6.6c0 .4.3.6.6.6"/><path id="XMLID_141_" class="st0" d="M33.7 47.9c.3 0 .6-.3.6-.6s-.3-.6-.6-.6-.6.3-.6.6.3.6.6.6"/><path id="XMLID_142_" class="st0" d="M35.6 48.2c.3 0 .6-.3.6-.6s-.3-.6-.6-.6-.6.3-.6.6c.1.3.3.6.6.6"/><path id="XMLID_143_" class="st0" d="M37.3 49.2c.3 0 .6-.3.6-.6s-.2-.6-.6-.6c-.3 0-.6.3-.6.6.1.4.3.6.6.6"/><path id="XMLID_144_" class="st0" d="M38.3 50.9c.3 0 .6-.2.6-.6 0-.3-.3-.6-.6-.6s-.6.2-.6.6.3.6.6.6"/><path id="XMLID_145_" class="st0" d="M38.3 51.8c-.3 0-.6.3-.6.6s.3.6.6.6.6-.3.6-.6c-.1-.4-.3-.6-.6-.6"/><path id="XMLID_146_" class="st0" d="M37.6 53.6c-.3 0-.6.3-.6.6s.3.6.6.6.6-.3.6-.6c-.1-.3-.3-.6-.6-.6"/><path id="XMLID_147_" class="st0" d="M27.2 52.9z"/><path id="XMLID_217_" class="st0" d="M45.5 20.4l.1-.3c0-.2-.1-.5-.3-.7-.6-.7-1.7 0-2.2.3 0-.2-.1-.4-.3-.5v-.3c0-.4-.4-.6-.7-.7.5 0 1.2 0 1.4-.7v-.4l.5.1c.7.2 1.8.4 2.1-.4l.1-.3c0-.3-.2-.5-.3-.7l-.1-.1c.3-.2 1.1-.6 1.1-1.4 0-.2 0-.4-.2-.7-.4-.8-1.2-.6-1.7-.5h-.2v-.3c0-.2 0-.4-.2-.6-.1-.1-.3-.2-.4-.3.2-.2.3-.5.3-.8 0-.2 0-.3-.1-.5-.1-.3-.3-.5-.5-.6-.5-.2-1.2.1-1.6.3l-.1-.2.1-.4c0-.3-.1-.5-.1-.6.3-.2.7-.6.8-1v-.2c0-.2-.1-.4-.2-.6-.6-.7-1.5-.4-1.9-.3h-.1c-.1-.3-.3-.5-.8-.7-.5-.1-1.1.4-1.5.7l-.2.1-.1-.1-.6-.4c-.6-.1-1.2.8-1.3 1-.1-.2-.2-.3-.3-.3l.1-.1c.3-.3.7-.7.8-1.2 0-.3-.1-.5-.4-.8s-.7-.5-1-.5c-.6 0-1.1.5-1.4.9l-.1-.3V5c0-.1 0-.3-.1-.4l-.2-.2c.4-.3.8-.8.8-1.3 0-.1 0-.3-.1-.4-.3-.6-.7-.7-1-.7v-.5c0-.5-.1-1-.8-1.2-.8-.2-1.4.5-1.6.9l-.1.1c-.2-.2-.5-.5-.9-.4-.2-.3-.5-.6-.9-.6-.8-.1-1.1.8-1.3 1.5l-.1.3h-.1c-.2-.1-.5-.1-.9.1-.3.2-.4.5-.4.8 0 .5.3 1.1.5 1.5l.1.2c-.4.1-.6.2-.8.4-.1.1-.1.3-.2.4l-.1-.1c.1-.5.3-2.2 0-2.7-.1-.1-.3-.2-.5-.2l-.2.1c0-.6-.1-1.5-.8-1.7-.5-.2-.8 0-.9.2-.4-.5-1.1-1.4-2-1-.4.2-.5.5-.5.9s.2.9.3 1.3v.1c-.3 0-.7.1-.9.7V3.4c-.5-.3-1.1-.6-1.8-.1-.4.2-.5.6-.5.9 0 .6.3 1.1.5 1.5-.3.1-.7.3-.7.9v.2c0 1 1.1 1.3 1.7 1.5h.1c-.1.1-.4.3-.5.3l-.2-.1c-.5-.3-1.5-1-2.4 0-.2.2-.3.4-.3.7 0 .5.4.9.6 1.2l.2.2-.1.2-.2.6v.2l-.1.1v-.3c0-.6-.1-1.4-.7-1.6-.4-.1-.6.1-.8.3-.1-.6-.3-1.7-1-1.7-.4 0-.6.4-.8.7l-.1.1-.1-.1c-.2-.3-.7-.9-1.3-.6-.5.2-.7.7-.7 1.2 0 .3.1.6.1.8v.2h-.1c-.3.1-.6.3-.7.6l-.1.3c0 .6.8 1.1 1.4 1.4-.1.1-.3.2-.4.3-.4-.2-.8-.3-1.2-.1-.5.2-.5.6-.5.9v.1c-.4-.1-1-.2-1.4.6-.1.2-.2.5-.2.6 0 .2.1.4.1.5.3.5.8.7 1.3.9-.1.1-.2.3-.2.4l.2.7c.4.5 1 .2 1.5.1.5-.2.7-.2.8-.1 0 .1-.1.3-.3.5h-.3c-.4.1-.6.4-.7.6-.4-.3-1-.8-1.6-.7-.5.1-.6.5-.6.8v.4h-.1c-.4-.1-.9-.2-1.3.1-.2.1-.4.4-.4.7v.2c0 .9.9 1.1 1.4 1.3-.1.2-.2.4-.2.6 0 .2.1.4.3.6.8.7 1.5.2 1.9-.1l.1.4v.2l-.1.1c-.3.1-.7.2-.9.6-.1.1-.1.2-.1.4 0 .1 0 .2.1.4.3.8 1.2.8 1.6.8h.1v.1c0 .2.1.6.4.9.8.7 1.8-.2 2.2-.5l.3.2c.1.2.2.3.2.4l-.1.1c-.3.3-.8.8-.8 1.4 0 .2.1.4.2.7.4.6 1.2.2 1.9-.2l.5-.2v.1c.1.3.2.8 1.1.7 1-.2 1.3-1 1.5-1.5.1-.2.1-.3.2-.4l.4.4.4-.1c.6-.4 1-1.7 1.1-2.2 1.2.6 2.3 2.3 2.5 2.7.1.3.6 1 1.2 2.1.4.6.9 1.4.9 1.6-.3 1.7-1.1 3-2.2 3.6l-.5.3c-1.1.6-2.8 1.4-3.5 2h-.3c-.7 0-1 .2-1.2.3-.4-.2-.9-.4-1.3-.4-1.2 0-1.8.6-2 1.1-.4.8-.3 1.7.1 2.2.5.6 1.1 1 2 1 .6 0 1-.2 1.2-.3.2.1.6.3 1.2.3.7 0 1.1-.2 1.3-.3.3.2.7.3 1.1.3.6 0 .9-.2 1.1-.3.2.1.6.3 1.1.3.6 0 1-.2 1.2-.3.3.2.7.3 1.1.3.6 0 .9-.2 1.1-.3.2.1.6.3 1.1.3.6 0 1-.2 1.2-.3.3.2.7.3 1.1.3.6 0 .9-.2 1.1-.3.2.1.6.3 1.1.3.6 0 1-.2 1.2-.3.3.2.7.3 1.1.3.6 0 .9-.2 1.1-.3.2.1.6.3 1.1.3.7 0 1.1-.2 1.3-.3.4.2.9.4 1.4.4 1 0 1.7-.4 2-1.1.4-.8.3-1.7-.1-2.2-.5-.7-1.1-1-2-1-.6 0-1 .2-1.2.3-.2-.1-.5-.2-.9-.3-.4-.7-.9-1-2.8-1.8l-.3-.1c-2-.9-2.5-1.7-2.9-2.3l-.1-.1c-.3-.6-1-4.2.4-6.4.8-1.3 1.8-1.8 2.4-2.1.1.6.3 1.5.6 1.8l.5.3.3-.1.1.2c.2.6.6 1.5 1.3 1.5.5.1.8-.2.9-.4.3.3.7.7 1.2.7s.7-.3.9-.5c.3.1 1.1.4 1.5-.3.1-.2.2-.4.2-.5 0-.4-.4-.7-.5-.8.1-.1.3-.3.3-.5.2 0 .4 0 .6-.2.3-.2.3-.5.4-.6.3 0 .9.1 1.2-.5.1-.1.1-.3.1-.4.3-.1.4-.4.5-.5.4.2 1 .4 1.4.2.5-.2.5-.7.5-1 .4.1.9.2 1.4-.1.2-.2.4-.4.4-.8v-.2c-.1-1.8-1.3-2-1.8-2.1m-2.9-1l-.3.2.3-.2m-.5-.5l-.2.2-.3.2-.1.3c-.1.4-.4 1.1-1.8 1.4l-.1-.1c-.2-.3-.4-.7-.5-1.2-.1-.7 0-1.2.1-1.6 1.1-.1 1.9 0 2.2.4l.3.2.4.2m-6.6.1l.2.5.1.1c-.4.3-1.1.1-1.5 0h-.6c-.2.1-.3.3-.3.5v.2c-.2 0-1.3-.2-1.7-.4.2-.3.5-.6.8-.8.3-.2.7-.3 1-.4.8-.3 1.8-.7 1.7-.9-.1-.2-1.1 0-1.9.3-.6.2-1.5.6-2 .7.2-.7.6-1.6 1-1.7.1.2.3.3.4.3l.6-.4c.8-.7 1-.8 1.1-.8l.1.1.3.3c.2.1.4 0 .7-.2.1-.1.5-.3.6-.3.2.1.2.1.2.2l.3.3h.6c.3-.1.9-.2.9 0 .2.4 0 .6-.5.8-.2.1-.5.2-.5.5l.1.4.1.3c0 .1-.1.2-.3.2H35.4l.1.2m-4.2 4c-.3.3-.6.6-.8.9v-.3c0-.7.1-1.5.3-2.1l.6-1.2c.2.1.5.2.8.3 0 .2-.1.2-.3.3l-.6.4c-.4.5-.3 1.2 0 1.7M30 17.6c.1-.3.1-.6.2-.9.2-.5 1.3-2.5 1-2.6s-1.3 1.8-1.5 2.4c-.1.2-.1.4-.2.5-.2-.5-.5-1.1-.5-1.5 0-.2 0-.4.1-.5l.2-.1.2-.1.2-.3-.1-.4c-.1-.3-.3-.8-.3-1.2l.1-.4c.1-.2.2-.3.4-.3l.1.1c.2.2.4.2.5 0l.1-.4c0-.3.2-1.2.6-1.2l.2.1c.1 0 .2.1.4 0l.2-.1c.6-.6.8-.5.8-.5.1.1.1.4.1.6 0 .3 0 .5.2.6l.4.1h.2c.2.6-.2 1-.7 1.4-.1.1-.3.2-.2.4l.3.3.2.1c.1.3-.8.7-1 .9l-.5.4-.1.1.2.1.4.2h.1c.3.9-1.5 1.9-2.3 2.2m1 .2c-.2.5-.3 1-.4 1.2-.1.1-.3.1-.4.2l-.2.1v-.1c0-.4-.1-.7-.1-1 .3-.1.7-.2 1.1-.4m-1.7-.3l.1-.1-.1.1M29 17.4h-.4c-.1-.5-.3-1.4-.7-1.8-.4-.3-.9 0-1.2.2-.3-.5-.8-1.3-1.4-1.5l-.1-.1c-.2-.2-.5-.5-.5-.9 0-.2.2-.3.4-.4.3-.2.3-.4.3-.7-.1-.7 0-1.2.4-1.3.5-.1 1 .4 1.4.9l.5.4c.3.1.5-.1.6-.3.2-.2.2-.2.3-.2.2.1.4.4.4.6-.1.2-.1.4-.1.6 0 .5.2 1 .3 1.3-.1 0-.3.1-.4.3-.2.2-.3.5-.3.9-.1.7.3 1.5.5 2m-.8 3.8c.1.5.2 1 .2 1.4v.4c0 .4-.2 1.3-.4 1.9l-1-1.7c-.5-.8-.6-1.6-.6-2.1.8.3 1.1.3 1.7.2l.1-.1zm.4-1.4c-.1-.1-.3-.2-.4-.4l-.8-.8c-.7-.5-1.7-1.1-1.8-.9-.1.2.8.7 1.4 1.3.4.4.7.8.9 1.2v.1l.1.3h-.1c-.6.1-.8.1-1.4-.1l-.3-.2V19.7H26l-.6.1c-.3.1-.8.4-1.1.2 0 0-.1-.1-.2-.3-.2-.5 0-.6.1-.8.1-.1.2-.2.2-.5s-.3-.3-.6-.4c-.6-.1-.9-.2-.9-.5 0-.2.2-.4.4-.6l.1-.2-.1-.2s-.5-.7 0-1.1c.5-.3.7-.1.8 0l.5.3.2-.3s0-.4.3-.5.9.7 1.1 1.3l.2.2c.2.1.4 0 .6-.2l.5-.2c.3.2.5 1.2.5 1.5l.1.3c.2.1.4.1.6.1h.3c0 .2-.1.8-.4 1.9m-5 .1v.2c0 .4-.6.9-.9 1l-.4-.3c-.1-.2-.3-.8-.4-1.6-.2-1.4-.3-1.9-.5-1.9-.2.1-.3.5-.1 1.9 0 .3.1.6.1.9l-.1-.1-.5-.1-.1.1c-.1-.6-.4-1.2-.7-1.5V18l.4-.5c0-.2-.1-.4-.3-.5-.3-.3-.5-.6-.4-.9 0 0 0-.1.2-.1l.3-.1c.2-.1.1-.3.1-.6 0-.6 0-1.1.5-1.3h.1c.3.1.6.7.7 1l.1.1c.2.1.4.1.5 0 .3-.1.5-.2.7 0-.3.2-.4.6-.4.9 0 .3.1.6.2.8-.2.2-.5.5-.5.9 0 .8.9 1 1.4 1.1-.1.2-.2.3-.2.6.1.2.1.3.2.5m-.4 2.2c.7.2 2 .6 2.4 3 .2 1.1.2 1.8.2 2.3 0 .3 0 .5-.1.6-.6-.5-2.4-2-2.4-4v-.3c.2-.7.1-1.2-.1-1.6m-3.8-3.8l-.3.3c-.2-.5-.6-.9-1.1-1-.4-.1-.6.3-.7.5-.3-.2-.8-.5-1.3-.4l-.3.1c-.5-.2-.9-.2-1.2-.1v-.2l-.3-.4c-.3-.2-.6-.4-.5-.8.1-.3.3-.4.6-.4l.3-.1.5-.2.1-.3c.1-.2.1-.3.2-.3.2.4.5.7.9 1 .1.5.3.8.7 1 .7.3 1.8.1 2.3-.2.1.3.3.5.5.6l-.2.2c-.1.1-.1.3-.1.5l-.1.2M13.2 20l-.1-.3-.1-.1c-.1-.2-.1-.3 0-.5s.3-.2.5-.2h.2l.2-.1c.2-.2.7-.5 1.4-.3-.1.2-.1.3-.1.5 0 .4.2.7.4.9l-1.2 1.9c-.3-.1-.7-.5-.9-.9l-.3-.9zm3.8-4.7c-.2.2-.3.2-.4.2-.7-.4-1-1.2-1-1.9l-.1-.4v-.1h.4l.3-.1c.4-.1 1.1-.2 1.9.1 0 .5-.6 1.6-1.1 2.2m5.2-.7l.1.2-.1-.2m-.8-5.5v-.5l.5.2.1.1.3.1c.4 0 1 .1 1.6 1.1-.4.1-.9.3-1.4.6-.4.2-.8.5-1 .7-.5-1-.2-1.5-.1-1.8l.1-.2-.1-.3zm.1 3.3zM30 8.3l.2-.1c.1-.1.3-.2.5-.2.2.1.2.2.2.3l.1.2c.1.3.4.8.3 1.7-.2-.1-1.6-.6-2.6-.6.2-.8 1-1.2 1.3-1.3m4.4 3.2c.3-.2.6-.4.7-.8v-.3c0-.2-.1-.4-.1-.5.2-.1.3-.2.4-.2.2.1.4.5.4.6l.3.3c.2.1.5-.1.8-.2.5-.3.8-.4 1.1-.2.3.2.3.4.3.5-.4.3-.8.8-.9 1-.6-.1-1.2.1-1.7.4-.3-.1-1.1.2-1.6.9-.1.2-.2.5-.3.7l-.3-.3c.5-.4.8-.9.8-1.4.2-.2.2-.3.1-.5m4.1 1l-.1.3v.5c0 .4-.1 1-.7 1.5-.6-.2-1.1-.5-1.4-1l-.2-.5c-.1-.2-.1-.4-.1-.7.8-.5 1.6-.3 1.8-.2h.1l.4-.1.2-.1v.3m-3.1-.1zm-.6.9c.1-.2.3-.4.4-.5l-.4.5zm.1 1.9l-.1-.1c-.1-.2-.2-.5-.2-.7l.3.8zm-1.8.3c0-.2-.1-.2-.2-.3.4-.2.9-.5 1.1-1 0 .4.1.8.4 1.2-.5.1-1 .6-1.4.9l.1-.1c.1-.2.2-.4.2-.6l-.2-.1m4.7 2.3v.1-.1m6.6-4.7v.5c.2.4.6.3.9.2.6-.2.8-.2.9.1.3.6 0 .9-.7 1.2l-.4.3c-.1.3 0 .5.2.7l.2.3c-.2.3-.9.1-1.5 0-.5-.1-.8-.2-1 0-.3.2-.2.5-.2.6v.2c-.1.2-.4.3-.9.2-.2 0-.5 0-.6.1-.5-.2-1.2-.3-2-.2l-.1-.1c-.1-.1-.3-.2-.5-.2l.1-.3v-.2c.8 0 2.5.1 3-.9l.1-.3c0-.2-.1-.4-.2-.6.9 0 2.2 0 2.3-.9v-.1c0-.5-.3-.8-.6-.9l.2-.2.2-.2c.4 0 .5.1.6.2v.5M42.6 11c.3-.1.9-.4 1.2-.3.1 0 .1.1.2.2.2.4 0 .7-.4 1l-.1.1-.3.2c-.3.2-.6.4-.7.7v.3l.3.2c.3.1.5.2.4.5 0 .1-.3.4-1.8.3-.4 0-.6 0-.7.2s0 .3.1.5l.2.6c-.3.6-1.9.6-2.5.5h-.2c-.1-.1-.3-.2-.4-.2.1-.2.1-.4.1-.6l.6-.6c.1 0 .3-.2.5-.3.9-.6 1.9-1.6 1.7-1.7-.2-.1-1.3.7-1.8 1.1V12.8c.1-.2.2-.6-.1-.9-.3-.3-.6-.2-.8-.1.2-.2.4-.5.6-.6s.4 0 .6.2l.4.2c.3.1.5-.2.7-.5.4-.4.7-.8 1.1-.7.1 0 .2.1.2.3 0 .1.1.3.3.4l.6-.1zm-6-2.5h.2l.3-.3c.1-.2.5-.7.7-.7l.2.2.5.3.6-.4c.2-.2.7-.6.9-.6.3.1.3.2.4.3l.3.3.5-.1c.5-.2.9-.3 1.2.1l.1.2c-.1.3-.5.6-.8.7l-.2.2v.2c.1.2.2.4.2.6-.8-.1-1.4.5-1.7 1l-.2.2-.1-.1c-.2-.1-.4-.3-.7-.3 0-.2-.1-.4-.4-.7.1-.1.3-.2.5-.3.5-.3 1.1-.7 1.1-.8-.1-.1-.8.1-1.4.4-.3.1-.5.3-.7.4-.5-.2-1.1.1-1.5.3l-.3.1c-.1-.2-.2-.4-.4-.6.5-.1.7-.3.7-.6m-2.5-1.8l.6-.4c.3-.3.6-.7 1-.7.2 0 .4.1.5.3l.2.4c0 .3-.3.6-.6.8l-.4.5c0 .3.2.4.3.5.2.1.2.2.2.4 0 .1-.2.4-.6.6l-.1.1c-.2.1-.4.2-.7.4l-.2.3c0 .2.1.3.1.4.1.1.2.2.1.4s-.4.5-.6.6h-.4v-.2c0-.4-.1-.9-.5-1.1-.2-.1-.4-.1-.6 0 .1-.2.3-.3.4-.5.5-.5 1-1.1.9-1.2-.1-.2-.8.3-1.4.8-.2.2-.4.5-.6.7 0-.4-.1-.8-.3-1.2v-.1c0-.1-.1-.3-.2-.5.2-.2.4-.2.5-.1h.2c.3 0 .3-.2.5-.5.1-.4.4-1 .8-1.2h.2l.2.3c0-.1.2.2.5.2M30.6 2l.4.2c.3.1.4-.2.6-.4.3-.4.6-.8 1-.7.3.1.4.4.3 1 0 .2-.1.4.1.6l.3.1c.2 0 .4.1.6.4.2.3-.5.9-.9 1.1-.1.1-.2.2-.1.3 0 .1.2.2.3.2l.1.1v.3h-.4c-.7.3-1 1.1-1.1 1.6v.1c-.2 0-.4-.1-.7.1.2-.3.3-.7.3-1.1v-.3c-.1-.3-.4-.4-.6-.5.3-.3.6-.8.6-1.4 0-.3-.1-.7-.3-1-.2-.3-.5-.3-.7-.2v-.3-.5l.2.3m-.3.9v.2-.2m-3.6 2.6c.1-.2.4-.2.7-.3l.3-.2c.1-.2 0-.4-.2-.9s-.6-1.2-.3-1.4c.1-.1.2 0 .4 0h.6c.2-.1.2-.3.4-.7.1-.4.3-1.1.6-1 .2 0 .4.1.5.3.3.4.2 1.1.1 1.4l.1.4c.2.2.4 0 .5 0l.3-.1c.5.7.1 1.4-.4 2-.1.2-.3.3-.2.5.1.2.3.2.5.2s.4 0 .4.1c.1.2-.2.9-.6 1.5-.1.1-.3.1-.4.2-.3.1-.8.3-1.2.7.1-.4.3-1.4.4-2.2s.1-1.5-.1-1.5c-.1 0-.2.8-.4 1.6s-.4 1.7-.5 2h-.5c.1-.3.4-.8.4-1.3 0-.4-.2-.9-.7-1.2-.3-.2-.5-.1-.7 0v-.1m-.9.8l.4.4c.2.1.4-.1.5-.2l.2-.2c.6.4.5.9.1 1.7l-.1.5c.1.5.6.5 1 .5h.4c-.1.2-.2.4-.3.7-.3.1-.5.2-.6.4-.2.3-.3.6-.3.9-.2-.2-.5-.4-.8-.4-.1-.2-.2-.5-.2-.8-.2-.8-.4-1.7-.6-1.6-.1 0-.1.9 0 1.7 0 .3.1.6.2.8-.2.1-.3.2-.4.3-.1-.2-.2-.3-.3-.5l-.3-.2c-.1-.2-.2-.4-.3-.5.2-.1.2-.2.2-.3 0-.2-.1-.3-.3-.5-.5-.6-.7-1-.7-1.1.1-.2.1-.2.3-.1.1 0 .4.1.5-.1.2-.1.1-.4.1-.7-.1-.5-.1-1.1.2-1.2.4-.4.9.2 1.1.5M21 3.1c0-.2.1-.2.4-.2.2 0 .4 0 .5-.2s.1-.3-.1-.7-.5-1.2-.1-1.3c.4-.2 1 .6 1.3.9l.3.3c.1 0 .3.1.5-.2.1-.1.1-.2.4-.1.3.1.4 1 .3 1.6 0 .1.1.3.2.3l.4-.1.3-.2c.1.2 0 1.2-.1 1.8-.2-.1-.5-.2-.8-.1-.2.1-.3.2-.4.3-.3-.2-.6-.2-.8-.1 0-.7-.1-1.9-1.1-2-.4-.1-.7.3-.9.5-.2-.1-.3-.3-.3-.5m-2.5 3.3c0-.2.2-.3.5-.4.2-.1.3-.1.4-.3l-.1-.5c-.3-.6-.6-1.3-.2-1.6.6-.4 1-.1 1.6.6.2.2.3.4.5.4.3 0 .4-.2.5-.5.1-.2.3-.5.4-.4.5.1.6 1.2.6 1.6 0 .3 0 .5.2.6s.3 0 .4-.1.3-.2.6 0v1.1c-.3 0-.6 0-.9.5l-.1.3c0 .3.2.7.5 1-.2-.1-.4-.2-.6-.2-.1-.2-.2-.7-.5-1.2-.2-.4-1-1.3-1.2-1.1s.4.9.6 1.2.3.5.4.7c-.2-.1-.5-.2-.8-.1-.5.2-.4.7-.3 1-.8-.1-.9-.2-.9-.3l.2-.3.4-.6c0-.3-.3-.4-.7-.6-1 0-1.5-.2-1.5-.8M17 8.6c.5-.5 1-.2 1.6.1l.5.2h.1c.1.5.7.7 1.4.8-.2.4-.3 1.1.3 2.1-.1.2-.2.4-.1.6.1.4.6.9 1.1 1.1.7.3 1.4.3 2 .1h.1l.1-.1h.1c0 .4.2.7.4.9-.1.1-.2.3-.3.4-.2-.1-.4-.1-.7-.1-.5-.6-1.1-.5-1.4-.3-.2-.3-.5-.9-.9-1.1h-.6l-.3.2c-.3-.6-.7-.9-1.1-1.1h-.1c0-.2.1-.4 0-.6-.1-.4-.5-.4-.8-.4-.7 0-.9-.1-.9-.5l.1-.3.2-.6-.3-.6c-.6-.3-.7-.6-.5-.8M11 11.2c0-.1.3-.2.4-.3l.4-.2c.1-.2.1-.4 0-.7-.1-.7-.2-1.1.2-1.3.2-.1.3.1.6.4l.5.4c.4.1.5-.3.7-.5l.2-.4c.2 0 .4.8.4 1.1.1.4.1.7.4.8s.5-.2.7-.3l.2-.2c.2.1.3.6.3 1s0 .7.2.8c.1.1.4.2.8-.1.3.3.9.4 1.2.4h.3c0 .2-.1.3-.1.4-1.1-.4-1.9-.2-2.4-.1h-.4l-.6.2v.1c-.3-.2-.7-.6-1-1-.5-.6-.7-1.4-.9-1.3-.4.1.1 1.1.4 1.5.4.6 1.1 1.2 1.6 1.5 0 .3 0 .5.1.8-.4.1-.5.5-.6.7h-.1c-.1-.1-.2-.4-.2-.6-.1-.3-.1-.6-.3-.7-.3-.2-.6-.1-1 .1l-.4.1-.2-.2v-.1c-.2-.2-.4-.6-.4-.6.1-.1.5-.3.6-.3s.3-.1.3-.2c.1-.3-.1-.4-.4-.5-1.3-.2-1.5-.5-1.5-.7m-.3 5.9c-.4.2-.6.2-.7.1l-.1-.2c0-.2.3-.4.3-.4l.1-.3-.3-.2c-.3 0-1.1-.3-1.3-.7-.1-.2-.1-.4 0-.6.2-.4.4-.4.9-.2h.4c.2-.1.2-.4.2-.5 0-.3 0-.5.1-.5.3-.1.8.1 1.1.4l.5.6.2.3c.3.2.6.1.9 0l.4-.1.1.3c0 .2.1.4.2.6-.3.1-.6.3-.7.8v.3c0 .6.6 1 .8 1.1h.1V18.2c-.1.1-.2.2-.3.2-.3 0-.8 0-1.1.5l-.4-.4c.2-.3.5-.8.2-1.1-.4-.7-1.1-.5-1.6-.3m-.8 4.8l-.5.2c-.4.3-.7.4-1.1.1-.1-.1-.1-.2.1-.5.1-.1.3-.4.1-.6l-.5-.2c-.7-.2-1.1-.4-1-.8 0-.2.1-.3.1-.3.2-.1.5 0 .8 0h.6c.3-.2.2-.5.2-.7-.1-.5 0-.5.1-.5.4-.1.8.3 1.1.6.2.2.4.3.6.3.3 0 .3-.3.3-.4.1-.2.1-.3.2-.3.2 0 .8.4 1.2 1l.1.1.1.3.2.5c-.3-.1-.6-.2-.9-.2-.6-.1-2.6 0-2.6.3 0 .2 1.7.2 2.3.3.1 0 .3 0 .4.1-.2.2-.3.5-.3.8v.5h-.1c-.4-.2-.9-.6-1.5-.3v-.3m3.7 3l-.1.3-.1-.1-.2-.1-.4.2c-.3.2-1.1.9-1.4.6-.1-.1-.1-.2-.2-.5l-.2-.5-.6-.1c-.6 0-.8 0-1-.4V24c.1-.1.3-.2.5-.3l.5-.3v-1.1c.2-.1.5 0 .9.3.3.2.6.4.8.2.2-.2.2-.5.2-.9v-.5c.2-.1.7-.2 1 0 .3.3.5.4.7.5-.1.3 0 .8.3 1.1.1.1.3.2.6.3-.2.1-.3.3-.3.4v.1l.1.3c-.2.2-.7.3-1.1.8m5 1.7c-.1-.2-.2-.4-.4-.5-.1 0-.2 0-.4.1-.3.2-.4.5-.5.9-.2.5-.4 1-1 1.1-.3.1-.3 0-.3-.2s-.2-.6-.6-.6l-.8.3c-.3.1-1 .5-1.1.4-.3-.4 0-.8.5-1.3l.3-.3c.1-.3 0-.5-.1-.6-.2-.2-.2-.3 0-.6.3-.4.6-.4 1-.3.2 0 .4.1.6-.1l.1-.2c0-.2-.2-.4-.2-.4l-.2-.2.1-.1c.5-.3 1.2.1 1.5.3.1.1.2.1.4.1l.2-.2c.1-.2 0-.3-.1-.5l-.2-.4.4-.1h.4c-.1.1-.2.3-.2.5l.1.2c.1.2.3.3.5.4-.8.2-1.2.5-1.8 1-.3.3-1 .9-1 1 0 .2 2-1 2.8-1.3.2-.1.7-.2 1-.3v.1c-.4.9-.7 1.6-1 1.8m-.1-3l.2-.2.2-.5c0-.3-.3-.3-.6-.3h-.5c-.5 0-.9-.2-1-.6l.2-.1c.2-.1.4-.4.2-.7l-.5-.2c-.6-.1-.7-.2-.7-.5l.2-.2c.2-.1.4-.2.4-.5l-.3-.5c-.4-.3-.5-.6-.3-.9l.2-.2c.3-.1.8.3 1 .4l.2.1c.3.1.5-.2.6-.4l.1-.2c.6.2.8.8.8 1.1 0 .2.1.3.3.3.1 0 .3-.1.3-.2.1-.2.2-.5.3-.6.2.2.6.9.6 1.8 0 .2.1.3.2.3s.3 0 .4-.2l.2-.3c.1.1.4.6.5 1.8v.2c-.1.1-.6-.1-1.1-.5h-.1c-.3-.2-.7-.5-1.1-.8 0 0-1-.7-1.1-.5s.8 1 .8 1c.4.3.8.6 1.2.8l.1.1c.4.4.7.8.7.9-1.6.7-2.4.7-2.6.3M18 40.9c-.7 0-1-.3-1-.3h-.4s-.2.3-.9.3-1.2-.2-1.5-.7c-.2-.3-.3-1 0-1.6.3-.5.8-.7 1.5-.7.6 0 1.3.3 1.6.7l1.3 1.9.2.2c-.3.1-.5.2-.8.2m9.1 0c-.6 0-.9-.3-.9-.3h-.4s-.2.3-.8.3c-.5 0-1.1-.3-1.4-.7l-1.3-1.9-.2-.2c.1-.1.4-.1.6-.1.6 0 .9.3 1 .3l.4-.1s.2-.3.8-.3c.5 0 1.1.3 1.4.7l1.3 1.9.2.2c-.2.1-.4.2-.7.2m-2.8-3.5c-.2.1-.4.2-.5.2-.2-.1-.6-.3-1.1-.3h-.1c.6-.3 1.3-.3 1.7-.3v.4M28.3 37.6c-.2-.1-.6-.3-1.1-.3h-.4c.2-.3.5-.7.9-.7.2 0 .3.1.4.2.2.2.3.5.3.7l-.1.1m7.9 3.3c-.6 0-.9-.3-.9-.3-.1-.1-.3-.1-.4 0 0 0-.2.3-.8.3-.5 0-1.1-.3-1.4-.7l-1.3-1.9-.2-.2c.2-.1.4-.1.7-.1.6 0 .9.3 1 .3.1.1.3.1.4-.1 0 0 .2-.3.8-.3.5 0 1.1.3 1.4.7l1.3 1.9.2.2c-.2.1-.5.2-.8.2m-5.6-14.6c-1.6 2.5-.8 6.3-.4 7l.1.1c.4.7.9 1.7 3.2 2.6l.3.1c1.5.6 2 .9 2.3 1.2-.4.1-.7.2-.9.3-.3-.2-.7-.3-1.1-.3-.2 0-.4 0-.6.1-.1-.2-.1-.3-.2-.4-.4-.7-1-1-1.6-1.2-.8-.3-1.6-.7-2.1-2-.3-.7-.4-1.6-.4-2.5 0-.6-.2-2.6-.4-2.5-.2 0-.3 2-.2 2.6.1.9.2 1.9.5 2.7.6 1.6 1.6 2 2.5 2.3.6.3 1.1.5 1.3 1.1v.1c-.2-.1-.5-.2-1-.2-.6 0-1 .2-1.2.3-.4-.2-.8-.3-1.2-.3h-.4c0-.3-.2-.7-.4-1-.2-.2-.5-.4-.9-.4-.7 0-1.3.6-1.6 1.5v.1c-.3-.2-.7-.3-1.1-.3v-.5c0-.2.1-.5.2-.7s.2-.4.4-.7c.7-1.3.8-2.4.6-2.5-.2 0-.8 1.5-1.2 2.1-.1.2-.3.5-.4.7s-.2.5-.2.7c-.7-.1-2.2-.1-2.9 1.1-.3-.2-.7-.3-1.1-.3-.6 0-.9.2-1.1.3h-.1c.8-.6 2.1-1.2 3.1-1.7l.5-.3c1.4-.7 2.3-2.2 2.6-4.1 0-.2 0-.2-1.1-1.9-.5-.8-1.1-1.7-1.2-2-.2-.5-1.5-2.6-3.1-3.2.3-.1.6-.2 1-.3.2-.1.3-.2.4-.4v-.1c0-.2-.1-.3-.2-.5.2 0 .4.1.6 0s.4-.3.3-.7c0-.3 0-.6-.1-.9.2 0 .9.5.8 2.4-.1 2.8 2.8 4.8 3 4.8l.3-.1c.2-.2.3-.7.3-1.3 0-.7-.1-1.6-.3-2.4-.5-2.8-2.2-3.3-2.8-3.5l-.2-.1c.3-.2.6-.5.7-.9l.1.1c.5.2 1.1 0 1.5-.2v.1c0 .6 0 1.7.7 3l.9 1.5.5.8c.1.1.2.2.3.1.5-.1.9-2.8.9-2.9v-.4c0-.6-.1-1.5-.4-2.3l.1.1c.2 0 .3 0 .4-.2.1-.5.3-.9.3-1.3v.3l.1.7c.2.2.4.1 1-.2.2-.1.4-.2.7-.3-.4.5-.7 1.1-1 1.9-.3.7-.3 1.6-.4 2.3 0 .5 0 1-.2 1.3v.1l.2.3c.1.1.3 0 .4-.1.3-.5 1.1-1.5 1.8-2.2-.1.3-.3.6-.3.8v.1l.1.3h.3s.5-.2 1.2-.2c-.2.4-1.5 1-2.5 2.5m2-2.9c.1-.3.3-.8.5-1.1.1-.2.3-.3.7-.5.1-.1.9-.5.8-.7s-1 .1-1.1.2c-.4.2-.9.5-.9.5-.3.2-.6.4-.9.7-.1-.2-.1-.5.1-.8l.3-.2c.3-.1.5-.3.6-.7.4.1.8.1.9 0 .3-.1.3-.4.4-.6h.1c.5.1 1.4.4 2.1-.2.1-.1.2-.3.2-.4l-.1-.2h.6v.2c0 .1-.1.2-.3.4l-.4.4v.2c0 .2.1.3.2.4.1.1.1.2.1.3v.1c0 .4-.4.5-1.1.6l-.6.2-.1.3c0 .2.2.4.2.4l.1.2-.1.1c-.1.1-.6.2-.9.2l-.4.1c-.4-.2-.7-.2-1-.1m7.7 4c-.2.2-.4.2-.8.1l-.3-.1c-.2 0-.3.1-.4.3-.1.1-.2.2-.4.2s-.6-.3-.8-.5l-.4-.3c-.3 0-.4.2-.4.3-.1.1-.1.2-.4.2s-.6-.8-.8-1.2c-.2-.4-.2-.6-.4-.6-.3-.1-.4.1-.5.2-.2-.2-.4-1.1-.5-1.8.5.2 1.2.5 1.6.8.3.3 1 .8 1.2.6s-.4-.9-.8-1.1c-.4-.3-.8-.6-1.2-.8 1.2-.4 2-.3 2.1-.3v.4c0 .3.3.3 1 .4.3 0 .9.1 1 .2l-.1.2c-.1.1-.1.2-.1.4v.2c.1.2.3.3.7.4.2.1.6.2.6.3l-.1.1c-.1.1-.2.3-.2.5v.1l.3.4.3.3-.2.1m-1-2.5zm3-.6c-.1.1-.2.2-.5.1l-.6.1-.2.4c0 .2 0 .2-.1.2-.1.1-.4.1-.6 0h-.2c-.2-.1-.3-.1-.5-.2l-.2-.1c.1-.1.1-.3.1-.5l-.1-.4c-.2-.3-.7-.3-1.5-.4 0 0-.2 0-.4-.1v-.2c0-.2-.1-.3-.2-.5-.3-.2-.9-.3-1.8-.1l-.2-.4h.1c.4 0 .9-.1 1.3-.4 1 .5 2.1.5 2.7.2l.1-.1c.1.1.2.3.4.3h.7c.2 0 .7-.1.8-.1.3.2.2.3.1.5l-.1.5c.1.2.2.3.4.3.5.5.6.6.5.9m.9-.7l.2.1-.2-.1m2.2-.8zm1.1-.9c0 .2-.1.3-.2.4-.2.2-.6.1-.9 0h-.5c-.2.1-.2.3-.2.5s-.1.5-.2.5c-.2.1-.7-.1-.9-.2-.3-.1-.5-.2-.7-.1l-.1.3-.1.2c-.2-.2-.5-.4-.6-.4 0-.1.1-.3.1-.5s-.1-.5-.4-.8-.9-.2-1.3-.1l-.4.1s-.1-.2-.2-.3c.2 0 .3-.1.4-.1h.4c.6 0 2.7.3 2.7.1s-1.3-.5-2.2-.6c.5-.4.6-.9.7-1.1v-.1l.1-.1c.1 0 .1.1.2.4 0 .2.1.3.3.4.2.1.3 0 .6-.2s1.2-.7 1.5-.4c.2.2.2.4.1.6-.1.3-.1.5.1.6l.3.1c1.2 0 1.5.3 1.4.8"/><path id="XMLID_229_" class="st1" d="M327.7 94.5c0 10.8 8 19.2 18.2 19.2 10.4 0 19.3-8.8 19.3-19.2 0-9.3-7-18.9-18.7-18.9-10.1 0-18.8 8.9-18.8 18.9m6.2-3c0-6.4 3.7-12.9 10.7-12.9 8.8 0 14.1 9.9 14.1 19.4 0 6.1-4 12.8-10.6 12.8-8.8 0-14.2-9.8-14.2-19.3m-11.7-16.1h-1.1l-.1.1c-.2.2-.5.7-2.4.8l-7.1.1h-10l-7.8-.1c-1.9-.1-2.2-.5-2.4-.8l-.1-.1h-1.3l-.1.2c-.2.4-2.6 6.9-2.7 7.3l-.1.2 1.7 1 .1-.3c1.1-3 2.3-4.5 8.5-4.5 2 0 3.7.1 4.8.3.4 5 .4 9.8.4 13.4 0 3.5-.1 13.8-.5 16-.1.8-.4 1.3-3.4 1.9l-2.2.3-.9.1.4 2 2.9-.2h.8l5.7-.2H309.4l2.4.1 2.6.1v-.3l.2-1.8-1.6-.2h-.4c-1.5-.2-2.6-.6-3-1-.4-.5-1.1-2.8-1.1-13.5l.2-7.6.2-8.6c0-.7 0-.8 3.3-.8h2.4c5.7 0 6.2 1.2 7.2 4l.3.9 1.6-1-.4-2c-.5-2.9-1-5.3-1.2-5.6l-.1-.2h.2zm-52.1.5s2.9.2 3.7.3c.9.1 3.6.1 7.4.1h.3v2h-.3c-2 0-4 .4-4.3 2.9-.2 1.4-.5 13-.5 17.9 0 3.3 0 11 .2 14v.3h-2.3l-.1-.1-25.3-27.6c0 .9-.1 2.2-.1 2.2l-.2 15.2c-.1 6-.1 6.8 6.6 8h.2v2.1l-2.7-.2-3.9-.2-8.2.4v-1.9l2.3-.5c1.3-.3 2-.4 2.3-2.5s.5-9.3.5-11.7l.1-6.4c.2-10.4-.6-11-5.5-11.9h-.2v-2.1l2.5.2 2.6.1 3.9-.1.1.1s24 26.1 24.4 26.6c0-1-.1-9.9-.1-9.9-.2-14.7.9-14.8-5.9-15.2h-.3l.4-1.8c.2-.3 2.4-.3 2.4-.3m-54.9-.3c11.7 0 18.7 9.6 18.7 18.9 0 10.4-8.8 19.2-19.3 19.2-10.2 0-18.2-8.5-18.2-19.2.1-10 8.8-18.9 18.8-18.9m1.9 35.2c6.5 0 10.6-6.6 10.6-12.8 0-9.6-5.3-19.4-14.1-19.4-7.1 0-10.8 6.5-10.8 12.9 0 9.5 5.3 19.3 14.3 19.3m-43.8-34.9c7.4 0 12.6 4.1 12.6 10 0 4.8-4 8.1-7.9 9.2 7.1 10.5 8.4 12.1 11.3 14.8.1.1 2.3 2.3 5.2 2.5h.3l-.1 1.9h-.3c-6.2 0-9.3-2.4-11-3.8-5.4-4.3-10.7-12.8-11.7-14.6-.3 0-3.7-.1-4.3-.2V102.3c0 2.5.1 6.1.6 7.2.4.7 3.2 1.6 4.7 2l.2.1.1 1.9-.4-.1c-2.1-.4-5.5-.6-7.8-.6-1.2 0-6.7.3-7.9.4h-.2l-.4-1.7.3-.1c.7-.1 3.6-.9 4.3-2.2.5-1.2.5-7.6.5-10.4v-9.5c0-11-.4-11.1-4.7-11.3h-.3l.1-2.2h.5l3.2.2 3.3.1c.8 0 2.9-.2 4.9-.4l4.9.2zm-5.7 17.3c1 .1 2.6.1 3.5.1 3.2 0 8.5-.9 8.5-6.9 0-3.2-2.2-7.9-8.4-7.9-3.4 0-3.4.1-3.5 6.3 0 0-.1 7.8-.1 8.4m-36.4-17.6c11.7 0 18.7 9.6 18.7 18.9 0 10.4-8.8 19.2-19.2 19.2-10.2 0-18.2-8.5-18.2-19.2 0-10 8.7-18.9 18.7-18.9m1.9 35.2c6.5 0 10.6-6.6 10.6-12.8 0-9.6-5.3-19.4-14.1-19.4-7.1 0-10.7 6.5-10.7 12.9-.1 9.5 5.2 19.3 14.2 19.3M107 75.4h-1.1l-.1.1c-.2.2-.5.7-2.4.8l-7.1.1h-10l-7.8-.1c-1.9-.1-2.2-.5-2.4-.8l-.1-.1h-1.3l-.1.2c-.2.4-2.6 6.9-2.7 7.3v.2l1.6 1 .1-.3c1.1-3 2.3-4.5 8.5-4.5 2 0 3.7.1 4.8.3.4 5 .4 9.8.4 13.4 0 3.5-.1 13.8-.4 16-.1.8-.4 1.3-3.4 1.9l-2.2.3-.9.1.4 2 2.9-.2h.8l5.7-.2H94.3l2.4.1 2.5.1v-.3l.2-1.8-1.6-.2h-.4c-1.5-.2-2.6-.6-3-1-.4-.5-1.1-2.8-1.1-13.5l.2-7.6.2-8.6c0-.7 0-.8 3.3-.8h2.4c5.8 0 6.2 1.2 7.2 4l.3.9 1.6-1-.4-2c-.6-2.9-1-5.3-1.2-5.6l-.1-.2h.2z"/><path id="XMLID_244_" class="st1" d="M331.7 44.7c-2.4.2-2.9.2-5.6.2h-2.8l-2.9-.1-1 .1-.7.1v.6h.1c.7 0 1.4.1 1.7.5.4.6.5 1.2.5 6.7 0 2.6-.2 5.5-.3 5.9-.1.6-1 .8-1.7.9h-.1l-.1.8h.2c1.6-.1 3.4-.1 3.8-.1h1.4l2.6.1v-.9h-.2c-1.9-.2-2.5-.5-2.7-.7s-.3-1.2-.3-2.1v-.9s.1-2.3.1-2.8c.2 0 1.3-.1 1.3-.1 1.5 0 3.3.3 3.8.5.2.1.5.6.6 1.3v.1h.8v-.1c.1-1.6.1-3.2.1-4.4v-.1h-.9v.1c-.2 1.1-.3 1.6-3.5 1.6-1 0-1.3 0-2.2-.1h-.1v-.9-1.1s.1-3.2.1-3.7c.9-.1 1.7-.1 2-.1 1.8 0 3.4.3 4 .8.5.4.7 1 .9 1.5v.1l.9-.1v-.1c0-.2 0-1.1.1-1.8l.1-1.7zm-24.9-.1c5.4 0 8.6 4 8.6 8 0 4.4-4.1 8.1-8.9 8.1-4.7 0-8.4-3.6-8.4-8.1 0-4.3 4-8 8.7-8m.8 14.8c3 0 4.9-2.8 4.9-5.4 0-4-2.4-8.2-6.5-8.2-3.3 0-5 2.7-5 5.5 0 4 2.5 8.1 6.6 8.1m-30.7-14.5v.8h.2c.8 0 2 .1 2 .7 0 .2-.4 1.1-3.5 5.3-1.3-1.5-4.3-5.1-4.3-5.6 0-.2 0-.4 1.9-.4h.1v-.9h-1.6l-3 .1h-3.3V45.7h.1c.8 0 1.3.1 1.7.4 1 .7 4.5 4.9 4.6 5.1 0 0 1.4 1.7 1.5 1.9.1 1.1.2 2.3.2 3.8 0 2.3 0 2.8-2.3 2.9h-.1l-.1.8h.1c.3 0 1.4-.1 2.4-.1l1.7-.1 1.3.1h.3l1.8.1v-.9h-.1c-2.2-.2-2.3-.5-2.3-.9v-.2c0-1-.1-2-.1-3.2v-2.8l3.2-4.6c1-1.5.8-2.3 3-2.3h.1v-.9h-.1c-.3 0-.4 0-1.1.1l-1.1.1-1.3-.1-.9-.1h-1.3l.3.1zm-14.5-.5h-.5v.1c-.1.1-.2.3-1.1.3h-11.5c-.9 0-1-.2-1.1-.3v-.1h-.6v.1c-.1.2-1.2 2.9-1.2 3.1v.1l.8.4.1-.1c.5-1.3 1.1-1.9 3.9-1.9.9 0 1.7.1 2.2.1.2 2.1.2 4.1.2 5.7 0 1.5-.1 5.8-.2 6.7-.1.3-.2.6-1.6.8l-1 .1h-.4l.2.9 1.4-.1h.4l2.6-.1h4.2v-.1l.1-.8-.7-.1h-.2c-.7-.1-1.2-.2-1.4-.4-.2-.2-.5-1.2-.5-5.7l.1-3.2.1-3.6c0-.3 0-.3 1.5-.3h1.2c2.7 0 2.9.5 3.3 1.7l.1.4.8-.4-.2-.8c-.3-1.2-.5-2.2-.5-2.4v-.1h-.5zm-27.5.5v.8h.1c2.1.1 2.5.5 2.7.9.3.7.4 5.1.4 6.7v.3c0 1.3 0 4.5-.4 5.2-.1.2-.7.7-2.8.8h-.1v.8l2.6-.1h2.4l4 .1V59.6h-.1c-1.7 0-2.3 0-2.5-.7-.1-.3-.2-1.8-.2-4.4 0-6 0-7.6.4-8.2.4-.7 2-.6 2.4-.5h.2v-.9h-1.9l-2.8.1-1.8-.1h-2.6zm-14.5 4.2c0 2.6 2.4 3.6 4.1 4.2l.2.1c3 1.1 4.4 1.7 4.4 3.6 0 1.1-.9 2.4-2.9 2.4-1.8 0-3.1-.7-3.8-1.3-.9-.7-1.2-1.8-1.3-2.2v-.1h-1v.2c.5 1.7.7 2.5.7 4.4v.1l.8.1v-.1c0-.1.2-.4.4-.4s.8.1 1 .2h.1l.2.1c.4.1 1 .3 2 .3 4 0 6.2-2.3 6.2-4.5 0-3-3.2-4.2-5.3-5-2-.7-3.5-1.4-3.5-2.9s1.2-2.5 3.1-2.5c1.7 0 2.8.9 3.1 1.2.7.6.8 1.3 1 1.9v.1H230.7l-.2-2c0-.7.2-1.5.2-1.8v-.1l-.7-.1-.5.3c-1.5-.4-2.3-.5-3.3-.5-3.4-.2-5.8 1.7-5.8 4.3m-11.6-4.4c3.4 0 5.8 1.7 5.8 4.2 0 2-1.9 3.4-3.7 3.9 3.3 4.4 3.9 5.1 5.2 6.2 0 0 1.1 1 2.4 1.1h.1l-.1.8h-.1c-2.9 0-4.3-1-5.1-1.6-2.5-1.8-5-5.4-5.4-6.2-.1 0-1.7-.1-2-.1v2.8c0 1.1 0 2.6.3 3 .2.3 1.5.7 2.2.9h.1l.1.8h-.2c-1-.2-2.5-.3-3.6-.3-.6 0-3.1.1-3.6.2h-.1l-.2-.7h.1c.3-.1 1.7-.4 2-.9.2-.5.2-3.2.2-4.4V50.3c0-4.7-.2-4.7-2.2-4.8h-.1l.1-.9h.2l1.5.1h1.5c.4 0 1.3-.1 2.2-.2l2.4.2zm-2.7 7.2c.5.1 1.2.1 1.6.1 1.5 0 3.9-.4 3.9-2.9 0-1.3-1-3.3-3.9-3.3-1.6 0-1.6 0-1.6 2.6v3.5M196 44.7c-2 .1-5.2.2-7.3.2-1.3 0-4.5-.1-5.7-.1h-.1v.8h.1c1.4.2 1.5.3 1.6.6.2.4.3 1.8.3 6.5 0 2-.2 5.2-.4 6.2-.1.5-.8.7-1.9.8h-.1l.1.9h.1c2.2-.2 4.9-.2 6.5-.2l6.6.1.1-.1c.3-.5.9-1.3 1.2-3.8v-.1l-.8-.1v.1c-.6 1.4-1.7 2.9-5.7 2.9-1.4 0-2-.2-2.8-.5-.1-.4-.2-1.1-.2-3v-2.8c1.1-.1 2-.1 2.5-.1 3.2 0 3.5.2 3.9 2.1v.1h.8v-.1c0-2 0-2.5.1-4.7v-.1h-.9v.1c-.3 1.1-.6 1.4-1 1.4-2.4.3-4.6.2-5.2.2 0-.2-.1-2-.1-2 0-1 .1-2.5.3-3.6.9-.1 2.5-.3 3.2-.3 1.8 0 2.9.2 3.4.7.4.4.4 1 .4 1.6v.1l.9.1v-.1c0-.2.1-.8.2-1.2l.1-.6c.1-.8.1-1.2.1-1.6v-.4h-.3zm-35.6.2l.1.7h.1c2.2.3 2.3.3 4.1 3.7l3.7 7.1v.1c.6 1.2 1.6 3.1 1.9 4.2v.1h.8v-.1c.6-1.5 1-2.6 2.3-5l4-7.4c.9-1.7 1.3-2.2 3.1-2.5h.1V45h-3.1l-3.1-.1v.9h.1c.8 0 1.9.1 1.9.9 0 .5-.4 1.2-.6 1.7l-.1.1c-.8 1.7-1.3 2.7-1.9 3.7l-1.8 3.5s-.3.6-.4.9c-1.8-2.7-5.1-10-5.1-10.4 0-.2 0-.2 1.4-.4l.4-.1v-.9h-3.9c-.9 0-2.9 0-3.8-.1h-.2v.2zm-11.1 0v.8h.1c2.1.1 2.5.5 2.7.9.3.7.4 5.1.4 6.7v.3c0 1.3 0 4.5-.4 5.2-.1.2-.7.7-2.8.8h-.1v.8l2.6-.1h2.4l4 .1v-.1l-.1-.7h-.1c-1.7 0-2.3 0-2.5-.7-.1-.3-.2-1.8-.2-4.4 0-6 0-7.6.4-8.2.4-.7 2-.6 2.4-.5h.2v-.9h-1.9l-2.8.1-1.8-.1H149.3zm-8.2-.2s1.3.1 1.7.1h3.5v.8h-.1c-.9 0-1.8.2-2 1.2-.1.6-.2 5.5-.2 7.6 0 1.4 0 4.6.1 5.9v.1H143v-.1l-11.7-11.6v.9l-.1 6.4c0 2.5 0 2.8 3.1 3.4h.1v.9l-1.3-.1-1.8-.1-3.8.2v-.7l1.1-.2c.6-.1.9-.2 1.1-1.1.1-.9.2-3.9.2-4.9v-2.7c.1-4.4-.3-4.6-2.5-5h-.1v-.9l1.2.1h3s11.1 11 11.3 11.2v-4.2c-.1-6.2.4-6.3-2.7-6.4h-.2l.2-.8h1m-27.9.1h.1v.9h-.1c-2.5.2-2.7.2-2.7 5.6v2.9c0 1.7 0 5.2 4.6 5.2 5.1 0 5.5-3.1 5.5-8.3v-1.4c0-1-.1-3.1-.7-3.6-.4-.3-1.2-.4-2-.4h-.1v-.9h1l2.2.1 2.9-.1h.4l-.1.9h-.1c-1.9.1-1.9.6-2 1.6V49.6c-.1 7.4-.5 11-7.6 11-4.5 0-6.8-1.8-6.8-5.3l.2-5.1c0-2.4-.2-4.1-.6-4.3-.2-.2-.6-.2-1.7-.2h-.1l-.1-.9h.1c.3 0 2.6-.1 3.7-.1h.9c1.1.1 2.5.1 3.1.1"/><path id="XMLID_258_" class="st1" d="M53.7 99.8l-.8-1.7-1.1-2.2c-.8-1.6-2.1-2.6-3.7-2.7 3.5-6.1 6-13.6 6-22.2V44c0-.2-.1-.3-.3-.3H.5c-.2 0-.3.1-.3.3v27c0 8.6 2.5 16 6 22.2-1.6.2-2.9 1.1-3.7 2.7l-1.1 2.2-.8 1.7c-.7 1.4-1.4 4.4 1.4 8 2.3 2.9 7.2 6.1 13.1 8.4l.3.1 1.5.6c-.5.5-1.2 1-1.7 1.5l-.5.4-.3.3-.1.1c-.5.5-.8 1.2-.8 2.2v5.2c0 2.1 3 2.9 5.7 2.9H35c2.8 0 5.7-.8 5.7-2.9v-5.2c0-1.1-.3-1.7-.8-2.2l-.1-.1-.2-.4-.5-.4c-.5-.4-1.2-1-1.7-1.5l1.5-.6.3-.1c5.9-2.3 10.8-5.5 13.1-8.4 2.9-3.5 2.1-6.5 1.4-7.9M.8 65.1h52.8v6c0 26.7-24.8 41.9-26.4 42.8C25.6 112.9.8 97.8.8 71.1v-6zm49.5 30.1c.7 1.1.7 2.6 0 4.2-.1.3-.3.5-.4.8L48 97.4l-.3-.1-.2.2c-.2.5-.6.9-1.2 1.2-.6.2-1.2.3-1.8.1 1.2-1.6 2.3-3.2 3.3-5h.3c.9.1 1.7.6 2.2 1.4m-16.9 26.6l.3.3H20.8l.3-.3c.7-.7 1.4-1.3 1.4-2.9v-3.7c0-3.6-3.1-5-6.7-6.7-1.2-.6-2.5-1.2-3.8-1.9-1.2-.7-2.8-1.7-4.3-3l2.8-4.1c7.5 9.7 16.4 14.9 16.5 14.9h.3c.2-.1 9-5.3 16.5-14.9l2.8 4.1c-1.5 1.3-3.1 2.3-4.3 3-1.3.7-2.6 1.3-3.8 1.9-3.6 1.6-6.7 3.1-6.7 6.6v3.7c.2 1.7.8 2.3 1.6 3M7.2 103.3c-.9-.8-1.7-1.6-2.3-2.5.4-.5 1.4-2.1 1.8-2.6.3.4.7.8 1.2 1.1.6.3 1.3.3 1.9.2l-2.6 3.8zm37.4-3.8c.6.1 1.3.1 1.9-.2.6-.2 1-.6 1.2-1.1.3.5 1.4 2.1 1.8 2.6-.6.9-1.4 1.7-2.3 2.5l-2.6-3.8zM.8 44.3h52.8v20.1H.8V44.3zm3.4 50.9c.5-.8 1.3-1.3 2.1-1.4h.3c1.1 1.8 2.2 3.5 3.3 5-.5.2-1.2.2-1.8-.1-.6-.2-1-.7-1.2-1.2l-.3-.2-.3.1-1.9 2.8c-.2-.3-.3-.5-.4-.8-.5-1.5-.5-3 .2-4.2m11.6 20.5l-.3-.1c-5.8-2.3-10.6-5.4-12.8-8.2-2.5-3.2-2.1-5.7-1.4-7.3l.8-1.7 1-2.2c-.2.9-.2 2.1.4 3.5 1.2 2.8 5.1 5.8 8.2 7.5 1.3.7 2.6 1.3 3.9 1.9 3.5 1.6 6.3 2.9 6.3 6.1v3.7c0 .4 0 .7-.1.9-.1-.4-.3-.8-.5-1.1-1.3-1.3-3.2-2.1-5.5-3m-1.1 4c.2-.2.3-.4.5-.5l.5-.4c.6-.5 1.4-1.1 1.9-1.7 1.3.6 2.4 1.2 3.1 2 .6.6.6 1.6.2 2l-.3.3-.8.8h-.5c-2.6 0-4.3-.9-4.7-1.8 0-.2 0-.5.1-.7m25.5 1.2v5.7c0 1.7-2.8 2.3-5.1 2.3H19.3c-2.4 0-5.1-.6-5.1-2.3v-5.2-.5c.6 1 2.4 1.9 5.1 1.9h15.8c2.7 0 4.5-.9 5.1-1.9m-1.4-2.1l.5.4c.2.1.3.3.4.4v.1c.1.2.2.5.1.7-.4.9-2.1 1.8-4.7 1.8h-.5l-.8-.8-.3-.3c-.4-.4-.4-1.4.2-2 .7-.8 1.8-1.4 3.1-2 .5.6 1.3 1.2 2 1.7m13-11.4c-2.3 2.8-7.1 5.9-12.8 8.2l-.3.1c-2.3.9-4.3 1.7-5.5 3-.3.3-.5.7-.5 1.1-.1-.3-.1-.5-.1-.9v-3.7c0-3.2 2.8-4.5 6.3-6.1 1.3-.6 2.6-1.2 3.9-1.9 3-1.7 7-4.7 8.2-7.5.6-1.5.6-2.7.4-3.5v.1l1 2.2.8 1.7c.7 1.5 1.1 4-1.4 7.2"/><path id="XMLID_280_" class="st1" d="M10.1 107.9l.2-.3c-.4-.3-.9-.5-1.3-.9l-.2.4.3.2c-.4.9-.9 1.8-1.3 2.8l-.3-.2-.2.4c.7.5 1.4.9 2.2 1.3.2-.3.4-.5.6-.8l-.3-.3c-.2.2-.4.4-.6.5-.2-.1-.6-.3-.8-.5 0-.2 1-2.1 1.3-2.7l.4.1m-3.4.2c.2-.3.3-.6.5-1l-.3-.2-.2.2-.6-.4.6-1.2c.2.2.6.4.7.6.1.1-.1.4-.1.6l.3.2c.1-.3.3-.6.4-1-.7-.5-1.3-1-1.9-1.5l-.2.3.3.3c-.5 1-.9 1.7-1.4 2.7l-.3-.2-.2.3c.6.6 1.2 1.1 1.9 1.6.2-.3.4-.6.6-.8l-.3-.3-.4.5c-.1 0-.7-.5-.8-.6 0-.2.4-.9.6-1.2.2.1.4.3.5.5l-.1.3.4.3m11.4 3.5c-.9-.5-1.9-.9-2.9-1.4-.2.3-.3.6-.5.9l.4.2c.1-.2.3-.4.4-.5.2 0 .5.1.7.2-.4.9-.9 1.9-1.3 2.8-.1-.1-.3-.1-.4-.2l-.2.3c.5.2 1 .4 1.5.7l.2-.3c-.1-.1-.3-.1-.4-.2.4-.9.9-1.9 1.3-2.8.2.1.5.3.6.4-.1.2-.1.4-.2.6l.4.2c.1-.3.3-.6.4-.9m-3.3-1.6l-1.2-.6-.2.3c.1.1.3.2.4.2-.4.9-1.1 3-2.1 2.4-.7-.4-.4-1 0-1.8.2-.4.5-.9.7-1.4.1.1.3.1.4.2l.2-.3c-.4-.2-.9-.5-1.4-.7l-.2.3.3.2c0 .2-.3.7-.4.9-.5 1-.9 1.7-.5 2.4.1.2.3.3.4.4.3.2.6.3.8.3 1.1.1 1.6-1.4 2.2-2.7l.3.1.3-.2m-9.3-5.6l.2.2.2-.4c-.3-.3-.6-.6-1-.9l-.2.4.3.3c-.3.4-1.5 1.6-1.6 1.7 0-.1.4-2.7.5-3l.3.4.2-.3c-.3-.4-.7-.9-1-1.3l-.2.3.2.3c-.1.3-.6 3.7-.6 4 .1.2.2.3.3.4.7-.4 2.1-1.8 2.4-2.1m34.3 7.5c0-.6.1-1.1.1-1.7.2.5.4.9.6 1.3-.2.2-.5.3-.7.4m3-.4c0 .1.1.5.1.6-.1.1-.9.6-1.1.6-.2-.3-.3-.8-.5-1.1.2-.1.8-.4.9-.4l.2.3.4-.2c-.2-.4-.3-.7-.5-1.1l-.3.2.1.3c-.1.1-.7.4-.9.5-.2-.5-.4-.9-.6-1.3.3-.1.8-.4 1-.5.1.1.3.3.4.5l.3-.2c0-.1-.4-.7-.4-.9-.7.4-1.6.8-2.3 1.2l-.3 3.9-.3.2.1.3c.4-.2.8-.4 1.2-.5l-.1-.3c-.1.1-.3.1-.4.2v-1.4c.3-.1.7-.3 1-.5.2.3.3.8.5 1.1l-.4.2.2.3c.8-.4 1.7-.8 2.5-1.2l-.3-.9c-.2 0-.3.1-.5.1m2.8-4.5l.3-.2-.2-.3c-.4.3-.8.5-1.1.8l.2.3.4-.2c.1.5.3 2.1.3 2.5v.4l-.5-.5-.9-1.1c-.1-.2-.3-.3-.4-.5.1-.1.3-.2.4-.3l-.1-.4c-.5.3-1 .5-1.4.8l.1.3.3-.2.6.6c.4.5.9.9 1.3 1.4l.6.6c.2-.1.3-.2.5-.3-.1-.9-.1-1.8-.2-2.7-.1-.1-.1-.6-.2-1m-10.7 18.8v-1.5h.6c.4.2.6.8.3 1.2-.1.3-.5.3-.9.3m1.7 1.2c-.2-.3-.4-.9-.7-1 .7-.2 1.1-1.2.4-1.7-.5-.4-1.6-.3-2.5-.3v.4h.4v3h-.4v.4h1.4v-.4h-.4v-1.2h.5c.4.2.6 1.2.9 1.5.1.1.8 0 .9 0v-.4h-.4l-.1-.3m-8.7-.2c-.1.3-.3.5-.7.5-.2 0-.4 0-.5-.1v-.3-1c.6 0 1.4.2 1.2.9m-1.2-2.5c.4 0 .7 0 .9.3.1.1.1.3.1.4-.1.5-.5.6-1 .6v-1.3m1 1.4c.6-.3 1-1.2.2-1.6-.5-.3-1.6-.2-2.3-.2v.4h.4v3h-.4v.4c.9 0 1.9.1 2.5-.2.4-.2.8-.8.4-1.4-.2-.2-.4-.3-.8-.4m-4.9.1v-1.5h.6c.4.2.6.8.3 1.2-.1.3-.5.3-.9.3m1.7 1.2c-.2-.3-.4-.9-.7-1 .7-.2 1.1-1.2.4-1.7-.5-.4-1.6-.3-2.5-.3v.4h.4v3h-.4v.4h1.4v-.4h-.4v-1.2h.5c.4.2.6 1.2.9 1.5.1.1.8 0 .9 0v-.4h-.4l-.1-.3m-5.8-.7c.2-.5.3-1 .5-1.6l.5 1.5h-1v.1zm.9-2.4h-.5c-.4 1.1-.9 2.3-1.3 3.4h-.3v.4h1.3v-.4h-.4c.1-.2.1-.4.2-.7h1.3c.1.2.2.5.2.7h-.4v.4h1.4v-.4h-.3c-.4-1.1-.8-2.3-1.2-3.4m29.5-15.6c-.8.7-1.7-.4-1.9-1.3-.1-.5-.1-.9.2-1.3l.2-.2c.2-.1.4-.2.5-.2 1 0 1.9 2.2 1 3m.3-3.1c-.5-.5-1.1-.6-2-.1l-.4.3c-.3.4-.5.8-.5 1.3 0 .2 0 .4.1.6 0 .2.2.6.3.8.5.7 1.1.9 2 .6 1.4-.4 1.5-2.5.5-3.5m-18 22.2c-1 .2-1.4-1.1-1.2-2 .1-.4.3-.9.7-1l.3-.1c.2 0 .4 0 .6.1.8.5.8 2.8-.4 3m-.2-3.5c-.2 0-.3.1-.5.1-.5.2-.8.5-1 .9-.1.2-.2.4-.2.6-.1.2-.1.6 0 .8.2.9.6 1.4 1.6 1.5 1.5.2 2.5-1.5 1.9-2.8-.3-.8-.9-1.1-1.8-1.1"/><path id="XMLID_285_" class="st1" d="M.6 64.7l53.2.1v6c0 26.7-25 42.4-26.7 43.4-1.6-1-26.6-16.3-26.6-43l.1-6.5zm36.7 22.8c-4.9-5.9-11.8-3-11.9-2.9-1.3.3-2.4.8-3.2 1.2l-.6.3-.9.1-1.5.2c-.8.2-1.8.7-3 1.4l-.9.5c-1.5.8-1.8 1.5-1.9 1.6-.3.2-.5.4-.6.7v.2c0 .2.1.5.3.7.3.9 1 .7 1.1.7l.3-.1c.4-.1.7 0 .9.5v.1c-.1.2-.4.4-.5.4l-.2.2c.2.7 1.2.5 1.7.4h.1l.4-.1c.6-.1 1.6-.1 2.1 0 .3.1.7.3 1.1.5l-.2.4-.4.1c-.7.1-1.7.1-2.1 1-.3.8-.1 1.5 0 1.7l.3.3c.2.1.5-.2.8-.4.7-.4.6-.6.6-.7 0-.3.2-.4.2-.4l.2.1c.4.2 1.5.5 2.1.2 0 .2-.2.8-.6 1-.3.1-.7.1-1 .1s-.5 0-.7.1c-.3.2-.7.8-.8 1v.2l.1.1.2.1h2.3c.6 0 1.3-.1 1.7-.4l.3-.2 1-.8 1-.9.5-.4c.1-.1.2-.3.2-.4.4.3 1.3.8 1.8 1-.2 0-.7.1-1.2.3-.6.2-.9.5-1.4 1.2l-.1.2v.1c.2.3 1 .7 1.3.8.2.1.6 0 .9-.1l.6-.1c.2 0 2.7-.1 4.3-.1l-.9.9c-.9.6-2.3 1.4-3.7 2.7-1.6 1.3-2.8 3.1-2.8 4.3 0 .2-.2.4-.2.5.1.3.3.7 1 .8 3.2.3 5-1.6 6.5-3.3l.4-.4c1.1-1.1 1.9-2.5 2.4-3.4.2-.4.4-.8.5-.8 1.5-1 3.3-3.8 3.7-6.8.4-2.4-.2-4.5-1.6-6.2m12.3-18.7h-1.2l-1.2-.7-.2-.1h-1.4c-.3 0-.5-.2-.9-.4-.5-.4-1.2-.9-2.5-.9-1.4 0-2.1.6-2.5 1-.3-.5-1-1-2.5-1-1.3 0-2 .5-2.5.9-.3.2-.6.4-.9.4h-1.5l-.2.1-1.1.7h-1.2c-.2 0-.3.1-.3.3v10.4c0 .2.1.3.3.3h8.1c.2.2.6.5 1.3.6.3.1.8 0 1.1 0 .6-.1 1-.4 1.2-.6h8.1c.2 0 .3-.1.3-.3V69.1c0-.2-.1-.3-.3-.3m-25.2-.1h-1.2l-1.1-.7-.2-.1h-1.5c-.3 0-.5-.2-.9-.4-.5-.4-1.2-.9-2.5-.9-1.4 0-2.1.6-2.5 1-.3-.5-1-1-2.5-1-1.3 0-2 .5-2.5.9-.3.2-.6.4-.9.4H7.1l-.2.1-1.1.7H4.6c-.2 0-.3.1-.3.3v10.4c0 .2.1.3.3.3h8.1c.2.2.6.5 1.3.6.3.1.8 0 1.1 0 .6-.1 1-.4 1.2-.6h8.1c.2 0 .3-.1.3-.3V69c0-.1-.1-.3-.3-.3"/><path id="XMLID_290_" class="st1" d="M37.5 87.4c-5-6-12-3-12.1-3-1.3.3-2.5.9-3.2 1.3l-.6.3-.9.1-1.5.2c-.8.2-1.8.7-3.1 1.4l-.9.5c-1.5.8-1.9 1.5-1.9 1.7-.3.2-.5.4-.6.7v.2c0 .3.1.5.3.7.3.9 1.1.9 1.1 1l.3-.1c.4-.1.6-.2.8.3v.1c-.1.2-.4.3-.5.4l-.1.3c.2.8 1.3.6 1.7.6h.1l.4-.1c.6-.1 1.6-.3 2.2-.2.3.1.7.3 1.1.5l-.3.3-.4.1c-.7.1-1.7.3-2 1.2-.3.8-.1 1.5 0 1.8l.3.4c.2.1.6-.1.9-.3.7-.4.8-.7.8-.8 0-.3.2-.4.3-.4l.2.1c.4.2 1.3.5 1.8.2 0 .2-.1.5-.5.7-.3.2-.7.2-1 .1-.3 0-.6 0-.7.1-.3.2-.8 1.1-.9 1.2v.2l.1.1.2.1h2.3c.6 0 1.4 0 1.8-.3l.3-.3 1.1-.9 1.1-.9.5-.4c.1-.1.2-.2.2-.4.4.3.9.5 1.3.7-.2 0-.5 0-1 .2-.6.2-1.1.7-1.4 1.4V98.8c.2.3 1 .7 1.3.8.2.1.6 0 .9-.1l.6-.1H32l-.9.7c-.9.6-2.2 1.5-3.7 2.8-1.6 1.3-2.8 3.3-2.8 4.5 0 .2 0 .3.1.4.1.3.3.7 1 .8 3.2.3 5.2-1.7 6.7-3.4l.4-.4c1.1-1.1 1.9-2.5 2.4-3.4.2-.4.5-.8.5-.8 1.5-1.1 3.4-3.8 3.8-6.9-.1-2.5-.6-4.6-2-6.3m-16.1 8.8c-.4.4-1.2 0-1.6-.2l-.3-.1c-.3 0-.6.3-.7.7 0 .1-.1.2-.3.3 0-.1-.1-.2-.1-.4 0-.3 0-.7-.1-.7-.1-.1-.5.6-.3 1.3l-.3.1c-.1-.1-.2-.4-.2-.8 0-.2 0-.5.2-.8.3-.7 1.1-.8 1.7-.9l.5-.1c.3-.1.4-.3.5-.4.3.2.5.4.5.5.2.4.4 1.1.5 1.5m6.1 2.8l-.6.1c-.3.1-.6.2-.7.1h-.1c.1-.2.3-.4.5-.6.5-.3 1.1-.5.9-.6s-.8 0-1.1.1c-.5.2-.7.5-.9.8-.2-.1-.3-.2-.3-.2.3-.5.7-.9 1.1-1.1.7-.3.9-.2.9-.2.3.1 2.1.4 2.5.4l.2.1c.8.4 1.8.6 2.2.6 0 .1-.1.3-.2.5-.7 0-4.1-.1-4.4 0m11.2-5.5c-.4 2.8-2.1 5.6-3.6 6.6-.1.1-.3.4-.7 1-.5.9-1.3 2.2-2.4 3.4l-.4.4c-1.6 1.7-3.3 3.6-6.3 3.3-.3 0-.5-.2-.6-.5-.3-.9.7-3 2.6-4.5 1.5-1.2 2.8-2.1 3.7-2.7l1.1-.8.2-.3v-.1c.3-.4.3-.9.3-1v-.2l-.2-.1s-1.3-.1-2.3-.6c-.8-.4-1.3-1-1.6-2-.5-1.4.2-2.3.9-3.2.5-.7 1-1.3.9-2.1l-.2-.2-.2.2v.2c0 .5-.4 1-.9 1.6-.5.7-1.2 1.5-1.2 2.6 0 .3.1.6.2 1 .2.6.5 1.1.9 1.5-.8-.2-1.9-.6-2.9-1.2h-.1c.1-.9 0-2.2-.1-2.7l-.2-.2-.2.2c.2 1.3.2 2.9-.1 3.1l-.5.4-1.1.9-1.1.9-.3.3c-.3.2-1 .2-1.5.2h-.3-.7c.1-.2.2-.5.1-.5-.1-.1-.5.3-.7.5h-.4c.2-.4.5-.8.6-.9h.4c.4 0 .8 0 1.2-.2.6-.3.7-.9.8-1.1.1-.3-.4-1.7-.6-2-.3-.4-1.4-1.2-2.2-1.4-.6-.1-1.7.1-2.3.2l-.4.1h-.2c-.3 0-.8.1-1.1-.1.2-.1.4-.2.5-.5v-.4c-.3-.9-1.1-.7-1.4-.6h-.2s-.5-.1-.7-.6l.4-.2.1-.3-.3-.1-.4.2v-.3c0-.2.2-.3.4-.4l.1-.1s.2-.7 1.8-1.5l.9-.5c1.3-.7 2.2-1.2 3-1.4l2.4-.3.7-.3c.7-.4 1.8-1 3.1-1.2.1 0 6.9-2.9 11.6 2.8 1.4 1.5 2 3.5 1.7 5.7"/><path id="XMLID_291_" class="st1" d="M18.9 87.5c-.2-.1-.5-.1-.7 0-.4.2-.6.6-.3.7.2.1.4-.1.5-.2 0 0 .1-.1.3 0 .1.1.1.2.2.2 0 0 0 .3.2.3.1.1.5-.6-.2-1"/><path id="XMLID_292_" class="st1" d="M15.2 90.4c-.3.6.5 1.4.7 1.3.3-.1-.4-.7-.2-1 .2-.4 1.5-1 1.5-1.2 0-.2-1.7.3-2 .9"/><path id="XMLID_293_" class="st1" d="M31.1 102c-.6 0-1.2-.1-1.2.2 0 .3.6.4 1.2.4.4 0 1.2-.1 1.2-.3-.1-.3-.8-.3-1.2-.3"/><path id="XMLID_294_" class="st1" d="M29.6 103.4c-.7 0-1.4-.1-1.5.2-.1.3.7.4 1.5.4.5 0 1.5-.1 1.4-.3 0-.4-.9-.3-1.4-.3"/><path id="XMLID_295_" class="st1" d="M28.3 104.8c-.7 0-1.3-.1-1.4.2 0 .3.7.3 1.4.4.5 0 1.4-.1 1.3-.3 0-.3-.8-.3-1.3-.3"/><path id="XMLID_296_" class="st1" d="M27.1 106.3c-.5 0-1-.1-1 .2 0 .2.5.3 1 .3.4 0 1-.1 1-.3-.1-.2-.7-.2-1-.2"/><path id="XMLID_297_" class="st1" d="M15.6 89.6l.2-.1c.2-.1.3-.2.2-.4-.1-.2-.2-.3-.4-.2l-.2.1c-.2.1-.3.2-.2.4.1.2.2.3.4.2"/><path id="XMLID_298_" class="st1" d="M25.2 86.3l-.3-.1-1.7.6c-.2.1-.2.3-.1.5s.3.3.4.2l1.6-.9.1-.3"/><path id="XMLID_299_" class="st1" d="M25.4 88.1l.1-.3-.2-.1-1.3.2c-.2 0-.2.3-.2.4 0 .2.2.3.4.3l1.2-.5z"/><path id="XMLID_300_" class="st1" d="M25.3 89.3h-1c-.2 0-.3.2-.2.3 0 .2.2.3.3.3l1.1-.2.1-.2-.3-.2"/><path id="XMLID_301_" class="st1" d="M25.1 90.8l-.8-.2c-.1 0-.3.1-.3.3 0 .1.1.3.2.3l.8-.1.1-.3"/><path id="XMLID_302_" class="st1" d="M32.2 85.4c-.2 0-.3.1-.4.2 0 .2.1.3.2.4 0 0 .9.3 1.6.6l.3-.1-.1-.3c-.7-.5-1.5-.8-1.6-.8"/><path id="XMLID_303_" class="st1" d="M32.6 86.8c-.2 0-.3.1-.3.2 0 .2.1.3.2.3 0 0 .7.2 1.2.4l.3-.1-.1-.3c-.7-.3-1.3-.4-1.3-.5"/><path id="XMLID_304_" class="st1" d="M32.7 88.2l-.3.2.2.3s.6.2.8.3l.3-.1-.1-.3c-.7-.4-.8-.4-.9-.4"/><path id="XMLID_305_" class="st1" d="M32.6 89.4l-.2.2.2.2s.4.1.5.1l.2-.1-.1-.3c-.2 0-.5-.1-.6-.1"/><path id="XMLID_306_" class="st1" d="M36.7 88.6c-.6-.6-1-.8-1-.8-.1-.1-.3 0-.4.1-.1.2 0 .3.1.4 0 0 .4.2.9.7h.4v-.4"/><path id="XMLID_307_" class="st1" d="M35.5 89.2c-.1-.1-.3 0-.4.1s0 .3.1.4c0 0 .2.1.7.4h.3v-.3c-.6-.5-.7-.6-.7-.6"/><path id="XMLID_308_" class="st1" d="M35.1 90.4l-.3.1.1.3s.2.1.4.3h.3v-.3l-.5-.4"/><path id="XMLID_309_" class="st1" d="M34.6 91.4h-.3v.3s.1 0 .2.2h.3v-.3c-.1-.2-.1-.2-.2-.2"/><path id="XMLID_310_" class="st1" d="M37.5 91.6l.3.1.1-.3-.3-.4h-.3v.3s.1.1.2.3"/><path id="XMLID_311_" class="st1" d="M36.9 91.8h-.3v.3l.2.1.2.1.1-.2-.2-.3"/><path id="XMLID_317_" class="st1" d="M49.9 68.6h-1.2l-1.2-.8-.2-.1h-1.6c-.3 0-.6-.2-.9-.4-.5-.4-1.3-.9-2.6-.9-1.5 0-2.2.6-2.5 1-.4-.5-1.1-1-2.5-1-1.3 0-2 .5-2.6.9-.3.3-.6.4-.9.4h-1.5l-.2.1-1.2.8h-1.2c-.2 0-.3.1-.3.3v10.8c0 .2.1.3.3.3h8.3c.2.2.6.5 1.3.6.3.1.9 0 1.1 0 .6-.1 1.1-.4 1.3-.6h8.3c.2 0 .3-.1.3-.3V68.9c0-.2-.1-.3-.3-.3m-9.8-.6s.3-1 2.2-1c1.1 0 1.7.4 2.2.8.4.3.8.6 1.3.6H47v8.8h-1.3c-.4 0-.9-.2-1.4-.4-.6-.3-1.4-.6-2.2-.6-1 0-1.7.6-2 .9V68zm-7.6.3h1.2c.5 0 .9-.3 1.3-.6.5-.4 1.1-.8 2.2-.8 1.9 0 2.2 1.1 2.2 1.1v8.9c-.4-.3-1.1-.9-2-.9s-1.6.3-2.2.6c-.5.2-1 .4-1.4.4h-1.3v-8.7zm-1.3.8c.1-.1.4-.3.7-.5v8.8c0 .2.1.3.3.3h1.6c.6 0 1.1-.2 1.6-.5.6-.3 1.3-.5 2-.5 1 0 1.8.9 1.8.9l.2.1h.6l.2-.1s.8-.9 1.8-.9c.7 0 1.4.3 2 .5s1.1.5 1.6.5h1.6c.2 0 .3-.1.3-.3v-8.8c.3.2.6.4.7.5v9h-7l-.2.1s-.5.5-1.2.6h-.3c-.7-.1-1.2-.6-1.2-.6l-.2-.1h-7l.1-9zm18.4 10.2h-8.1l-.2.1s-.4.4-1 .5c-.2 0-.7.1-.9 0-.7-.1-1-.5-1-.5l-.2-.1h-8.1V69.1h.5v9.1c0 .2.1.3.3.3h7.2c.2.2.7.6 1.5.7h.4c.7-.1 1.2-.5 1.4-.7h7.2c.2 0 .3-.1.3-.3v-9.1h.6l.1 10.2z"/><path id="XMLID_318_" class="st1" d="M33.9 69.9c.2 0 .7 0 1.4-.4l.5-.2 1-.4c.6-.1 1.2-.1 1.4 0l-.1-.2.2-.1s-.7-.2-1.5 0l-1 .4-.5.2c-.6.3-1.2.3-1.3.3l-.1.1v.3"/><path id="XMLID_319_" class="st1" d="M33.9 71.8c.2 0 .7-.1 1.4-.4l.5-.2 1-.4c.6-.2 1.2-.1 1.4 0l.2-.1-.1-.2s-.7-.2-1.5 0l-1 .4-.5.2c-.6.3-1.2.3-1.3.3l-.1.1v.3"/><path id="XMLID_320_" class="st1" d="M33.9 73.6c.2 0 .7 0 1.4-.4l.5-.2 1-.4c.6-.1 1.2-.1 1.4 0l.2-.1-.1-.2s-.7-.1-1.5 0l-1 .4-.5.2c-.6.3-1.2.3-1.3.3l-.1.1v.3"/><path id="XMLID_321_" class="st1" d="M35.3 75.1l.5-.2 1-.4c.6-.1 1.2-.1 1.4 0l-.1-.2.2-.1s-.7-.1-1.5 0l-1 .4-.5.2c-.6.3-1.2.3-1.3.3l-.1.1.1.1c0 .2.6.1 1.3-.2"/><path id="XMLID_322_" class="st1" d="M41.3 68.9c.2 0 .8-.1 1.4 0l1 .4.5.2c.7.3 1.3.4 1.4.4l.1-.1-.1-.1c-.1 0-.7 0-1.3-.3l-.5-.2-1-.4c-.7-.2-1.5 0-1.5 0v.1"/><path id="XMLID_323_" class="st1" d="M41.3 70.7c.2 0 .8-.1 1.4 0l1 .4.5.2c.7.3 1.3.3 1.4.4l.1-.1-.1-.1c-.1 0-.7 0-1.3-.3l-.5-.2-1-.4c-.7-.2-1.5 0-1.5 0l-.1.2.1-.1"/><path id="XMLID_324_" class="st1" d="M41.3 72.6c.2 0 .8-.1 1.4 0l1 .4.5.2c.7.3 1.3.3 1.4.4l.1-.1-.1-.1c-.1 0-.7 0-1.3-.3l-.5-.2-1-.4c-.6-.2-1.2-.1-1.5 0l-.1.2.1-.1"/><path id="XMLID_325_" class="st1" d="M43.7 74.9l.5.2c.7.3 1.3.4 1.4.4l.1-.1-.1-.1c-.1 0-.7 0-1.3-.3l-.5-.2-1-.4c-.6-.2-1.2-.1-1.5 0l-.1.2.2.1c.2 0 .8-.1 1.4 0l.9.2z"/><path id="XMLID_326_" class="st1" d="M8.7 69.9c.2 0 .7 0 1.4-.4l.5-.2 1-.4c.6-.1 1.2-.1 1.3 0l-.1-.2.2-.1s-.7-.2-1.5 0l-1 .4-.5.2c-.6.3-1.2.3-1.3.3l-.1.1.1.3"/><path id="XMLID_327_" class="st1" d="M8.7 71.8c.2 0 .7-.1 1.4-.4l.5-.2 1-.4c.6-.2 1.2-.1 1.3 0l.2-.1-.1-.2s-.7-.2-1.5 0l-1 .4-.5.2c-.6.3-1.2.3-1.3.3l-.1.1.1.3"/><path id="XMLID_328_" class="st1" d="M8.7 73.6c.2 0 .7 0 1.4-.4l.5-.2 1-.4c.6-.1 1.2-.1 1.3 0l.2-.1-.1-.2s-.7-.1-1.5 0l-1 .4-.5.2c-.6.3-1.2.3-1.3.3l-.1.1.1.3"/><path id="XMLID_329_" class="st1" d="M8.7 75.5c.2 0 .7 0 1.4-.4l.5-.2 1-.4c.6-.1 1.2-.1 1.3 0l-.1-.2.2-.1s-.7-.1-1.5 0l-1 .4-.5.2c-.6.3-1.2.3-1.3.3l-.1.1.1.3"/><path id="XMLID_330_" class="st1" d="M16.3 68.7l-.1.2c.2 0 .8-.1 1.3 0l1 .4.5.2c.7.3 1.3.4 1.4.4l.1-.1-.1-.1c-.1 0-.6 0-1.3-.3l-.5-.2-1-.4c-.7-.2-1.5 0-1.5 0l.2-.1"/><path id="XMLID_331_" class="st1" d="M16.2 70.7c.2 0 .8-.1 1.3 0l1 .4.5.2c.7.3 1.2.3 1.4.4l.1-.1-.1-.1c-.1 0-.7 0-1.3-.3l-.5-.2-1-.4c-.7-.2-1.5 0-1.5 0l-.1.2.2-.1"/><path id="XMLID_332_" class="st1" d="M17.5 72.6l1 .4.5.2c.7.3 1.2.3 1.4.4l.1-.1-.1-.1c-.1 0-.7 0-1.3-.3l-.5-.2-1-.4c-.7-.2-1.5 0-1.5 0l-.1.2.2.1c.2-.2.8-.3 1.3-.2"/><path id="XMLID_333_" class="st1" d="M18.5 74.9l.5.2c.7.3 1.2.4 1.4.4l.1-.1-.1-.1c-.1 0-.7 0-1.3-.3l-.5-.2-1-.4c-.7-.2-1.5 0-1.5 0l.2.1-.1.2c.2 0 .8-.1 1.3 0l1 .2z"/><path id="XMLID_339_" class="st1" d="M24.7 68.6h-1.2l-1.2-.8-.2-.1h-1.5c-.3 0-.6-.2-.9-.4-.5-.4-1.3-.9-2.6-.9-1.5 0-2.2.6-2.5 1-.4-.5-1.1-1-2.5-1-1.3 0-2 .5-2.6.9-.3.2-.6.4-.9.4H7l-.2.1-1.2.8H4.4c-.2 0-.3.1-.3.3v10.8c0 .2.1.3.3.3h8.3c.2.2.6.5 1.3.6.3.1.9 0 1.1 0 .6-.1 1.1-.5 1.3-.6h8.3c.2 0 .3-.1.3-.3V68.9c0-.2-.1-.3-.3-.3m-9.8-.6s.3-1 2.2-1c1.1 0 1.7.4 2.2.8.4.3.8.6 1.3.6h1.2v8.8h-1.3c-.4 0-.9-.2-1.4-.4-.6-.3-1.4-.6-2.2-.6-1 0-1.7.5-2 .9V68zm-7.6.4h1.3c.5 0 .9-.3 1.3-.6.5-.4 1.1-.8 2.2-.8 1.9 0 2.2 1.1 2.2 1.1V77c-.4-.3-1.1-.9-2-.9s-1.6.3-2.2.6c-.5.2-1 .4-1.4.4H7.4l-.1-8.7zm-1.3.7c.1-.1.4-.3.7-.5v8.8c0 .2.1.3.3.3h1.6c.6 0 1.1-.2 1.6-.5.6-.3 1.3-.5 2-.5 1 0 1.8.9 1.8.9l.2.1h.6l.2-.1s.8-.9 1.8-.9c.7 0 1.4.3 2 .5s1.1.5 1.6.5H22c.2 0 .3-.1.3-.3v-8.8c.3.2.6.4.7.5v9h-7l-.2.1s-.5.5-1.2.6h-.3c-.7-.1-1.2-.6-1.2-.6l-.2-.1h-7l.1-9zm18.4 10.3h-8.1l-.2.1s-.4.4-1 .5h-.9c-.7-.1-1-.5-1-.5l-.2-.1H4.9V69.2h.6v9.1c0 .2.1.3.3.3H13c.2.2.7.6 1.5.7h.4c.7-.1 1.2-.5 1.4-.7h7.2c.2 0 .3-.1.3-.3v-9.1h.6v10.2z"/><path id="XMLID_340_" class="st1" d="M27.1 58.5c-4 0-8.2 1-8.2 2.7 0 .8.9 1.5 2.2 1.9.1.1.5.2.6.1l-.5-.2c-1.2-.6-1.7-1.2-1.7-1.7 0-1 3.2-2.1 7.5-2.1s7.5 1.1 7.5 2.1c0 .5-.4 1.2-1.6 1.7l-.5.2.5-.1c1.3-.5 2.2-1.1 2.2-1.9.2-1.7-4-2.7-8-2.7"/><path id="XMLID_341_" class="st1" d="M36.5 55.5c-.4.5-1.2 1.8-1.2 2.2-.3-.2-.7-.4-1.3-.6-1.7-.6-4.2-1-6.7-1-2.6 0-5 .4-6.7 1-.5.2-1 .4-1.3.6-.1-.4-.9-1.8-1.2-2.2-.1-.1-.3 0-.2.1.6 1.2.8 2.2.9 2.5 0 .2.1.3.2.4h.3c.4-.2.8-.5 1.6-.8 1.6-.6 4-1 6.5-1s4.9.4 6.5 1c.8.3 1.2.6 1.6.8h.3c.2-.1.2-.2.2-.4.1-.4.2-1.4.9-2.5-.1-.1-.3-.3-.4-.1"/><path id="XMLID_342_" class="st1" d="M27.7 57.6c0-.3-.2-.6-.6-.6-.3 0-.6.3-.6.6s.3.6.6.6c.4 0 .6-.3.6-.6"/><path id="XMLID_343_" class="st1" d="M23.8 57.9c0-.3-.3-.6-.6-.6s-.6.2-.6.6c0 .3.3.6.6.6.4 0 .6-.3.6-.6"/><path id="XMLID_344_" class="st1" d="M19.8 59.6c.3-.2.4-.5.2-.8-.1-.3-.5-.4-.8-.2s-.4.5-.2.8.5.4.8.2"/><path id="XMLID_345_" class="st1" d="M21.6 58.4c0-.2-.1-.3-.3-.3-.2 0-.3.1-.3.3s.1.3.3.3.3-.2.3-.3"/><path id="XMLID_346_" class="st1" d="M25.5 57.7c0-.2-.1-.3-.3-.3-.2 0-.3.1-.3.3s.1.3.3.3.3-.1.3-.3"/><path id="XMLID_347_" class="st1" d="M31.7 57.9c0-.3-.2-.6-.6-.6-.3 0-.6.2-.6.6 0 .3.3.6.6.6s.6-.3.6-.6"/><path id="XMLID_348_" class="st1" d="M35.1 58.7c-.3-.1-.6 0-.8.2-.2.3-.1.6.2.8.3.2.6.1.8-.2s.1-.7-.2-.8"/><path id="XMLID_349_" class="st1" d="M33.3 58.4c0-.2-.1-.3-.3-.3-.2 0-.3.1-.3.3s.1.3.3.3.3-.2.3-.3"/><path id="XMLID_350_" class="st1" d="M29.4 57.7c0-.2-.1-.3-.3-.3-.2 0-.3.1-.3.3s.1.3.3.3c.2 0 .3-.1.3-.3"/><path id="XMLID_351_" class="st1" d="M27.2 50.8c-.3 0-.6.3-.6.6s.3.6.6.6.6-.2.6-.6c-.1-.3-.3-.6-.6-.6"/><path id="XMLID_352_" class="st1" d="M27.2 49.2c-.3 0-.6.2-.6.6s.3.6.6.6.6-.3.6-.6c-.1-.3-.3-.6-.6-.6"/><path id="XMLID_353_" class="st1" d="M27.2 47.6c-.3 0-.6.3-.6.6s.3.6.6.6.6-.3.6-.6c-.1-.3-.3-.6-.6-.6"/><path id="XMLID_354_" class="st1" d="M24.4 48.9c.3 0 .6-.3.6-.6s-.3-.6-.6-.6-.6.3-.6.6c.1.4.3.6.6.6"/><path id="XMLID_355_" class="st1" d="M22.6 48.3c.3 0 .6-.3.6-.6s-.3-.6-.6-.6-.6.3-.6.6.3.6.6.6"/><path id="XMLID_356_" class="st1" d="M20.7 47.9c.3 0 .6-.3.6-.6s-.3-.6-.6-.6-.6.3-.6.6.3.6.6.6"/><path id="XMLID_357_" class="st1" d="M18.7 48.2c.3 0 .6-.3.6-.6s-.3-.6-.6-.6-.6.3-.6.6c.1.3.3.6.6.6"/><path id="XMLID_358_" class="st1" d="M17.1 49.2c.3 0 .6-.3.6-.6s-.3-.6-.6-.6-.6.3-.6.6c0 .4.2.6.6.6"/><path id="XMLID_359_" class="st1" d="M16.1 50.9c.3 0 .6-.2.6-.6 0-.3-.3-.6-.6-.6s-.6.2-.6.6.3.6.6.6"/><path id="XMLID_360_" class="st1" d="M16.7 52.4c0-.3-.2-.6-.6-.6-.3 0-.6.3-.6.6s.3.6.6.6c.3-.1.6-.3.6-.6"/><path id="XMLID_361_" class="st1" d="M16.8 53.6c-.3 0-.6.3-.6.6s.3.6.6.6.6-.3.6-.6-.3-.6-.6-.6"/><path id="XMLID_364_" class="st1" d="M33.7 61.8c0-1.4-4.3-1.7-6.5-1.7-2.3 0-6.5.4-6.5 1.7 0 1.4 4.3 1.7 6.5 1.7s6.5-.4 6.5-1.7m-6.6 1.1c-3.9 0-5.9-.8-5.9-1.1s2-1.1 5.9-1.1 5.9.8 5.9 1.1c.1.3-2 1.1-5.9 1.1"/><path id="XMLID_365_" class="st1" d="M26.3 46.5h.6v.6c0 .2.1.3.3.3.2 0 .3-.1.3-.3v-.6h.6c.2 0 .3-.1.3-.3s-.1-.3-.3-.3h-.6v-.6c0-.2-.1-.3-.3-.3-.2 0-.3.1-.3.3v.6h-.6c-.2 0-.3.1-.3.3 0 .1.1.3.3.3"/><path id="XMLID_373_" class="st1" d="M18.9 55.7c.3.6 1 1 1.9.8.5-.2.9-.2 1.2-.8.1-.3.3-.6-.1-1l-.4-.2v.3c.1.2.1.5-.2.6-.2.1-.4 0-.4-.1 0 0 .3-.3 0-.5-.2-.2-.8-.8 0-1.2.6-.3 1.1.6 1.2.7h.1c-.1-.6-.7-.8-.8-1.5-.1-.5.3-.9.5-1.1h.3c.3.1.7.3.8.8.1.7-.3 1.1-.1 1.7 0 .1.1.1.1 0s.1-1.1.8-1.1c.9 0 .6.8.4 1.1-.2.4.2.4.2.4 0 .1-.1.3-.3.2-.3 0-.5-.3-.4-.5.1-.1-.1-.3-.2-.3l-.3.3c-.1.5.1.8.3 1 .5.4 1.2.3 1.5.3 1.3-.1 1.4-.9 1.4-.9-.3.1-.8.3-.8.3h-.1l-.2-.2v-1.1l.2-.2h.1l.9.3-.2-.7V53l.2-.2h1.4l.2.2v.1l-.3.7.9-.3h.1l.2.2v1.2l-.2.2h-.1l-.9-.3s.1.8 1.4.9c.4 0 1.1.1 1.5-.3.2-.2.5-.5.3-1l-.3-.3c-.1 0-.2.1-.2.3.1.2-.1.5-.4.5-.2 0-.4-.2-.3-.2 0 0 .4-.1.2-.4-.1-.3-.5-1 .4-1.1.7 0 .8 1 .8 1.1s.1.1.1 0c.1-.6-.3-1-.1-1.7.1-.5.6-.7.8-.8h.3c.2.2.6.6.4 1.1-.1.7-.7.9-.8 1.5h.1c.1-.1.6-1 1.2-.7.8.4.2 1 0 1.2-.3.3 0 .5 0 .5 0 .1-.2.2-.4.1-.3-.1-.3-.4-.2-.6v-.3l-.4.2c-.3.4-.2.8-.1 1 .3.5.7.6 1.2.8.9.3 1.6-.2 1.9-.7.6-.8 2-2.7 2-4.4s-1.5-3-3.5-3c-.9 0-1.7.3-2.5.6-.9.3-1.7.6-2.6.5v-1.8c0-.2-.1-.3-.3-.3-.2 0-.3.1-.3.3v4.6h-2.2v-4.6c0-.2-.1-.3-.3-.3-.2 0-.3.1-.3.3v1.8c-.8.1-1.7-.2-2.5-.5s-1.6-.6-2.5-.6c-2 0-3.5 1.3-3.5 3 .2 1.5 1.6 3.4 2.2 4.2m12.8-6.2c.8-.3 1.5-.6 2.3-.6 1.6 0 2.9 1 2.9 2.4 0 .4-.1.9-.3 1.4-.1-.3-.2-.6-.4-.9-.5-.7-1.4-1-2.5-1-.5-.5-1.5-.9-2.6-1h-.3l.9-.3m-2.8.5h.6l-.6.3V50zm0 1.2c.6-.7 1.5-.8 2-.8 1 0 1.9.4 2.2.8l.3.1c1 0 1.7.2 2.1.8.5.6.4 1.4.3 1.8-.1.2-.2.3-.3.5.1-1.1-.6-1.9-1.4-2.3h-.3c-.2.2 1.3 1.3 1 2.6-.2.8-.7 1.1-1 1.2h-.1c.2-.1.3-.3.3-.5v-.2c.2-.2.4-.5.4-.9v-.1c0-.3-.2-.7-.8-.9l-.2-.1v-.4c0-.7-.5-1.3-.8-1.5 0 0-.2-.2-.5-.1-.4.1-1.3.5-1.5 1.4v.1h-.2c-.4 0-.7.2-.9.3 0-.1-.2-.3-.4-.2.2-.2.4-.5.8-.8s.9-.5.9-.6-.2-.1-.4-.1-.5.1-.6.2c-.4.2-.7.4-.9.7v-1m-4.1 1.7c-.2-.2-.5-.3-.9-.3h-.2v-.1c-.2-.8-1.1-1.3-1.5-1.4-.3-.1-.5.1-.5.1-.3.2-.8.8-.8 1.5v.4l-.2.1c-.6.3-.7.7-.8.9v.1c0 .4.2.7.4.9v.2c0 .2.1.4.3.5h-.1c-.3-.1-.8-.4-1-1.2-.4-1.3 1.1-2.4 1-2.6h-.3c-.7.4-1.5 1.1-1.4 2.3-.1-.2-.2-.3-.3-.5-.1-.4-.1-1.2.3-1.8.4-.5 1.1-.8 2.1-.8l.3-.1c.3-.4 1.2-.8 2.2-.8.5 0 1.5.1 2.1.8v.8c-.2-.2-.5-.5-.9-.7-.1 0-.4-.2-.6-.2s-.4.1-.4.1c0 .1.5.3.9.6.3.2.6.6.8.8-.4.1-.5.2-.5.4m.6-2.9v.3l-.6-.3h.6m-5-1.1c.8 0 1.5.3 2.3.6l.9.3h-.3c-1 0-2.1.4-2.6 1-1.2 0-2 .3-2.5 1-.2.3-.4.6-.4.9-.2-.5-.3-.9-.3-1.4 0-1.4 1.3-2.4 2.9-2.4"/><path id="XMLID_374_" class="st1" d="M29.9 48.9c.3 0 .6-.3.6-.6s-.2-.6-.6-.6c-.3 0-.6.3-.6.6.1.4.3.6.6.6"/><path id="XMLID_375_" class="st1" d="M31.8 48.3c.3 0 .6-.3.6-.6s-.3-.6-.6-.6-.6.3-.6.6c0 .4.3.6.6.6"/><path id="XMLID_376_" class="st1" d="M33.7 47.9c.3 0 .6-.3.6-.6s-.3-.6-.6-.6-.6.3-.6.6.3.6.6.6"/><path id="XMLID_377_" class="st1" d="M35.6 48.2c.3 0 .6-.3.6-.6s-.3-.6-.6-.6-.6.3-.6.6c.1.3.3.6.6.6"/><path id="XMLID_378_" class="st1" d="M37.3 49.2c.3 0 .6-.3.6-.6s-.2-.6-.6-.6c-.3 0-.6.3-.6.6.1.4.3.6.6.6"/><path id="XMLID_379_" class="st1" d="M38.3 50.9c.3 0 .6-.2.6-.6 0-.3-.3-.6-.6-.6s-.6.2-.6.6.3.6.6.6"/><path id="XMLID_380_" class="st1" d="M38.3 51.8c-.3 0-.6.3-.6.6s.3.6.6.6.6-.3.6-.6c-.1-.4-.3-.6-.6-.6"/><path id="XMLID_381_" class="st1" d="M37.6 53.6c-.3 0-.6.3-.6.6s.3.6.6.6.6-.3.6-.6c-.1-.3-.3-.6-.6-.6"/><path id="XMLID_382_" class="st1" d="M27.2 52.9z"/><path id="XMLID_452_" class="st1" d="M45.5 20.4l.1-.3c0-.2-.1-.5-.3-.7-.6-.7-1.7 0-2.2.3 0-.2-.1-.4-.3-.5v-.3c0-.4-.4-.6-.7-.7.5 0 1.2 0 1.4-.7v-.4l.5.1c.7.2 1.8.4 2.1-.4l.1-.3c0-.3-.2-.5-.3-.7l-.1-.1c.3-.2 1.1-.6 1.1-1.4 0-.2 0-.4-.2-.7-.4-.8-1.2-.6-1.7-.5h-.2v-.3c0-.2 0-.4-.2-.6-.1-.1-.3-.2-.4-.3.2-.2.3-.5.3-.8 0-.2 0-.3-.1-.5-.1-.3-.3-.5-.5-.6-.5-.2-1.2.1-1.6.3l-.1-.2.1-.4c0-.3-.1-.5-.1-.6.3-.2.7-.6.8-1v-.2c0-.2-.1-.4-.2-.6-.6-.7-1.5-.4-1.9-.3h-.1c-.1-.3-.3-.5-.8-.7-.5-.1-1.1.4-1.5.7l-.2.1-.1-.1-.6-.4c-.6-.1-1.2.8-1.3 1-.1-.2-.2-.3-.3-.3l.1-.1c.3-.3.7-.7.8-1.2 0-.3-.1-.5-.4-.8s-.7-.5-1-.5c-.6 0-1.1.5-1.4.9l-.1-.3V5c0-.1 0-.3-.1-.4l-.2-.2c.4-.3.8-.8.8-1.3 0-.1 0-.3-.1-.4-.3-.6-.7-.7-1-.7v-.5c0-.5-.1-1-.8-1.2-.8-.2-1.4.5-1.6.9l-.1.1c-.2-.2-.5-.5-.9-.4-.2-.3-.5-.6-.9-.6-.8-.1-1.1.8-1.3 1.5l-.1.3h-.1c-.2-.1-.5-.1-.9.1-.3.2-.4.5-.4.8 0 .5.3 1.1.5 1.5l.1.2c-.4.1-.6.2-.8.4-.1.1-.1.3-.2.4l-.1-.1c.1-.5.3-2.2 0-2.7-.1-.1-.3-.2-.5-.2l-.2.1c0-.6-.1-1.5-.8-1.7-.5-.2-.8 0-.9.2-.4-.5-1.1-1.4-2-1-.4.2-.5.5-.5.9s.2.9.3 1.3v.1c-.3 0-.7.1-.9.7V3.4c-.5-.3-1.1-.6-1.8-.1-.4.2-.5.6-.5.9 0 .6.3 1.1.5 1.5-.3.1-.7.3-.7.9v.2c0 1 1.1 1.3 1.7 1.5h.1c-.1.1-.4.3-.5.3l-.2-.1c-.5-.3-1.5-1-2.4 0-.2.2-.3.4-.3.7 0 .5.4.9.6 1.2l.2.2-.1.2-.2.6v.2l-.1.1v-.3c0-.6-.1-1.4-.7-1.6-.4-.1-.6.1-.8.3-.1-.6-.3-1.7-1-1.7-.4 0-.6.4-.8.7l-.1.1-.1-.1c-.2-.3-.7-.9-1.3-.6-.5.2-.7.7-.7 1.2 0 .3.1.6.1.8v.2h-.1c-.3.1-.6.3-.7.6l-.1.3c0 .6.8 1.1 1.4 1.4-.1.1-.3.2-.4.3-.4-.2-.8-.3-1.2-.1-.5.2-.5.6-.5.9v.1c-.4-.1-1-.2-1.4.6-.1.2-.2.5-.2.6 0 .2.1.4.1.5.3.5.8.7 1.3.9-.1.1-.2.3-.2.4l.2.7c.4.5 1 .2 1.5.1.5-.2.7-.2.8-.1 0 .1-.1.3-.3.5h-.3c-.4.1-.6.4-.7.6-.4-.3-1-.8-1.6-.7-.5.1-.6.5-.6.8v.4h-.1c-.4-.1-.9-.2-1.3.1-.2.1-.4.4-.4.7v.2c0 .9.9 1.1 1.4 1.3-.1.2-.2.4-.2.6 0 .2.1.4.3.6.8.7 1.5.2 1.9-.1l.1.4v.2l-.1.1c-.3.1-.7.2-.9.6-.1.1-.1.2-.1.4 0 .1 0 .2.1.4.3.8 1.2.8 1.6.8h.1v.1c0 .2.1.6.4.9.8.7 1.8-.2 2.2-.5l.3.2c.1.2.2.3.2.4l-.1.1c-.3.3-.8.8-.8 1.4 0 .2.1.4.2.7.4.6 1.2.2 1.9-.2l.5-.2v.1c.1.3.2.8 1.1.7 1-.2 1.3-1 1.5-1.5.1-.2.1-.3.2-.4l.4.4.4-.1c.6-.4 1-1.7 1.1-2.2 1.2.6 2.3 2.3 2.5 2.7.1.3.6 1 1.2 2.1.4.6.9 1.4.9 1.6-.3 1.7-1.1 3-2.2 3.6l-.5.3c-1.1.6-2.8 1.4-3.5 2h-.3c-.7 0-1 .2-1.2.3-.4-.2-.9-.4-1.3-.4-1.2 0-1.8.6-2 1.1-.4.8-.3 1.7.1 2.2.5.6 1.1 1 2 1 .6 0 1-.2 1.2-.3.2.1.6.3 1.2.3.7 0 1.1-.2 1.3-.3.3.2.7.3 1.1.3.6 0 .9-.2 1.1-.3.2.1.6.3 1.1.3.6 0 1-.2 1.2-.3.3.2.7.3 1.1.3.6 0 .9-.2 1.1-.3.2.1.6.3 1.1.3.6 0 1-.2 1.2-.3.3.2.7.3 1.1.3.6 0 .9-.2 1.1-.3.2.1.6.3 1.1.3.6 0 1-.2 1.2-.3.3.2.7.3 1.1.3.6 0 .9-.2 1.1-.3.2.1.6.3 1.1.3.7 0 1.1-.2 1.3-.3.4.2.9.4 1.4.4 1 0 1.7-.4 2-1.1.4-.8.3-1.7-.1-2.2-.5-.7-1.1-1-2-1-.6 0-1 .2-1.2.3-.2-.1-.5-.2-.9-.3-.4-.7-.9-1-2.8-1.8l-.3-.1c-2-.9-2.5-1.7-2.9-2.3l-.1-.1c-.3-.6-1-4.2.4-6.4.8-1.3 1.8-1.8 2.4-2.1.1.6.3 1.5.6 1.8l.5.3.3-.1.1.2c.2.6.6 1.5 1.3 1.5.5.1.8-.2.9-.4.3.3.7.7 1.2.7s.7-.3.9-.5c.3.1 1.1.4 1.5-.3.1-.2.2-.4.2-.5 0-.4-.4-.7-.5-.8.1-.1.3-.3.3-.5.2 0 .4 0 .6-.2.3-.2.3-.5.4-.6.3 0 .9.1 1.2-.5.1-.1.1-.3.1-.4.3-.1.4-.4.5-.5.4.2 1 .4 1.4.2.5-.2.5-.7.5-1 .4.1.9.2 1.4-.1.2-.2.4-.4.4-.8v-.2c-.1-1.8-1.3-2-1.8-2.1m-2.9-1l-.3.2.3-.2m-.5-.5l-.2.2-.3.2-.1.3c-.1.4-.4 1.1-1.8 1.4l-.1-.1c-.2-.3-.4-.7-.5-1.2-.1-.7 0-1.2.1-1.6 1.1-.1 1.9 0 2.2.4l.3.2.4.2m-6.6.1l.2.5.1.1c-.4.3-1.1.1-1.5 0h-.6c-.2.1-.3.3-.3.5v.2c-.2 0-1.3-.2-1.7-.4.2-.3.5-.6.8-.8.3-.2.7-.3 1-.4.8-.3 1.8-.7 1.7-.9-.1-.2-1.1 0-1.9.3-.6.2-1.5.6-2 .7.2-.7.6-1.6 1-1.7.1.2.3.3.4.3l.6-.4c.8-.7 1-.8 1.1-.8l.1.1.3.3c.2.1.4 0 .7-.2.1-.1.5-.3.6-.3.2.1.2.1.2.2l.3.3h.6c.3-.1.9-.2.9 0 .2.4 0 .6-.5.8-.2.1-.5.2-.5.5l.1.4.1.3c0 .1-.1.2-.3.2H35.4l.1.2m-4.2 4c-.3.3-.6.6-.8.9v-.3c0-.7.1-1.5.3-2.1l.6-1.2c.2.1.5.2.8.3 0 .2-.1.2-.3.3l-.6.4c-.4.5-.3 1.2 0 1.7M30 17.6c.1-.3.1-.6.2-.9.2-.5 1.3-2.5 1-2.6s-1.3 1.8-1.5 2.4c-.1.2-.1.4-.2.5-.2-.5-.5-1.1-.5-1.5 0-.2 0-.4.1-.5l.2-.1.2-.1.2-.3-.1-.4c-.1-.3-.3-.8-.3-1.2l.1-.4c.1-.2.2-.3.4-.3l.1.1c.2.2.4.2.5 0l.1-.4c0-.3.2-1.2.6-1.2l.2.1c.1 0 .2.1.4 0l.2-.1c.6-.6.8-.5.8-.5.1.1.1.4.1.6 0 .3 0 .5.2.6l.4.1h.2c.2.6-.2 1-.7 1.4-.1.1-.3.2-.2.4l.3.3.2.1c.1.3-.8.7-1 .9l-.5.4-.1.1.2.1.4.2h.1c.3.9-1.5 1.9-2.3 2.2m1 .2c-.2.5-.3 1-.4 1.2-.1.1-.3.1-.4.2l-.2.1v-.1c0-.4-.1-.7-.1-1 .3-.1.7-.2 1.1-.4m-1.7-.3l.1-.1-.1.1M29 17.4h-.4c-.1-.5-.3-1.4-.7-1.8-.4-.3-.9 0-1.2.2-.3-.5-.8-1.3-1.4-1.5l-.1-.1c-.2-.2-.5-.5-.5-.9 0-.2.2-.3.4-.4.3-.2.3-.4.3-.7-.1-.7 0-1.2.4-1.3.5-.1 1 .4 1.4.9l.5.4c.3.1.5-.1.6-.3.2-.2.2-.2.3-.2.2.1.4.4.4.6-.1.2-.1.4-.1.6 0 .5.2 1 .3 1.3-.1 0-.3.1-.4.3-.2.2-.3.5-.3.9-.1.7.3 1.5.5 2m-.8 3.8c.1.5.2 1 .2 1.4v.4c0 .4-.2 1.3-.4 1.9l-1-1.7c-.5-.8-.6-1.6-.6-2.1.8.3 1.1.3 1.7.2l.1-.1zm.4-1.4c-.1-.1-.3-.2-.4-.4l-.8-.8c-.7-.5-1.7-1.1-1.8-.9-.1.2.8.7 1.4 1.3.4.4.7.8.9 1.2v.1l.1.3h-.1c-.6.1-.8.1-1.4-.1l-.3-.2V19.7H26l-.6.1c-.3.1-.8.4-1.1.2 0 0-.1-.1-.2-.3-.2-.5 0-.6.1-.8.1-.1.2-.2.2-.5s-.3-.3-.6-.4c-.6-.1-.9-.2-.9-.5 0-.2.2-.4.4-.6l.1-.2-.1-.2s-.5-.7 0-1.1c.5-.3.7-.1.8 0l.5.3.2-.3s0-.4.3-.5.9.7 1.1 1.3l.2.2c.2.1.4 0 .6-.2l.5-.2c.3.2.5 1.2.5 1.5l.1.3c.2.1.4.1.6.1h.3c0 .2-.1.8-.4 1.9m-5 .1v.2c0 .4-.6.9-.9 1l-.4-.3c-.1-.2-.3-.8-.4-1.6-.2-1.4-.3-1.9-.5-1.9-.2.1-.3.5-.1 1.9 0 .3.1.6.1.9l-.1-.1-.5-.1-.1.1c-.1-.6-.4-1.2-.7-1.5V18l.4-.5c0-.2-.1-.4-.3-.5-.3-.3-.5-.6-.4-.9 0 0 0-.1.2-.1l.3-.1c.2-.1.1-.3.1-.6 0-.6 0-1.1.5-1.3h.1c.3.1.6.7.7 1l.1.1c.2.1.4.1.5 0 .3-.1.5-.2.7 0-.3.2-.4.6-.4.9 0 .3.1.6.2.8-.2.2-.5.5-.5.9 0 .8.9 1 1.4 1.1-.1.2-.2.3-.2.6.1.2.1.3.2.5m-.4 2.2c.7.2 2 .6 2.4 3 .2 1.1.2 1.8.2 2.3 0 .3 0 .5-.1.6-.6-.5-2.4-2-2.4-4v-.3c.2-.7.1-1.2-.1-1.6m-3.8-3.8l-.3.3c-.2-.5-.6-.9-1.1-1-.4-.1-.6.3-.7.5-.3-.2-.8-.5-1.3-.4l-.3.1c-.5-.2-.9-.2-1.2-.1v-.2l-.3-.4c-.3-.2-.6-.4-.5-.8.1-.3.3-.4.6-.4l.3-.1.5-.2.1-.3c.1-.2.1-.3.2-.3.2.4.5.7.9 1 .1.5.3.8.7 1 .7.3 1.8.1 2.3-.2.1.3.3.5.5.6l-.2.2c-.1.1-.1.3-.1.5l-.1.2M13.2 20l-.1-.3-.1-.1c-.1-.2-.1-.3 0-.5s.3-.2.5-.2h.2l.2-.1c.2-.2.7-.5 1.4-.3-.1.2-.1.3-.1.5 0 .4.2.7.4.9l-1.2 1.9c-.3-.1-.7-.5-.9-.9l-.3-.9zm3.8-4.7c-.2.2-.3.2-.4.2-.7-.4-1-1.2-1-1.9l-.1-.4v-.1h.4l.3-.1c.4-.1 1.1-.2 1.9.1 0 .5-.6 1.6-1.1 2.2m5.2-.7l.1.2-.1-.2m-.8-5.5v-.5l.5.2.1.1.3.1c.4 0 1 .1 1.6 1.1-.4.1-.9.3-1.4.6-.4.2-.8.5-1 .7-.5-1-.2-1.5-.1-1.8l.1-.2-.1-.3zm.1 3.3zM30 8.3l.2-.1c.1-.1.3-.2.5-.2.2.1.2.2.2.3l.1.2c.1.3.4.8.3 1.7-.2-.1-1.6-.6-2.6-.6.2-.8 1-1.2 1.3-1.3m4.4 3.2c.3-.2.6-.4.7-.8v-.3c0-.2-.1-.4-.1-.5.2-.1.3-.2.4-.2.2.1.4.5.4.6l.3.3c.2.1.5-.1.8-.2.5-.3.8-.4 1.1-.2.3.2.3.4.3.5-.4.3-.8.8-.9 1-.6-.1-1.2.1-1.7.4-.3-.1-1.1.2-1.6.9-.1.2-.2.5-.3.7l-.3-.3c.5-.4.8-.9.8-1.4.2-.2.2-.3.1-.5m4.1 1l-.1.3v.5c0 .4-.1 1-.7 1.5-.6-.2-1.1-.5-1.4-1l-.2-.5c-.1-.2-.1-.4-.1-.7.8-.5 1.6-.3 1.8-.2h.1l.4-.1.2-.1v.3m-3.1-.1zm-.6.9c.1-.2.3-.4.4-.5l-.4.5zm.1 1.9l-.1-.1c-.1-.2-.2-.5-.2-.7l.3.8zm-1.8.3c0-.2-.1-.2-.2-.3.4-.2.9-.5 1.1-1 0 .4.1.8.4 1.2-.5.1-1 .6-1.4.9l.1-.1c.1-.2.2-.4.2-.6l-.2-.1m4.7 2.3v.1-.1m6.6-4.7v.5c.2.4.6.3.9.2.6-.2.8-.2.9.1.3.6 0 .9-.7 1.2l-.4.3c-.1.3 0 .5.2.7l.2.3c-.2.3-.9.1-1.5 0-.5-.1-.8-.2-1 0-.3.2-.2.5-.2.6v.2c-.1.2-.4.3-.9.2-.2 0-.5 0-.6.1-.5-.2-1.2-.3-2-.2l-.1-.1c-.1-.1-.3-.2-.5-.2l.1-.3v-.2c.8 0 2.5.1 3-.9l.1-.3c0-.2-.1-.4-.2-.6.9 0 2.2 0 2.3-.9v-.1c0-.5-.3-.8-.6-.9l.2-.2.2-.2c.4 0 .5.1.6.2v.5M42.6 11c.3-.1.9-.4 1.2-.3.1 0 .1.1.2.2.2.4 0 .7-.4 1l-.1.1-.3.2c-.3.2-.6.4-.7.7v.3l.3.2c.3.1.5.2.4.5 0 .1-.3.4-1.8.3-.4 0-.6 0-.7.2s0 .3.1.5l.2.6c-.3.6-1.9.6-2.5.5h-.2c-.1-.1-.3-.2-.4-.2.1-.2.1-.4.1-.6l.6-.6c.1 0 .3-.2.5-.3.9-.6 1.9-1.6 1.7-1.7-.2-.1-1.3.7-1.8 1.1V12.8c.1-.2.2-.6-.1-.9-.3-.3-.6-.2-.8-.1.2-.2.4-.5.6-.6s.4 0 .6.2l.4.2c.3.1.5-.2.7-.5.4-.4.7-.8 1.1-.7.1 0 .2.1.2.3 0 .1.1.3.3.4l.6-.1zm-6-2.5h.2l.3-.3c.1-.2.5-.7.7-.7l.2.2.5.3.6-.4c.2-.2.7-.6.9-.6.3.1.3.2.4.3l.3.3.5-.1c.5-.2.9-.3 1.2.1l.1.2c-.1.3-.5.6-.8.7l-.2.2v.2c.1.2.2.4.2.6-.8-.1-1.4.5-1.7 1l-.2.2-.1-.1c-.2-.1-.4-.3-.7-.3 0-.2-.1-.4-.4-.7.1-.1.3-.2.5-.3.5-.3 1.1-.7 1.1-.8-.1-.1-.8.1-1.4.4-.3.1-.5.3-.7.4-.5-.2-1.1.1-1.5.3l-.3.1c-.1-.2-.2-.4-.4-.6.5-.1.7-.3.7-.6m-2.5-1.8l.6-.4c.3-.3.6-.7 1-.7.2 0 .4.1.5.3l.2.4c0 .3-.3.6-.6.8l-.4.5c0 .3.2.4.3.5.2.1.2.2.2.4 0 .1-.2.4-.6.6l-.1.1c-.2.1-.4.2-.7.4l-.2.3c0 .2.1.3.1.4.1.1.2.2.1.4s-.4.5-.6.6h-.4v-.2c0-.4-.1-.9-.5-1.1-.2-.1-.4-.1-.6 0 .1-.2.3-.3.4-.5.5-.5 1-1.1.9-1.2-.1-.2-.8.3-1.4.8-.2.2-.4.5-.6.7 0-.4-.1-.8-.3-1.2v-.1c0-.1-.1-.3-.2-.5.2-.2.4-.2.5-.1h.2c.3 0 .3-.2.5-.5.1-.4.4-1 .8-1.2h.2l.2.3c0-.1.2.2.5.2M30.6 2l.4.2c.3.1.4-.2.6-.4.3-.4.6-.8 1-.7.3.1.4.4.3 1 0 .2-.1.4.1.6l.3.1c.2 0 .4.1.6.4.2.3-.5.9-.9 1.1-.1.1-.2.2-.1.3 0 .1.2.2.3.2l.1.1v.3h-.4c-.7.3-1 1.1-1.1 1.6v.1c-.2 0-.4-.1-.7.1.2-.3.3-.7.3-1.1v-.3c-.1-.3-.4-.4-.6-.5.3-.3.6-.8.6-1.4 0-.3-.1-.7-.3-1-.2-.3-.5-.3-.7-.2v-.3-.5l.2.3m-.3.9v.2-.2m-3.6 2.6c.1-.2.4-.2.7-.3l.3-.2c.1-.2 0-.4-.2-.9s-.6-1.2-.3-1.4c.1-.1.2 0 .4 0h.6c.2-.1.2-.3.4-.7.1-.4.3-1.1.6-1 .2 0 .4.1.5.3.3.4.2 1.1.1 1.4l.1.4c.2.2.4 0 .5 0l.3-.1c.5.7.1 1.4-.4 2-.1.2-.3.3-.2.5.1.2.3.2.5.2s.4 0 .4.1c.1.2-.2.9-.6 1.5-.1.1-.3.1-.4.2-.3.1-.8.3-1.2.7.1-.4.3-1.4.4-2.2s.1-1.5-.1-1.5c-.1 0-.2.8-.4 1.6s-.4 1.7-.5 2h-.5c.1-.3.4-.8.4-1.3 0-.4-.2-.9-.7-1.2-.3-.2-.5-.1-.7 0v-.1m-.9.8l.4.4c.2.1.4-.1.5-.2l.2-.2c.6.4.5.9.1 1.7l-.1.5c.1.5.6.5 1 .5h.4c-.1.2-.2.4-.3.7-.3.1-.5.2-.6.4-.2.3-.3.6-.3.9-.2-.2-.5-.4-.8-.4-.1-.2-.2-.5-.2-.8-.2-.8-.4-1.7-.6-1.6-.1 0-.1.9 0 1.7 0 .3.1.6.2.8-.2.1-.3.2-.4.3-.1-.2-.2-.3-.3-.5l-.3-.2c-.1-.2-.2-.4-.3-.5.2-.1.2-.2.2-.3 0-.2-.1-.3-.3-.5-.5-.6-.7-1-.7-1.1.1-.2.1-.2.3-.1.1 0 .4.1.5-.1.2-.1.1-.4.1-.7-.1-.5-.1-1.1.2-1.2.4-.4.9.2 1.1.5M21 3.1c0-.2.1-.2.4-.2.2 0 .4 0 .5-.2s.1-.3-.1-.7-.5-1.2-.1-1.3c.4-.2 1 .6 1.3.9l.3.3c.1 0 .3.1.5-.2.1-.1.1-.2.4-.1.3.1.4 1 .3 1.6 0 .1.1.3.2.3l.4-.1.3-.2c.1.2 0 1.2-.1 1.8-.2-.1-.5-.2-.8-.1-.2.1-.3.2-.4.3-.3-.2-.6-.2-.8-.1 0-.7-.1-1.9-1.1-2-.4-.1-.7.3-.9.5-.2-.1-.3-.3-.3-.5m-2.5 3.3c0-.2.2-.3.5-.4.2-.1.3-.1.4-.3l-.1-.5c-.3-.6-.6-1.3-.2-1.6.6-.4 1-.1 1.6.6.2.2.3.4.5.4.3 0 .4-.2.5-.5.1-.2.3-.5.4-.4.5.1.6 1.2.6 1.6 0 .3 0 .5.2.6s.3 0 .4-.1.3-.2.6 0v1.1c-.3 0-.6 0-.9.5l-.1.3c0 .3.2.7.5 1-.2-.1-.4-.2-.6-.2-.1-.2-.2-.7-.5-1.2-.2-.4-1-1.3-1.2-1.1s.4.9.6 1.2.3.5.4.7c-.2-.1-.5-.2-.8-.1-.5.2-.4.7-.3 1-.8-.1-.9-.2-.9-.3l.2-.3.4-.6c0-.3-.3-.4-.7-.6-1 0-1.5-.2-1.5-.8M17 8.6c.5-.5 1-.2 1.6.1l.5.2h.1c.1.5.7.7 1.4.8-.2.4-.3 1.1.3 2.1-.1.2-.2.4-.1.6.1.4.6.9 1.1 1.1.7.3 1.4.3 2 .1h.1l.1-.1h.1c0 .4.2.7.4.9-.1.1-.2.3-.3.4-.2-.1-.4-.1-.7-.1-.5-.6-1.1-.5-1.4-.3-.2-.3-.5-.9-.9-1.1h-.6l-.3.2c-.3-.6-.7-.9-1.1-1.1h-.1c0-.2.1-.4 0-.6-.1-.4-.5-.4-.8-.4-.7 0-.9-.1-.9-.5l.1-.3.2-.6-.3-.6c-.6-.3-.7-.6-.5-.8M11 11.2c0-.1.3-.2.4-.3l.4-.2c.1-.2.1-.4 0-.7-.1-.7-.2-1.1.2-1.3.2-.1.3.1.6.4l.5.4c.4.1.5-.3.7-.5l.2-.4c.2 0 .4.8.4 1.1.1.4.1.7.4.8s.5-.2.7-.3l.2-.2c.2.1.3.6.3 1s0 .7.2.8c.1.1.4.2.8-.1.3.3.9.4 1.2.4h.3c0 .2-.1.3-.1.4-1.1-.4-1.9-.2-2.4-.1h-.4l-.6.2v.1c-.3-.2-.7-.6-1-1-.5-.6-.7-1.4-.9-1.3-.4.1.1 1.1.4 1.5.4.6 1.1 1.2 1.6 1.5 0 .3 0 .5.1.8-.4.1-.5.5-.6.7h-.1c-.1-.1-.2-.4-.2-.6-.1-.3-.1-.6-.3-.7-.3-.2-.6-.1-1 .1l-.4.1-.2-.2v-.1c-.2-.2-.4-.6-.4-.6.1-.1.5-.3.6-.3s.3-.1.3-.2c.1-.3-.1-.4-.4-.5-1.3-.2-1.5-.5-1.5-.7m-.3 5.9c-.4.2-.6.2-.7.1l-.1-.2c0-.2.3-.4.3-.4l.1-.3-.3-.2c-.3 0-1.1-.3-1.3-.7-.1-.2-.1-.4 0-.6.2-.4.4-.4.9-.2h.4c.2-.1.2-.4.2-.5 0-.3 0-.5.1-.5.3-.1.8.1 1.1.4l.5.6.2.3c.3.2.6.1.9 0l.4-.1.1.3c0 .2.1.4.2.6-.3.1-.6.3-.7.8v.3c0 .6.6 1 .8 1.1h.1V18.2c-.1.1-.2.2-.3.2-.3 0-.8 0-1.1.5l-.4-.4c.2-.3.5-.8.2-1.1-.4-.7-1.1-.5-1.6-.3m-.8 4.8l-.5.2c-.4.3-.7.4-1.1.1-.1-.1-.1-.2.1-.5.1-.1.3-.4.1-.6l-.5-.2c-.7-.2-1.1-.4-1-.8 0-.2.1-.3.1-.3.2-.1.5 0 .8 0h.6c.3-.2.2-.5.2-.7-.1-.5 0-.5.1-.5.4-.1.8.3 1.1.6.2.2.4.3.6.3.3 0 .3-.3.3-.4.1-.2.1-.3.2-.3.2 0 .8.4 1.2 1l.1.1.1.3.2.5c-.3-.1-.6-.2-.9-.2-.6-.1-2.6 0-2.6.3 0 .2 1.7.2 2.3.3.1 0 .3 0 .4.1-.2.2-.3.5-.3.8v.5h-.1c-.4-.2-.9-.6-1.5-.3v-.3m3.7 3l-.1.3-.1-.1-.2-.1-.4.2c-.3.2-1.1.9-1.4.6-.1-.1-.1-.2-.2-.5l-.2-.5-.6-.1c-.6 0-.8 0-1-.4V24c.1-.1.3-.2.5-.3l.5-.3v-1.1c.2-.1.5 0 .9.3.3.2.6.4.8.2.2-.2.2-.5.2-.9v-.5c.2-.1.7-.2 1 0 .3.3.5.4.7.5-.1.3 0 .8.3 1.1.1.1.3.2.6.3-.2.1-.3.3-.3.4v.1l.1.3c-.2.2-.7.3-1.1.8m5 1.7c-.1-.2-.2-.4-.4-.5-.1 0-.2 0-.4.1-.3.2-.4.5-.5.9-.2.5-.4 1-1 1.1-.3.1-.3 0-.3-.2s-.2-.6-.6-.6l-.8.3c-.3.1-1 .5-1.1.4-.3-.4 0-.8.5-1.3l.3-.3c.1-.3 0-.5-.1-.6-.2-.2-.2-.3 0-.6.3-.4.6-.4 1-.3.2 0 .4.1.6-.1l.1-.2c0-.2-.2-.4-.2-.4l-.2-.2.1-.1c.5-.3 1.2.1 1.5.3.1.1.2.1.4.1l.2-.2c.1-.2 0-.3-.1-.5l-.2-.4.4-.1h.4c-.1.1-.2.3-.2.5l.1.2c.1.2.3.3.5.4-.8.2-1.2.5-1.8 1-.3.3-1 .9-1 1 0 .2 2-1 2.8-1.3.2-.1.7-.2 1-.3v.1c-.4.9-.7 1.6-1 1.8m-.1-3l.2-.2.2-.5c0-.3-.3-.3-.6-.3h-.5c-.5 0-.9-.2-1-.6l.2-.1c.2-.1.4-.4.2-.7l-.5-.2c-.6-.1-.7-.2-.7-.5l.2-.2c.2-.1.4-.2.4-.5l-.3-.5c-.4-.3-.5-.6-.3-.9l.2-.2c.3-.1.8.3 1 .4l.2.1c.3.1.5-.2.6-.4l.1-.2c.6.2.8.8.8 1.1 0 .2.1.3.3.3.1 0 .3-.1.3-.2.1-.2.2-.5.3-.6.2.2.6.9.6 1.8 0 .2.1.3.2.3s.3 0 .4-.2l.2-.3c.1.1.4.6.5 1.8v.2c-.1.1-.6-.1-1.1-.5h-.1c-.3-.2-.7-.5-1.1-.8 0 0-1-.7-1.1-.5s.8 1 .8 1c.4.3.8.6 1.2.8l.1.1c.4.4.7.8.7.9-1.6.7-2.4.7-2.6.3M18 40.9c-.7 0-1-.3-1-.3h-.4s-.2.3-.9.3-1.2-.2-1.5-.7c-.2-.3-.3-1 0-1.6.3-.5.8-.7 1.5-.7.6 0 1.3.3 1.6.7l1.3 1.9.2.2c-.3.1-.5.2-.8.2m9.1 0c-.6 0-.9-.3-.9-.3h-.4s-.2.3-.8.3c-.5 0-1.1-.3-1.4-.7l-1.3-1.9-.2-.2c.1-.1.4-.1.6-.1.6 0 .9.3 1 .3l.4-.1s.2-.3.8-.3c.5 0 1.1.3 1.4.7l1.3 1.9.2.2c-.2.1-.4.2-.7.2m-2.8-3.5c-.2.1-.4.2-.5.2-.2-.1-.6-.3-1.1-.3h-.1c.6-.3 1.3-.3 1.7-.3v.4M28.3 37.6c-.2-.1-.6-.3-1.1-.3h-.4c.2-.3.5-.7.9-.7.2 0 .3.1.4.2.2.2.3.5.3.7l-.1.1m7.9 3.3c-.6 0-.9-.3-.9-.3-.1-.1-.3-.1-.4 0 0 0-.2.3-.8.3-.5 0-1.1-.3-1.4-.7l-1.3-1.9-.2-.2c.2-.1.4-.1.7-.1.6 0 .9.3 1 .3.1.1.3.1.4-.1 0 0 .2-.3.8-.3.5 0 1.1.3 1.4.7l1.3 1.9.2.2c-.2.1-.5.2-.8.2m-5.6-14.6c-1.6 2.5-.8 6.3-.4 7l.1.1c.4.7.9 1.7 3.2 2.6l.3.1c1.5.6 2 .9 2.3 1.2-.4.1-.7.2-.9.3-.3-.2-.7-.3-1.1-.3-.2 0-.4 0-.6.1-.1-.2-.1-.3-.2-.4-.4-.7-1-1-1.6-1.2-.8-.3-1.6-.7-2.1-2-.3-.7-.4-1.6-.4-2.5 0-.6-.2-2.6-.4-2.5-.2 0-.3 2-.2 2.6.1.9.2 1.9.5 2.7.6 1.6 1.6 2 2.5 2.3.6.3 1.1.5 1.3 1.1v.1c-.2-.1-.5-.2-1-.2-.6 0-1 .2-1.2.3-.4-.2-.8-.3-1.2-.3h-.4c0-.3-.2-.7-.4-1-.2-.2-.5-.4-.9-.4-.7 0-1.3.6-1.6 1.5v.1c-.3-.2-.7-.3-1.1-.3v-.5c0-.2.1-.5.2-.7s.2-.4.4-.7c.7-1.3.8-2.4.6-2.5-.2 0-.8 1.5-1.2 2.1-.1.2-.3.5-.4.7s-.2.5-.2.7c-.7-.1-2.2-.1-2.9 1.1-.3-.2-.7-.3-1.1-.3-.6 0-.9.2-1.1.3h-.1c.8-.6 2.1-1.2 3.1-1.7l.5-.3c1.4-.7 2.3-2.2 2.6-4.1 0-.2 0-.2-1.1-1.9-.5-.8-1.1-1.7-1.2-2-.2-.5-1.5-2.6-3.1-3.2.3-.1.6-.2 1-.3.2-.1.3-.2.4-.4v-.1c0-.2-.1-.3-.2-.5.2 0 .4.1.6 0s.4-.3.3-.7c0-.3 0-.6-.1-.9.2 0 .9.5.8 2.4-.1 2.8 2.8 4.8 3 4.8l.3-.1c.2-.2.3-.7.3-1.3 0-.7-.1-1.6-.3-2.4-.5-2.8-2.2-3.3-2.8-3.5l-.2-.1c.3-.2.6-.5.7-.9l.1.1c.5.2 1.1 0 1.5-.2v.1c0 .6 0 1.7.7 3l.9 1.5.5.8c.1.1.2.2.3.1.5-.1.9-2.8.9-2.9v-.4c0-.6-.1-1.5-.4-2.3l.1.1c.2 0 .3 0 .4-.2.1-.5.3-.9.3-1.3v.3l.1.7c.2.2.4.1 1-.2.2-.1.4-.2.7-.3-.4.5-.7 1.1-1 1.9-.3.7-.3 1.6-.4 2.3 0 .5 0 1-.2 1.3v.1l.2.3c.1.1.3 0 .4-.1.3-.5 1.1-1.5 1.8-2.2-.1.3-.3.6-.3.8v.1l.1.3h.3s.5-.2 1.2-.2c-.2.4-1.5 1-2.5 2.5m2-2.9c.1-.3.3-.8.5-1.1.1-.2.3-.3.7-.5.1-.1.9-.5.8-.7s-1 .1-1.1.2c-.4.2-.9.5-.9.5-.3.2-.6.4-.9.7-.1-.2-.1-.5.1-.8l.3-.2c.3-.1.5-.3.6-.7.4.1.8.1.9 0 .3-.1.3-.4.4-.6h.1c.5.1 1.4.4 2.1-.2.1-.1.2-.3.2-.4l-.1-.2h.6v.2c0 .1-.1.2-.3.4l-.4.4v.2c0 .2.1.3.2.4.1.1.1.2.1.3v.1c0 .4-.4.5-1.1.6l-.6.2-.1.3c0 .2.2.4.2.4l.1.2-.1.1c-.1.1-.6.2-.9.2l-.4.1c-.4-.2-.7-.2-1-.1m7.7 4c-.2.2-.4.2-.8.1l-.3-.1c-.2 0-.3.1-.4.3-.1.1-.2.2-.4.2s-.6-.3-.8-.5l-.4-.3c-.3 0-.4.2-.4.3-.1.1-.1.2-.4.2s-.6-.8-.8-1.2c-.2-.4-.2-.6-.4-.6-.3-.1-.4.1-.5.2-.2-.2-.4-1.1-.5-1.8.5.2 1.2.5 1.6.8.3.3 1 .8 1.2.6s-.4-.9-.8-1.1c-.4-.3-.8-.6-1.2-.8 1.2-.4 2-.3 2.1-.3v.4c0 .3.3.3 1 .4.3 0 .9.1 1 .2l-.1.2c-.1.1-.1.2-.1.4v.2c.1.2.3.3.7.4.2.1.6.2.6.3l-.1.1c-.1.1-.2.3-.2.5v.1l.3.4.3.3-.2.1m-1-2.5zm3-.6c-.1.1-.2.2-.5.1l-.6.1-.2.4c0 .2 0 .2-.1.2-.1.1-.4.1-.6 0h-.2c-.2-.1-.3-.1-.5-.2l-.2-.1c.1-.1.1-.3.1-.5l-.1-.4c-.2-.3-.7-.3-1.5-.4 0 0-.2 0-.4-.1v-.2c0-.2-.1-.3-.2-.5-.3-.2-.9-.3-1.8-.1l-.2-.4h.1c.4 0 .9-.1 1.3-.4 1 .5 2.1.5 2.7.2l.1-.1c.1.1.2.3.4.3h.7c.2 0 .7-.1.8-.1.3.2.2.3.1.5l-.1.5c.1.2.2.3.4.3.5.5.6.6.5.9m.9-.7l.2.1-.2-.1m2.2-.8zm1.1-.9c0 .2-.1.3-.2.4-.2.2-.6.1-.9 0h-.5c-.2.1-.2.3-.2.5s-.1.5-.2.5c-.2.1-.7-.1-.9-.2-.3-.1-.5-.2-.7-.1l-.1.3-.1.2c-.2-.2-.5-.4-.6-.4 0-.1.1-.3.1-.5s-.1-.5-.4-.8-.9-.2-1.3-.1l-.4.1s-.1-.2-.2-.3c.2 0 .3-.1.4-.1h.4c.6 0 2.7.3 2.7.1s-1.3-.5-2.2-.6c.5-.4.6-.9.7-1.1v-.1l.1-.1c.1 0 .1.1.2.4 0 .2.1.3.3.4.2.1.3 0 .6-.2s1.2-.7 1.5-.4c.2.2.2.4.1.6-.1.3-.1.5.1.6l.3.1c1.2 0 1.5.3 1.4.8"/></g></svg>